<svg width="1036" height="740" viewBox="0 0 1036 740" fill="none" xmlns="http://www.w3.org/2000/svg">
<rect width="1036" height="739.689" rx="19" fill="white"/>
<rect width="108.665" height="3.36293" transform="matrix(0.772347 0.635201 -0.63273 0.774372 125.195 204.284)" fill="#A1A1A1" fill-opacity="0.29"/>
<rect width="108.697" height="3.36195" transform="matrix(0.712158 -0.70202 0.699696 0.714441 132.018 555.59)" fill="#A1A1A1" fill-opacity="0.29"/>
<rect width="108.594" height="3.36513" transform="matrix(-0.893325 0.449412 -0.447078 -0.894495 488.972 293.386)" fill="#A1A1A1" fill-opacity="0.29"/>
<rect width="80.2845" height="3.35973" transform="matrix(-0.552126 0.833761 -0.832099 -0.554628 564.771 196.046)" fill="#A1A1A1" fill-opacity="0.29"/>
<rect width="80.3057" height="3.35884" transform="matrix(0.473141 0.880987 -0.879696 0.475536 528.434 75.2036)" fill="#A1A1A1" fill-opacity="0.29"/>
<rect width="80.1101" height="3.36703" transform="matrix(0.986331 0.164778 -0.163737 0.986504 619.243 172.856)" fill="#A1A1A1" fill-opacity="0.29"/>
<rect width="80.1101" height="3.36703" transform="matrix(0.986331 0.164778 -0.163737 0.986504 741.191 193.06)" fill="#A1A1A1" fill-opacity="0.29"/>
<rect width="80.137" height="3.3659" transform="matrix(0.932412 0.361397 -0.359353 0.933202 840.303 218.876)" fill="#A1A1A1" fill-opacity="0.29"/>
<rect width="80.2516" height="3.36111" transform="matrix(0.656079 -0.754692 0.752571 0.658511 645.542 273.829)" fill="#A1A1A1" fill-opacity="0.29"/>
<rect width="80.1943" height="3.36351" transform="matrix(-0.806199 -0.591644 0.589138 -0.808033 733.689 345.366)" fill="#A1A1A1" fill-opacity="0.29"/>
<rect width="80.3562" height="3.35672" transform="matrix(0.177638 -0.984096 0.983893 0.178762 623.166 396.729)" fill="#A1A1A1" fill-opacity="0.29"/>
<rect width="80.1049" height="3.36725" transform="matrix(-0.996426 -0.0844752 0.0839304 -0.996472 620.962 290.733)" fill="#A1A1A1" fill-opacity="0.29"/>
<rect width="80.1718" height="3.36445" transform="matrix(-0.857979 -0.513685 0.511223 -0.859448 423.442 509.888)" fill="#A1A1A1" fill-opacity="0.29"/>
<rect width="80.3263" height="3.35798" transform="matrix(-0.381478 -0.924378 0.923497 -0.383606 508.367 658.087)" fill="#A1A1A1" fill-opacity="0.29"/>
<g filter="url(#filter0_d_3573_315)">
<ellipse cx="275.782" cy="378.824" rx="141.527" ry="141.989" fill="#EDF6FF" fill-opacity="0.88" shape-rendering="crispEdges"/>
</g>
<g filter="url(#filter1_d_3573_315)">
<path d="M165.581 178.468C165.581 212.563 136.779 240.202 101.25 240.202C65.7216 240.202 36.9199 212.563 36.9199 178.468C36.9199 144.373 65.7216 116.734 101.25 116.734C136.779 116.734 165.581 144.373 165.581 178.468Z" fill="#9881FF" fill-opacity="0.41" shape-rendering="crispEdges"/>
</g>
<g filter="url(#filter2_d_3573_315)">
<path d="M174.531 580.302C174.531 614.397 145.729 642.037 110.201 642.037C74.6718 642.037 45.8701 614.397 45.8701 580.302C45.8701 546.207 74.6718 518.568 110.201 518.568C145.729 518.568 174.531 546.207 174.531 580.302Z" fill="#9881FF" fill-opacity="0.41" shape-rendering="crispEdges"/>
</g>
<g filter="url(#filter3_d_3573_315)">
<path d="M1005.79 271.631C1005.79 305.726 976.991 333.365 941.462 333.365C905.934 333.365 877.132 305.726 877.132 271.631C877.132 237.536 905.934 209.897 941.462 209.897C976.991 209.897 1005.79 237.536 1005.79 271.631Z" fill="#9881FF" fill-opacity="0.41" shape-rendering="crispEdges"/>
</g>
<g filter="url(#filter4_d_3573_315)">
<path d="M616.102 170.05C616.102 193.916 596.567 213.264 572.469 213.264C548.371 213.264 528.836 193.916 528.836 170.05C528.836 146.183 548.371 126.836 572.469 126.836C596.567 126.836 616.102 146.183 616.102 170.05Z" fill="#6747C7" fill-opacity="0.7" shape-rendering="crispEdges"/>
</g>
<g filter="url(#filter5_d_3573_315)">
<path d="M550.093 59.4894C550.093 76.2269 536.318 89.7953 519.326 89.7953C502.334 89.7953 488.56 76.2269 488.56 59.4894C488.56 42.7519 502.334 29.1835 519.326 29.1835C536.318 29.1835 550.093 42.7519 550.093 59.4894Z" fill="#6747C7" fill-opacity="0.7" shape-rendering="crispEdges"/>
</g>
<g filter="url(#filter6_d_3573_315)">
<path d="M684.348 282.294C684.348 306.161 664.813 325.508 640.715 325.508C616.617 325.508 597.082 306.161 597.082 282.294C597.082 258.428 616.617 239.08 640.715 239.08C664.813 239.08 684.348 258.428 684.348 282.294Z" fill="#6747C7" fill-opacity="0.7" shape-rendering="crispEdges"/>
</g>
<path d="M72.2239 170.897V168.945H74.8799C75.3706 168.945 75.7546 168.801 76.0319 168.513C76.3092 168.225 76.4479 167.873 76.4479 167.457C76.4479 167.169 76.3839 166.913 76.2559 166.689C76.1279 166.465 75.9466 166.289 75.7119 166.161C75.4879 166.033 75.2106 165.969 74.8799 165.969H72.2239V164.065H74.6719C75.0879 164.065 75.4239 163.964 75.6799 163.761C75.9359 163.548 76.0639 163.228 76.0639 162.801C76.0639 162.385 75.9359 162.076 75.6799 161.873C75.4239 161.66 75.0879 161.553 74.6719 161.553H72.2239V159.601H75.1519C75.8772 159.601 76.4906 159.734 76.9919 160.001C77.5039 160.268 77.8932 160.625 78.1599 161.073C78.4266 161.521 78.5599 162.017 78.5599 162.561C78.5599 163.254 78.3359 163.841 77.8879 164.321C77.4399 164.801 76.7786 165.132 75.9039 165.313L75.9679 164.465C76.9172 164.646 77.6479 165.014 78.1599 165.569C78.6826 166.124 78.9439 166.806 78.9439 167.617C78.9439 168.236 78.7892 168.796 78.4799 169.297C78.1812 169.788 77.7439 170.177 77.1679 170.465C76.6026 170.753 75.9199 170.897 75.1199 170.897H72.2239ZM70.3039 170.897V159.601H72.7839V170.897H70.3039ZM83.7859 171.073C83.0712 171.073 82.4366 170.929 81.8819 170.641C81.3379 170.342 80.9112 169.937 80.6019 169.425C80.2926 168.902 80.1379 168.305 80.1379 167.633V163.121H82.5859V167.601C82.5859 167.868 82.6286 168.097 82.7139 168.289C82.8099 168.481 82.9486 168.63 83.1299 168.737C83.3112 168.844 83.5299 168.897 83.7859 168.897C84.1486 168.897 84.4366 168.785 84.6499 168.561C84.8632 168.326 84.9699 168.006 84.9699 167.601V163.121H87.4179V167.617C87.4179 168.3 87.2632 168.902 86.9539 169.425C86.6446 169.937 86.2179 170.342 85.6739 170.641C85.1299 170.929 84.5006 171.073 83.7859 171.073ZM91.7869 171.089C91.3282 171.089 90.8749 171.03 90.4269 170.913C89.9896 170.796 89.5789 170.63 89.1949 170.417C88.8216 170.193 88.5016 169.937 88.2349 169.649L89.6269 168.241C89.8829 168.518 90.1869 168.737 90.5389 168.897C90.8909 169.046 91.2749 169.121 91.6909 169.121C91.9789 169.121 92.1976 169.078 92.3469 168.993C92.5069 168.908 92.5869 168.79 92.5869 168.641C92.5869 168.449 92.4909 168.305 92.2989 168.209C92.1176 168.102 91.8829 168.012 91.5949 167.937C91.3069 167.852 91.0029 167.761 90.6829 167.665C90.3629 167.569 90.0589 167.436 89.7709 167.265C89.4829 167.094 89.2482 166.86 89.0669 166.561C88.8856 166.252 88.7949 165.862 88.7949 165.393C88.7949 164.892 88.9229 164.46 89.1789 164.097C89.4349 163.724 89.7976 163.43 90.2669 163.217C90.7362 163.004 91.2856 162.897 91.9149 162.897C92.5762 162.897 93.1842 163.014 93.7389 163.249C94.3042 163.473 94.7629 163.809 95.1149 164.257L93.7229 165.665C93.4776 165.377 93.2002 165.174 92.8909 165.057C92.5922 164.94 92.2989 164.881 92.0109 164.881C91.7336 164.881 91.5256 164.924 91.3869 165.009C91.2482 165.084 91.1789 165.196 91.1789 165.345C91.1789 165.505 91.2696 165.633 91.4509 165.729C91.6322 165.825 91.8669 165.91 92.1549 165.985C92.4429 166.06 92.7469 166.15 93.0669 166.257C93.3869 166.364 93.6909 166.508 93.9789 166.689C94.2669 166.87 94.5016 167.116 94.6829 167.425C94.8642 167.724 94.9549 168.118 94.9549 168.609C94.9549 169.366 94.6669 169.969 94.0909 170.417C93.5256 170.865 92.7576 171.089 91.7869 171.089ZM100.043 171.073C99.243 171.073 98.5177 170.897 97.867 170.545C97.2164 170.193 96.7044 169.708 96.331 169.089C95.9577 168.47 95.771 167.777 95.771 167.009C95.771 166.23 95.9577 165.537 96.331 164.929C96.715 164.31 97.2324 163.825 97.883 163.473C98.5337 163.121 99.2644 162.945 100.075 162.945C100.683 162.945 101.238 163.052 101.739 163.265C102.251 163.468 102.704 163.777 103.099 164.193L101.531 165.761C101.35 165.558 101.136 165.409 100.891 165.313C100.656 165.217 100.384 165.169 100.075 165.169C99.723 165.169 99.4084 165.249 99.131 165.409C98.8644 165.558 98.651 165.772 98.491 166.049C98.3417 166.316 98.267 166.63 98.267 166.993C98.267 167.356 98.3417 167.676 98.491 167.953C98.651 168.23 98.8697 168.449 99.147 168.609C99.4244 168.769 99.7337 168.849 100.075 168.849C100.395 168.849 100.678 168.796 100.923 168.689C101.179 168.572 101.398 168.412 101.579 168.209L103.131 169.777C102.726 170.204 102.267 170.529 101.755 170.753C101.243 170.966 100.672 171.073 100.043 171.073ZM107.281 171.057C106.566 171.057 105.926 170.881 105.361 170.529C104.806 170.177 104.364 169.697 104.033 169.089C103.713 168.481 103.553 167.788 103.553 167.009C103.553 166.23 103.713 165.537 104.033 164.929C104.364 164.321 104.806 163.841 105.361 163.489C105.926 163.137 106.566 162.961 107.281 162.961C107.804 162.961 108.273 163.062 108.689 163.265C109.116 163.468 109.462 163.75 109.729 164.113C109.996 164.465 110.145 164.87 110.177 165.329V168.689C110.145 169.148 109.996 169.558 109.729 169.921C109.473 170.273 109.132 170.55 108.705 170.753C108.278 170.956 107.804 171.057 107.281 171.057ZM107.777 168.849C108.3 168.849 108.721 168.678 109.041 168.337C109.361 167.985 109.521 167.542 109.521 167.009C109.521 166.646 109.446 166.326 109.297 166.049C109.158 165.772 108.956 165.558 108.689 165.409C108.433 165.249 108.134 165.169 107.793 165.169C107.452 165.169 107.148 165.249 106.881 165.409C106.625 165.558 106.417 165.772 106.257 166.049C106.108 166.326 106.033 166.646 106.033 167.009C106.033 167.361 106.108 167.676 106.257 167.953C106.406 168.23 106.614 168.449 106.881 168.609C107.148 168.769 107.446 168.849 107.777 168.849ZM109.425 170.897V168.801L109.793 166.913L109.425 165.025V163.121H111.825V170.897H109.425ZM121.732 170.897V166.465C121.732 166.06 121.604 165.734 121.348 165.489C121.102 165.233 120.788 165.105 120.404 165.105C120.137 165.105 119.902 165.164 119.7 165.281C119.497 165.388 119.337 165.548 119.22 165.761C119.102 165.964 119.044 166.198 119.044 166.465L118.1 166.001C118.1 165.393 118.233 164.86 118.5 164.401C118.766 163.942 119.134 163.59 119.604 163.345C120.084 163.089 120.622 162.961 121.22 162.961C121.796 162.961 122.302 163.1 122.74 163.377C123.188 163.644 123.54 164.001 123.796 164.449C124.052 164.897 124.18 165.388 124.18 165.921V170.897H121.732ZM116.596 170.897V163.121H119.044V170.897H116.596ZM129 171.057C128.285 171.057 127.645 170.881 127.08 170.529C126.525 170.177 126.082 169.697 125.752 169.089C125.432 168.481 125.272 167.788 125.272 167.009C125.272 166.23 125.432 165.537 125.752 164.929C126.082 164.321 126.525 163.841 127.08 163.489C127.645 163.137 128.285 162.961 129 162.961C129.522 162.961 129.992 163.062 130.408 163.265C130.834 163.468 131.181 163.75 131.448 164.113C131.714 164.465 131.864 164.87 131.896 165.329V168.689C131.864 169.148 131.714 169.558 131.448 169.921C131.192 170.273 130.85 170.55 130.424 170.753C129.997 170.956 129.522 171.057 129 171.057ZM129.496 168.849C130.018 168.849 130.44 168.678 130.76 168.337C131.08 167.985 131.24 167.542 131.24 167.009C131.24 166.646 131.165 166.326 131.016 166.049C130.877 165.772 130.674 165.558 130.408 165.409C130.152 165.249 129.853 165.169 129.512 165.169C129.17 165.169 128.866 165.249 128.6 165.409C128.344 165.558 128.136 165.772 127.976 166.049C127.826 166.326 127.752 166.646 127.752 167.009C127.752 167.361 127.826 167.676 127.976 167.953C128.125 168.23 128.333 168.449 128.6 168.609C128.866 168.769 129.165 168.849 129.496 168.849ZM131.144 170.897V168.801L131.512 166.913L131.144 165.025V163.121H133.544V170.897H131.144ZM89.0574 190.897L85.4254 179.601H87.9214L90.5774 188.289H89.6014L92.1934 179.601H94.1614L96.7534 188.289H95.7934L98.4334 179.601H100.913L97.2814 190.897H95.3134L92.7054 182.209H93.6334L91.0254 190.897H89.0574ZM104.889 191.073C104.046 191.073 103.294 190.902 102.633 190.561C101.982 190.209 101.47 189.724 101.097 189.105C100.723 188.486 100.537 187.788 100.537 187.009C100.537 186.23 100.718 185.537 101.081 184.929C101.454 184.31 101.955 183.825 102.585 183.473C103.214 183.121 103.923 182.945 104.713 182.945C105.481 182.945 106.158 183.11 106.745 183.441C107.331 183.772 107.79 184.23 108.121 184.817C108.462 185.404 108.633 186.076 108.633 186.833C108.633 186.972 108.622 187.121 108.601 187.281C108.59 187.43 108.563 187.606 108.521 187.809L101.817 187.825V186.145L107.481 186.129L106.425 186.833C106.414 186.385 106.345 186.017 106.217 185.729C106.089 185.43 105.897 185.206 105.641 185.057C105.395 184.897 105.091 184.817 104.729 184.817C104.345 184.817 104.009 184.908 103.721 185.089C103.443 185.26 103.225 185.505 103.065 185.825C102.915 186.145 102.841 186.534 102.841 186.993C102.841 187.452 102.921 187.846 103.081 188.177C103.251 188.497 103.486 188.748 103.785 188.929C104.094 189.1 104.457 189.185 104.873 189.185C105.257 189.185 105.603 189.121 105.913 188.993C106.222 188.854 106.494 188.652 106.729 188.385L108.073 189.729C107.689 190.177 107.225 190.513 106.681 190.737C106.137 190.961 105.539 191.073 104.889 191.073ZM114.294 191.057C113.772 191.057 113.292 190.95 112.854 190.737C112.417 190.513 112.06 190.22 111.782 189.857C111.505 189.484 111.345 189.068 111.302 188.609V185.329C111.345 184.87 111.505 184.465 111.782 184.113C112.06 183.75 112.417 183.468 112.854 183.265C113.292 183.062 113.772 182.961 114.294 182.961C115.03 182.961 115.681 183.137 116.246 183.489C116.822 183.841 117.27 184.321 117.59 184.929C117.921 185.537 118.086 186.23 118.086 187.009C118.086 187.788 117.921 188.481 117.59 189.089C117.27 189.697 116.822 190.177 116.246 190.529C115.681 190.881 115.03 191.057 114.294 191.057ZM109.814 190.897V179.281H112.262V185.025L111.862 186.913L112.23 188.801V190.897H109.814ZM113.862 188.849C114.204 188.849 114.502 188.769 114.758 188.609C115.025 188.449 115.233 188.23 115.382 187.953C115.532 187.676 115.606 187.361 115.606 187.009C115.606 186.646 115.532 186.326 115.382 186.049C115.233 185.772 115.025 185.558 114.758 185.409C114.502 185.249 114.204 185.169 113.862 185.169C113.521 185.169 113.217 185.249 112.95 185.409C112.684 185.558 112.476 185.772 112.326 186.049C112.188 186.326 112.118 186.646 112.118 187.009C112.118 187.372 112.193 187.692 112.342 187.969C112.492 188.246 112.694 188.465 112.95 188.625C113.217 188.774 113.521 188.849 113.862 188.849Z" fill="#2C274B"/>
<path d="M97.8248 585.254C96.8968 585.254 96.0968 585.105 95.4248 584.806C94.7635 584.497 94.1555 584.033 93.6008 583.414L95.2328 581.798C95.5955 582.214 95.9955 582.539 96.4328 582.774C96.8808 582.998 97.3982 583.11 97.9848 583.11C98.5182 583.11 98.9288 583.014 99.2168 582.822C99.5155 582.63 99.6648 582.363 99.6648 582.022C99.6648 581.713 99.5688 581.462 99.3768 581.27C99.1848 581.078 98.9288 580.913 98.6088 580.774C98.2995 580.635 97.9528 580.502 97.5688 580.374C97.1955 580.246 96.8222 580.102 96.4488 579.942C96.0755 579.771 95.7288 579.563 95.4088 579.318C95.0995 579.062 94.8488 578.747 94.6568 578.374C94.4648 577.99 94.3688 577.51 94.3688 576.934C94.3688 576.241 94.5342 575.643 94.8648 575.142C95.2062 574.641 95.6755 574.262 96.2728 574.006C96.8702 573.739 97.5582 573.606 98.3368 573.606C99.1262 573.606 99.8462 573.745 100.497 574.022C101.158 574.299 101.702 574.678 102.129 575.158L100.497 576.774C100.155 576.422 99.8088 576.161 99.4568 575.99C99.1155 575.819 98.7262 575.734 98.2888 575.734C97.8515 575.734 97.5048 575.819 97.2488 575.99C96.9928 576.15 96.8648 576.385 96.8648 576.694C96.8648 576.982 96.9608 577.217 97.1528 577.398C97.3448 577.569 97.5955 577.718 97.9048 577.846C98.2248 577.974 98.5715 578.102 98.9448 578.23C99.3288 578.358 99.7075 578.507 100.081 578.678C100.454 578.849 100.795 579.067 101.105 579.334C101.425 579.59 101.681 579.921 101.873 580.326C102.065 580.721 102.161 581.211 102.161 581.798C102.161 582.875 101.777 583.723 101.009 584.342C100.241 584.95 99.1795 585.254 97.8248 585.254ZM102.585 585.078L107.065 573.782H109.337L113.769 585.078H111.113L107.721 575.702H108.633L105.193 585.078H102.585ZM105.129 583.03V580.982H111.289V583.03H105.129ZM116.66 585.078V582.87H119.46C120.143 582.87 120.74 582.737 121.252 582.47C121.764 582.193 122.159 581.793 122.436 581.27C122.713 580.747 122.852 580.129 122.852 579.414C122.852 578.699 122.708 578.086 122.42 577.574C122.143 577.062 121.748 576.667 121.236 576.39C120.735 576.113 120.143 575.974 119.46 575.974H116.58V573.782H119.492C120.345 573.782 121.129 573.921 121.844 574.198C122.569 574.465 123.199 574.854 123.732 575.366C124.276 575.867 124.692 576.465 124.98 577.158C125.279 577.841 125.428 578.598 125.428 579.43C125.428 580.251 125.279 581.009 124.98 581.702C124.692 582.395 124.281 582.993 123.748 583.494C123.215 583.995 122.585 584.385 121.86 584.662C121.145 584.939 120.367 585.078 119.524 585.078H116.66ZM114.964 585.078V573.782H117.476V585.078H114.964Z" fill="#2C274B"/>
<path d="M870.686 262.771V260.915H873.07C873.571 260.915 873.955 260.787 874.222 260.531C874.499 260.275 874.638 259.928 874.638 259.491C874.638 259.086 874.504 258.75 874.238 258.483C873.971 258.216 873.587 258.083 873.086 258.083H870.686V256.131H873.374C874.12 256.131 874.776 256.275 875.342 256.563C875.907 256.84 876.35 257.23 876.67 257.731C876.99 258.232 877.15 258.808 877.15 259.459C877.15 260.12 876.99 260.702 876.67 261.203C876.35 261.694 875.902 262.078 875.326 262.355C874.75 262.632 874.072 262.771 873.294 262.771H870.686ZM868.766 267.427V256.131H871.278V267.427H868.766ZM874.91 267.427L871.39 262.563L873.694 261.939L877.886 267.427H874.91ZM882.397 267.603C881.555 267.603 880.803 267.432 880.141 267.091C879.491 266.739 878.979 266.254 878.605 265.635C878.232 265.016 878.045 264.318 878.045 263.539C878.045 262.76 878.227 262.067 878.589 261.459C878.963 260.84 879.464 260.355 880.093 260.003C880.723 259.651 881.432 259.475 882.221 259.475C882.989 259.475 883.667 259.64 884.253 259.971C884.84 260.302 885.299 260.76 885.629 261.347C885.971 261.934 886.141 262.606 886.141 263.363C886.141 263.502 886.131 263.651 886.109 263.811C886.099 263.96 886.072 264.136 886.029 264.339L879.325 264.355V262.675L884.989 262.659L883.933 263.363C883.923 262.915 883.853 262.547 883.725 262.259C883.597 261.96 883.405 261.736 883.149 261.587C882.904 261.427 882.6 261.347 882.237 261.347C881.853 261.347 881.517 261.438 881.229 261.619C880.952 261.79 880.733 262.035 880.573 262.355C880.424 262.675 880.349 263.064 880.349 263.523C880.349 263.982 880.429 264.376 880.589 264.707C880.76 265.027 880.995 265.278 881.293 265.459C881.603 265.63 881.965 265.715 882.381 265.715C882.765 265.715 883.112 265.651 883.421 265.523C883.731 265.384 884.003 265.182 884.237 264.915L885.581 266.259C885.197 266.707 884.733 267.043 884.189 267.267C883.645 267.491 883.048 267.603 882.397 267.603ZM891.083 267.603C890.283 267.603 889.558 267.427 888.907 267.075C888.256 266.723 887.744 266.238 887.371 265.619C886.998 265 886.811 264.307 886.811 263.539C886.811 262.76 886.998 262.067 887.371 261.459C887.755 260.84 888.272 260.355 888.923 260.003C889.574 259.651 890.304 259.475 891.115 259.475C891.723 259.475 892.278 259.582 892.779 259.795C893.291 259.998 893.744 260.307 894.139 260.723L892.571 262.291C892.39 262.088 892.176 261.939 891.931 261.843C891.696 261.747 891.424 261.699 891.115 261.699C890.763 261.699 890.448 261.779 890.171 261.939C889.904 262.088 889.691 262.302 889.531 262.579C889.382 262.846 889.307 263.16 889.307 263.523C889.307 263.886 889.382 264.206 889.531 264.483C889.691 264.76 889.91 264.979 890.187 265.139C890.464 265.299 890.774 265.379 891.115 265.379C891.435 265.379 891.718 265.326 891.963 265.219C892.219 265.102 892.438 264.942 892.619 264.739L894.171 266.307C893.766 266.734 893.307 267.059 892.795 267.283C892.283 267.496 891.712 267.603 891.083 267.603ZM896.796 267.603C896.38 267.603 896.034 267.459 895.756 267.171C895.479 266.883 895.34 266.536 895.34 266.131C895.34 265.704 895.479 265.352 895.756 265.075C896.034 264.787 896.38 264.643 896.796 264.643C897.223 264.643 897.57 264.787 897.836 265.075C898.114 265.352 898.252 265.704 898.252 266.131C898.252 266.536 898.114 266.883 897.836 267.171C897.57 267.459 897.223 267.603 896.796 267.603ZM906.416 267.587C905.68 267.587 905.024 267.411 904.448 267.059C903.883 266.707 903.435 266.227 903.104 265.619C902.784 265.011 902.624 264.318 902.624 263.539C902.624 262.76 902.784 262.067 903.104 261.459C903.435 260.851 903.883 260.371 904.448 260.019C905.024 259.667 905.68 259.491 906.416 259.491C906.949 259.491 907.429 259.592 907.856 259.795C908.293 259.998 908.651 260.28 908.928 260.643C909.216 260.995 909.376 261.4 909.408 261.859V265.139C909.376 265.598 909.221 266.014 908.944 266.387C908.667 266.75 908.309 267.043 907.872 267.267C907.435 267.48 906.949 267.587 906.416 267.587ZM906.848 265.379C907.2 265.379 907.504 265.304 907.76 265.155C908.016 264.995 908.219 264.776 908.368 264.499C908.517 264.222 908.592 263.902 908.592 263.539C908.592 263.176 908.517 262.862 908.368 262.595C908.229 262.318 908.027 262.099 907.76 261.939C907.504 261.779 907.205 261.699 906.864 261.699C906.523 261.699 906.219 261.779 905.952 261.939C905.696 262.099 905.488 262.318 905.328 262.595C905.179 262.872 905.104 263.187 905.104 263.539C905.104 263.891 905.179 264.206 905.328 264.483C905.477 264.76 905.685 264.979 905.952 265.139C906.219 265.299 906.517 265.379 906.848 265.379ZM910.896 267.427H908.496V265.331L908.864 263.443L908.448 261.555V255.811H910.896V267.427ZM916.46 267.603C915.617 267.603 914.865 267.432 914.204 267.091C913.553 266.739 913.041 266.254 912.668 265.635C912.294 265.016 912.108 264.318 912.108 263.539C912.108 262.76 912.289 262.067 912.652 261.459C913.025 260.84 913.526 260.355 914.156 260.003C914.785 259.651 915.494 259.475 916.284 259.475C917.052 259.475 917.729 259.64 918.316 259.971C918.902 260.302 919.361 260.76 919.692 261.347C920.033 261.934 920.204 262.606 920.204 263.363C920.204 263.502 920.193 263.651 920.172 263.811C920.161 263.96 920.134 264.136 920.092 264.339L913.388 264.355V262.675L919.052 262.659L917.996 263.363C917.985 262.915 917.916 262.547 917.788 262.259C917.66 261.96 917.468 261.736 917.212 261.587C916.966 261.427 916.662 261.347 916.3 261.347C915.916 261.347 915.58 261.438 915.292 261.619C915.014 261.79 914.796 262.035 914.636 262.355C914.486 262.675 914.412 263.064 914.412 263.523C914.412 263.982 914.492 264.376 914.652 264.707C914.822 265.027 915.057 265.278 915.356 265.459C915.665 265.63 916.028 265.715 916.444 265.715C916.828 265.715 917.174 265.651 917.484 265.523C917.793 265.384 918.065 265.182 918.3 264.915L919.644 266.259C919.26 266.707 918.796 267.043 918.252 267.267C917.708 267.491 917.11 267.603 916.46 267.603ZM926.576 263.315V261.363H929.008C929.318 261.363 929.6 261.299 929.856 261.171C930.112 261.043 930.315 260.856 930.464 260.611C930.614 260.366 930.688 260.067 930.688 259.715C930.688 259.374 930.614 259.08 930.464 258.835C930.315 258.59 930.112 258.403 929.856 258.275C929.6 258.147 929.318 258.083 929.008 258.083H926.576V256.131H929.376C930.091 256.131 930.736 256.275 931.312 256.563C931.888 256.851 932.342 257.267 932.672 257.811C933.014 258.344 933.184 258.979 933.184 259.715C933.184 260.451 933.014 261.091 932.672 261.635C932.342 262.168 931.888 262.584 931.312 262.883C930.736 263.171 930.091 263.315 929.376 263.315H926.576ZM924.656 267.427V256.131H927.168V267.427H924.656ZM937.399 267.587C936.684 267.587 936.044 267.411 935.479 267.059C934.924 266.707 934.482 266.227 934.151 265.619C933.831 265.011 933.671 264.318 933.671 263.539C933.671 262.76 933.831 262.067 934.151 261.459C934.482 260.851 934.924 260.371 935.479 260.019C936.044 259.667 936.684 259.491 937.399 259.491C937.922 259.491 938.391 259.592 938.807 259.795C939.234 259.998 939.58 260.28 939.847 260.643C940.114 260.995 940.263 261.4 940.295 261.859V265.219C940.263 265.678 940.114 266.088 939.847 266.451C939.591 266.803 939.25 267.08 938.823 267.283C938.396 267.486 937.922 267.587 937.399 267.587ZM937.895 265.379C938.418 265.379 938.839 265.208 939.159 264.867C939.479 264.515 939.639 264.072 939.639 263.539C939.639 263.176 939.564 262.856 939.415 262.579C939.276 262.302 939.074 262.088 938.807 261.939C938.551 261.779 938.252 261.699 937.911 261.699C937.57 261.699 937.266 261.779 936.999 261.939C936.743 262.088 936.535 262.302 936.375 262.579C936.226 262.856 936.151 263.176 936.151 263.539C936.151 263.891 936.226 264.206 936.375 264.483C936.524 264.76 936.732 264.979 936.999 265.139C937.266 265.299 937.564 265.379 937.895 265.379ZM939.543 267.427V265.331L939.911 263.443L939.543 261.555V259.651H941.943V267.427H939.543ZM946.979 267.587C946.243 267.587 945.587 267.411 945.011 267.059C944.445 266.707 943.997 266.227 943.667 265.619C943.347 265.011 943.187 264.318 943.187 263.539C943.187 262.76 943.347 262.067 943.667 261.459C943.997 260.851 944.445 260.371 945.011 260.019C945.587 259.667 946.243 259.491 946.979 259.491C947.512 259.491 947.992 259.592 948.419 259.795C948.856 259.998 949.213 260.28 949.491 260.643C949.779 260.995 949.939 261.4 949.971 261.859V265.139C949.939 265.598 949.784 266.014 949.507 266.387C949.229 266.75 948.872 267.043 948.435 267.267C947.997 267.48 947.512 267.587 946.979 267.587ZM947.411 265.379C947.763 265.379 948.067 265.304 948.323 265.155C948.579 264.995 948.781 264.776 948.931 264.499C949.08 264.222 949.155 263.902 949.155 263.539C949.155 263.176 949.08 262.862 948.931 262.595C948.792 262.318 948.589 262.099 948.323 261.939C948.067 261.779 947.768 261.699 947.427 261.699C947.085 261.699 946.781 261.779 946.515 261.939C946.259 262.099 946.051 262.318 945.891 262.595C945.741 262.872 945.667 263.187 945.667 263.539C945.667 263.891 945.741 264.206 945.891 264.483C946.04 264.76 946.248 264.979 946.515 265.139C946.781 265.299 947.08 265.379 947.411 265.379ZM951.459 267.427H949.059V265.331L949.427 263.443L949.011 261.555V255.811H951.459V267.427ZM954.718 267.603C954.302 267.603 953.956 267.459 953.678 267.171C953.401 266.883 953.262 266.536 953.262 266.131C953.262 265.704 953.401 265.352 953.678 265.075C953.956 264.787 954.302 264.643 954.718 264.643C955.145 264.643 955.492 264.787 955.758 265.075C956.036 265.352 956.174 265.704 956.174 266.131C956.174 266.536 956.036 266.883 955.758 267.171C955.492 267.459 955.145 267.603 954.718 267.603ZM964.866 267.603C964.023 267.603 963.271 267.432 962.61 267.091C961.959 266.739 961.447 266.254 961.074 265.635C960.701 265.016 960.514 264.318 960.514 263.539C960.514 262.76 960.695 262.067 961.058 261.459C961.431 260.84 961.933 260.355 962.562 260.003C963.191 259.651 963.901 259.475 964.69 259.475C965.458 259.475 966.135 259.64 966.722 259.971C967.309 260.302 967.767 260.76 968.098 261.347C968.439 261.934 968.61 262.606 968.61 263.363C968.61 263.502 968.599 263.651 968.578 263.811C968.567 263.96 968.541 264.136 968.498 264.339L961.794 264.355V262.675L967.458 262.659L966.402 263.363C966.391 262.915 966.322 262.547 966.194 262.259C966.066 261.96 965.874 261.736 965.618 261.587C965.373 261.427 965.069 261.347 964.706 261.347C964.322 261.347 963.986 261.438 963.698 261.619C963.421 261.79 963.202 262.035 963.042 262.355C962.893 262.675 962.818 263.064 962.818 263.523C962.818 263.982 962.898 264.376 963.058 264.707C963.229 265.027 963.463 265.278 963.762 265.459C964.071 265.63 964.434 265.715 964.85 265.715C965.234 265.715 965.581 265.651 965.89 265.523C966.199 265.384 966.471 265.182 966.706 264.915L968.05 266.259C967.666 266.707 967.202 267.043 966.658 267.267C966.114 267.491 965.517 267.603 964.866 267.603ZM974.983 262.771V260.915H977.367C977.868 260.915 978.252 260.787 978.519 260.531C978.796 260.275 978.935 259.928 978.935 259.491C978.935 259.086 978.801 258.75 978.535 258.483C978.268 258.216 977.884 258.083 977.383 258.083H974.983V256.131H977.671C978.417 256.131 979.073 256.275 979.639 256.563C980.204 256.84 980.647 257.23 980.967 257.731C981.287 258.232 981.447 258.808 981.447 259.459C981.447 260.12 981.287 260.702 980.967 261.203C980.647 261.694 980.199 262.078 979.623 262.355C979.047 262.632 978.369 262.771 977.591 262.771H974.983ZM973.063 267.427V256.131H975.575V267.427H973.063ZM979.207 267.427L975.687 262.563L977.991 261.939L982.183 267.427H979.207ZM986.694 267.603C985.851 267.603 985.099 267.432 984.438 267.091C983.787 266.739 983.275 266.254 982.902 265.635C982.529 265.016 982.342 264.318 982.342 263.539C982.342 262.76 982.523 262.067 982.886 261.459C983.259 260.84 983.761 260.355 984.39 260.003C985.019 259.651 985.729 259.475 986.518 259.475C987.286 259.475 987.963 259.64 988.55 259.971C989.137 260.302 989.595 260.76 989.926 261.347C990.267 261.934 990.438 262.606 990.438 263.363C990.438 263.502 990.427 263.651 990.406 263.811C990.395 263.96 990.369 264.136 990.326 264.339L983.622 264.355V262.675L989.286 262.659L988.23 263.363C988.219 262.915 988.15 262.547 988.022 262.259C987.894 261.96 987.702 261.736 987.446 261.587C987.201 261.427 986.897 261.347 986.534 261.347C986.15 261.347 985.814 261.438 985.526 261.619C985.249 261.79 985.03 262.035 984.87 262.355C984.721 262.675 984.646 263.064 984.646 263.523C984.646 263.982 984.726 264.376 984.886 264.707C985.057 265.027 985.291 265.278 985.59 265.459C985.899 265.63 986.262 265.715 986.678 265.715C987.062 265.715 987.409 265.651 987.718 265.523C988.027 265.384 988.299 265.182 988.534 264.915L989.878 266.259C989.494 266.707 989.03 267.043 988.486 267.267C987.942 267.491 987.345 267.603 986.694 267.603ZM994.932 267.587C994.196 267.587 993.54 267.411 992.964 267.059C992.398 266.707 991.95 266.227 991.62 265.619C991.3 265.011 991.14 264.318 991.14 263.539C991.14 262.76 991.3 262.067 991.62 261.459C991.95 260.851 992.398 260.371 992.964 260.019C993.54 259.667 994.196 259.491 994.932 259.491C995.465 259.491 995.945 259.592 996.372 259.795C996.809 259.998 997.166 260.28 997.444 260.643C997.732 260.995 997.892 261.4 997.924 261.859V265.139C997.892 265.598 997.737 266.014 997.46 266.387C997.182 266.75 996.825 267.043 996.388 267.267C995.95 267.48 995.465 267.587 994.932 267.587ZM995.364 265.379C995.716 265.379 996.02 265.304 996.276 265.155C996.532 264.995 996.734 264.776 996.884 264.499C997.033 264.222 997.108 263.902 997.108 263.539C997.108 263.176 997.033 262.862 996.884 262.595C996.745 262.318 996.542 262.099 996.276 261.939C996.02 261.779 995.721 261.699 995.38 261.699C995.038 261.699 994.734 261.779 994.468 261.939C994.212 262.099 994.004 262.318 993.844 262.595C993.694 262.872 993.62 263.187 993.62 263.539C993.62 263.891 993.694 264.206 993.844 264.483C993.993 264.76 994.201 264.979 994.468 265.139C994.734 265.299 995.033 265.379 995.364 265.379ZM999.412 267.427H997.012V265.331L997.38 263.443L996.964 261.555V255.811H999.412V267.427ZM1004.98 267.603C1004.13 267.603 1003.38 267.432 1002.72 267.091C1002.07 266.739 1001.56 266.254 1001.18 265.635C1000.81 265.016 1000.62 264.318 1000.62 263.539C1000.62 262.76 1000.8 262.067 1001.17 261.459C1001.54 260.84 1002.04 260.355 1002.67 260.003C1003.3 259.651 1004.01 259.475 1004.8 259.475C1005.57 259.475 1006.24 259.64 1006.83 259.971C1007.42 260.302 1007.88 260.76 1008.21 261.347C1008.55 261.934 1008.72 262.606 1008.72 263.363C1008.72 263.502 1008.71 263.651 1008.69 263.811C1008.68 263.96 1008.65 264.136 1008.61 264.339L1001.9 264.355V262.675L1007.57 262.659L1006.51 263.363C1006.5 262.915 1006.43 262.547 1006.3 262.259C1006.18 261.96 1005.98 261.736 1005.73 261.587C1005.48 261.427 1005.18 261.347 1004.82 261.347C1004.43 261.347 1004.1 261.438 1003.81 261.619C1003.53 261.79 1003.31 262.035 1003.15 262.355C1003 262.675 1002.93 263.064 1002.93 263.523C1002.93 263.982 1003.01 264.376 1003.17 264.707C1003.34 265.027 1003.57 265.278 1003.87 265.459C1004.18 265.63 1004.54 265.715 1004.96 265.715C1005.34 265.715 1005.69 265.651 1006 265.523C1006.31 265.384 1006.58 265.182 1006.82 264.915L1008.16 266.259C1007.78 266.707 1007.31 267.043 1006.77 267.267C1006.22 267.491 1005.63 267.603 1004.98 267.603ZM1012.73 267.619C1012.27 267.619 1011.82 267.56 1011.37 267.443C1010.94 267.326 1010.53 267.16 1010.14 266.947C1009.77 266.723 1009.45 266.467 1009.18 266.179L1010.57 264.771C1010.83 265.048 1011.13 265.267 1011.49 265.427C1011.84 265.576 1012.22 265.651 1012.64 265.651C1012.93 265.651 1013.14 265.608 1013.29 265.523C1013.45 265.438 1013.53 265.32 1013.53 265.171C1013.53 264.979 1013.44 264.835 1013.25 264.739C1013.06 264.632 1012.83 264.542 1012.54 264.467C1012.25 264.382 1011.95 264.291 1011.63 264.195C1011.31 264.099 1011.01 263.966 1010.72 263.795C1010.43 263.624 1010.19 263.39 1010.01 263.091C1009.83 262.782 1009.74 262.392 1009.74 261.923C1009.74 261.422 1009.87 260.99 1010.13 260.627C1010.38 260.254 1010.74 259.96 1011.21 259.747C1011.68 259.534 1012.23 259.427 1012.86 259.427C1013.52 259.427 1014.13 259.544 1014.69 259.779C1015.25 260.003 1015.71 260.339 1016.06 260.787L1014.67 262.195C1014.42 261.907 1014.15 261.704 1013.84 261.587C1013.54 261.47 1013.25 261.411 1012.96 261.411C1012.68 261.411 1012.47 261.454 1012.33 261.539C1012.19 261.614 1012.13 261.726 1012.13 261.875C1012.13 262.035 1012.22 262.163 1012.4 262.259C1012.58 262.355 1012.81 262.44 1013.1 262.515C1013.39 262.59 1013.69 262.68 1014.01 262.787C1014.33 262.894 1014.64 263.038 1014.93 263.219C1015.21 263.4 1015.45 263.646 1015.63 263.955C1015.81 264.254 1015.9 264.648 1015.9 265.139C1015.9 265.896 1015.61 266.499 1015.04 266.947C1014.47 267.395 1013.7 267.619 1012.73 267.619ZM920.445 287.427V276.131H922.205L922.957 278.387V287.427H920.445ZM928.237 287.427L921.581 278.899L922.205 276.131L928.861 284.659L928.237 287.427ZM928.237 287.427L927.565 285.171V276.131H930.077V287.427H928.237ZM935.874 287.603C935.031 287.603 934.279 287.432 933.618 287.091C932.967 286.739 932.455 286.254 932.082 285.635C931.708 285.016 931.522 284.318 931.522 283.539C931.522 282.76 931.703 282.067 932.066 281.459C932.439 280.84 932.94 280.355 933.57 280.003C934.199 279.651 934.908 279.475 935.698 279.475C936.466 279.475 937.143 279.64 937.73 279.971C938.316 280.302 938.775 280.76 939.106 281.347C939.447 281.934 939.618 282.606 939.618 283.363C939.618 283.502 939.607 283.651 939.586 283.811C939.575 283.96 939.548 284.136 939.506 284.339L932.802 284.355V282.675L938.466 282.659L937.41 283.363C937.399 282.915 937.33 282.547 937.202 282.259C937.074 281.96 936.882 281.736 936.626 281.587C936.38 281.427 936.076 281.347 935.714 281.347C935.33 281.347 934.994 281.438 934.706 281.619C934.428 281.79 934.21 282.035 934.05 282.355C933.9 282.675 933.826 283.064 933.826 283.523C933.826 283.982 933.906 284.376 934.066 284.707C934.236 285.027 934.471 285.278 934.77 285.459C935.079 285.63 935.442 285.715 935.858 285.715C936.242 285.715 936.588 285.651 936.898 285.523C937.207 285.384 937.479 285.182 937.714 284.915L939.058 286.259C938.674 286.707 938.21 287.043 937.666 287.267C937.122 287.491 936.524 287.603 935.874 287.603ZM944.255 287.603C943.541 287.603 942.906 287.459 942.351 287.171C941.807 286.872 941.381 286.467 941.071 285.955C940.762 285.432 940.607 284.835 940.607 284.163V279.651H943.055V284.131C943.055 284.398 943.098 284.627 943.183 284.819C943.279 285.011 943.418 285.16 943.599 285.267C943.781 285.374 943.999 285.427 944.255 285.427C944.618 285.427 944.906 285.315 945.119 285.091C945.333 284.856 945.439 284.536 945.439 284.131V279.651H947.887V284.147C947.887 284.83 947.733 285.432 947.423 285.955C947.114 286.467 946.687 286.872 946.143 287.171C945.599 287.459 944.97 287.603 944.255 287.603ZM949.424 287.427V279.651H951.872V287.427H949.424ZM951.872 283.155L950.848 282.355C951.051 281.448 951.392 280.744 951.872 280.243C952.352 279.742 953.019 279.491 953.872 279.491C954.246 279.491 954.571 279.55 954.848 279.667C955.136 279.774 955.387 279.944 955.6 280.179L954.144 282.019C954.038 281.902 953.904 281.811 953.744 281.747C953.584 281.683 953.403 281.651 953.2 281.651C952.795 281.651 952.47 281.779 952.224 282.035C951.99 282.28 951.872 282.654 951.872 283.155ZM959.282 287.587C958.567 287.587 957.927 287.411 957.362 287.059C956.807 286.707 956.364 286.227 956.034 285.619C955.714 285.011 955.554 284.318 955.554 283.539C955.554 282.76 955.714 282.067 956.034 281.459C956.364 280.851 956.807 280.371 957.362 280.019C957.927 279.667 958.567 279.491 959.282 279.491C959.804 279.491 960.274 279.592 960.69 279.795C961.116 279.998 961.463 280.28 961.73 280.643C961.996 280.995 962.146 281.4 962.178 281.859V285.219C962.146 285.678 961.996 286.088 961.73 286.451C961.474 286.803 961.132 287.08 960.706 287.283C960.279 287.486 959.804 287.587 959.282 287.587ZM959.778 285.379C960.3 285.379 960.722 285.208 961.042 284.867C961.362 284.515 961.522 284.072 961.522 283.539C961.522 283.176 961.447 282.856 961.298 282.579C961.159 282.302 960.956 282.088 960.69 281.939C960.434 281.779 960.135 281.699 959.794 281.699C959.452 281.699 959.148 281.779 958.882 281.939C958.626 282.088 958.418 282.302 958.258 282.579C958.108 282.856 958.034 283.176 958.034 283.539C958.034 283.891 958.108 284.206 958.258 284.483C958.407 284.76 958.615 284.979 958.882 285.139C959.148 285.299 959.447 285.379 959.778 285.379ZM961.426 287.427V285.331L961.794 283.443L961.426 281.555V279.651H963.826V287.427H961.426Z" fill="#2C274B"/>
<g filter="url(#filter7_d_3573_315)">
<path d="M530.307 553.364C530.307 587.459 501.506 615.098 465.977 615.098C430.448 615.098 401.646 587.459 401.646 553.364C401.646 519.269 430.448 491.629 465.977 491.629C501.506 491.629 530.307 519.269 530.307 553.364Z" fill="#6747C7" fill-opacity="0.7" shape-rendering="crispEdges"/>
</g>
<path d="M456.708 558.139V547.003H459.22V558.139H456.708ZM453.172 549.035V546.843H462.756V549.035H453.172ZM468.925 558.315C468.082 558.315 467.298 558.171 466.573 557.883C465.858 557.585 465.229 557.169 464.685 556.635C464.151 556.102 463.735 555.483 463.437 554.779C463.138 554.065 462.989 553.297 462.989 552.475C462.989 551.654 463.138 550.891 463.437 550.187C463.735 549.473 464.151 548.854 464.685 548.331C465.218 547.809 465.842 547.403 466.557 547.115C467.282 546.817 468.066 546.667 468.909 546.667C469.805 546.667 470.599 546.811 471.293 547.099C471.997 547.387 472.61 547.782 473.133 548.283L471.453 549.979C471.154 549.659 470.791 549.409 470.365 549.227C469.949 549.046 469.463 548.955 468.909 548.955C468.418 548.955 467.965 549.041 467.549 549.211C467.143 549.371 466.791 549.606 466.493 549.915C466.205 550.225 465.975 550.598 465.805 551.035C465.645 551.473 465.565 551.953 465.565 552.475C465.565 553.009 465.645 553.494 465.805 553.931C465.975 554.369 466.205 554.742 466.493 555.051C466.791 555.361 467.143 555.601 467.549 555.771C467.965 555.942 468.418 556.027 468.909 556.027C469.485 556.027 469.986 555.937 470.413 555.755C470.839 555.574 471.207 555.323 471.517 555.003L473.213 556.699C472.669 557.201 472.045 557.595 471.341 557.883C470.647 558.171 469.842 558.315 468.925 558.315Z" fill="#2C274B"/>
<path d="M555.065 175.563C554.223 175.563 553.439 175.419 552.713 175.131C551.999 174.832 551.369 174.416 550.825 173.883C550.292 173.349 549.876 172.731 549.577 172.027C549.279 171.312 549.129 170.544 549.129 169.723C549.129 168.901 549.279 168.139 549.577 167.435C549.876 166.72 550.292 166.101 550.825 165.579C551.359 165.056 551.983 164.651 552.697 164.363C553.423 164.064 554.207 163.915 555.049 163.915C555.945 163.915 556.74 164.059 557.433 164.347C558.137 164.635 558.751 165.029 559.273 165.531L557.593 167.227C557.295 166.907 556.932 166.656 556.505 166.475C556.089 166.293 555.604 166.203 555.049 166.203C554.559 166.203 554.105 166.288 553.689 166.459C553.284 166.619 552.932 166.853 552.633 167.163C552.345 167.472 552.116 167.845 551.945 168.283C551.785 168.72 551.705 169.2 551.705 169.723C551.705 170.256 551.785 170.741 551.945 171.179C552.116 171.616 552.345 171.989 552.633 172.299C552.932 172.608 553.284 172.848 553.689 173.019C554.105 173.189 554.559 173.275 555.049 173.275C555.625 173.275 556.127 173.184 556.553 173.003C556.98 172.821 557.348 172.571 557.657 172.251L559.353 173.947C558.809 174.448 558.185 174.843 557.481 175.131C556.788 175.419 555.983 175.563 555.065 175.563ZM559.607 175.387L564.087 164.091H566.359L570.791 175.387H568.135L564.743 166.011H565.655L562.215 175.387H559.607ZM562.151 173.339V171.291H568.311V173.339H562.151ZM571.987 175.387V164.091H574.499V175.387H571.987ZM573.923 175.387V173.179H579.507V175.387H573.923ZM585.69 175.563C584.848 175.563 584.064 175.419 583.338 175.131C582.624 174.832 581.994 174.416 581.45 173.883C580.917 173.349 580.501 172.731 580.202 172.027C579.904 171.312 579.754 170.544 579.754 169.723C579.754 168.901 579.904 168.139 580.202 167.435C580.501 166.72 580.917 166.101 581.45 165.579C581.984 165.056 582.608 164.651 583.322 164.363C584.048 164.064 584.832 163.915 585.674 163.915C586.57 163.915 587.365 164.059 588.058 164.347C588.762 164.635 589.376 165.029 589.898 165.531L588.218 167.227C587.92 166.907 587.557 166.656 587.13 166.475C586.714 166.293 586.229 166.203 585.674 166.203C585.184 166.203 584.73 166.288 584.314 166.459C583.909 166.619 583.557 166.853 583.258 167.163C582.97 167.472 582.741 167.845 582.57 168.283C582.41 168.72 582.33 169.2 582.33 169.723C582.33 170.256 582.41 170.741 582.57 171.179C582.741 171.616 582.97 171.989 583.258 172.299C583.557 172.608 583.909 172.848 584.314 173.019C584.73 173.189 585.184 173.275 585.674 173.275C586.25 173.275 586.752 173.184 587.178 173.003C587.605 172.821 587.973 172.571 588.282 172.251L589.978 173.947C589.434 174.448 588.81 174.843 588.106 175.131C587.413 175.419 586.608 175.563 585.69 175.563ZM592.77 175.387V164.091H595.266V175.387H592.77ZM590.594 166.219V164.091H595.106V166.219H590.594Z" fill="#2C274B"/>
<path d="M500.99 64.441C500.147 64.441 499.363 64.297 498.638 64.009C497.923 63.7103 497.294 63.2943 496.75 62.761C496.217 62.2277 495.801 61.609 495.502 60.905C495.203 60.1903 495.054 59.4223 495.054 58.601C495.054 57.7797 495.203 57.017 495.502 56.313C495.801 55.5983 496.217 54.9797 496.75 54.457C497.283 53.9343 497.907 53.529 498.622 53.241C499.347 52.9423 500.131 52.793 500.974 52.793C501.87 52.793 502.665 52.937 503.358 53.225C504.062 53.513 504.675 53.9077 505.198 54.409L503.518 56.105C503.219 55.785 502.857 55.5343 502.43 55.353C502.014 55.1717 501.529 55.081 500.974 55.081C500.483 55.081 500.03 55.1663 499.614 55.337C499.209 55.497 498.857 55.7317 498.558 56.041C498.27 56.3503 498.041 56.7237 497.87 57.161C497.71 57.5983 497.63 58.0783 497.63 58.601C497.63 59.1343 497.71 59.6197 497.87 60.057C498.041 60.4943 498.27 60.8677 498.558 61.177C498.857 61.4863 499.209 61.7263 499.614 61.897C500.03 62.0677 500.483 62.153 500.974 62.153C501.55 62.153 502.051 62.0623 502.478 61.881C502.905 61.6997 503.273 61.449 503.582 61.129L505.278 62.825C504.734 63.3263 504.11 63.721 503.406 64.009C502.713 64.297 501.907 64.441 500.99 64.441ZM505.532 64.265L510.012 52.969H512.284L516.716 64.265H514.06L510.668 54.889H511.58L508.14 64.265H505.532ZM508.076 62.217V60.169H514.236V62.217H508.076ZM517.911 64.265V52.969H520.423V64.265H517.911ZM519.847 64.265V62.057H525.431V64.265H519.847ZM531.615 64.441C530.772 64.441 529.988 64.297 529.263 64.009C528.548 63.7103 527.919 63.2943 527.375 62.761C526.842 62.2277 526.426 61.609 526.127 60.905C525.828 60.1903 525.679 59.4223 525.679 58.601C525.679 57.7797 525.828 57.017 526.127 56.313C526.426 55.5983 526.842 54.9797 527.375 54.457C527.908 53.9343 528.532 53.529 529.247 53.241C529.972 52.9423 530.756 52.793 531.599 52.793C532.495 52.793 533.29 52.937 533.983 53.225C534.687 53.513 535.3 53.9077 535.823 54.409L534.143 56.105C533.844 55.785 533.482 55.5343 533.055 55.353C532.639 55.1717 532.154 55.081 531.599 55.081C531.108 55.081 530.655 55.1663 530.239 55.337C529.834 55.497 529.482 55.7317 529.183 56.041C528.895 56.3503 528.666 56.7237 528.495 57.161C528.335 57.5983 528.255 58.0783 528.255 58.601C528.255 59.1343 528.335 59.6197 528.495 60.057C528.666 60.4943 528.895 60.8677 529.183 61.177C529.482 61.4863 529.834 61.7263 530.239 61.897C530.655 62.0677 531.108 62.153 531.599 62.153C532.175 62.153 532.676 62.0623 533.103 61.881C533.53 61.6997 533.898 61.449 534.207 61.129L535.903 62.825C535.359 63.3263 534.735 63.721 534.031 64.009C533.338 64.297 532.532 64.441 531.615 64.441ZM536.582 62.857L540.918 58.377C541.185 58.1103 541.398 57.865 541.558 57.641C541.718 57.417 541.836 57.209 541.91 57.017C541.985 56.8143 542.022 56.6117 542.022 56.409C542.022 55.9717 541.878 55.6303 541.59 55.385C541.313 55.129 540.945 55.001 540.486 55.001C540.038 55.001 539.633 55.1237 539.27 55.369C538.918 55.6037 538.577 55.993 538.246 56.537L536.566 55.081C537.014 54.3237 537.585 53.753 538.278 53.369C538.972 52.985 539.766 52.793 540.662 52.793C541.441 52.793 542.113 52.937 542.678 53.225C543.254 53.513 543.697 53.9237 544.006 54.457C544.326 54.9903 544.486 55.6143 544.486 56.329C544.486 56.777 544.428 57.193 544.31 57.577C544.193 57.9503 544.001 58.3237 543.734 58.697C543.478 59.0597 543.132 59.4597 542.694 59.897L539.686 62.889L536.582 62.857ZM536.582 64.265V62.857L538.71 62.121H544.71V64.265H536.582Z" fill="#2C274B"/>
<g filter="url(#filter8_d_3573_315)">
<path d="M774.202 345.712C774.202 364.309 758.925 379.385 740.079 379.385C721.233 379.385 705.956 364.309 705.956 345.712C705.956 327.115 721.233 312.039 740.079 312.039C758.925 312.039 774.202 327.115 774.202 345.712Z" fill="#6747C7" fill-opacity="0.7" shape-rendering="crispEdges"/>
</g>
<path d="M713.086 350.488V339.192H715.598V350.488H713.086ZM715.022 350.488V348.28H720.606V350.488H715.022ZM722.055 350.488V339.192H724.567V350.488H722.055ZM726.742 350.488V339.192H728.502L729.254 341.448V350.488H726.742ZM734.534 350.488L727.878 341.96L728.502 339.192L735.158 347.72L734.534 350.488ZM734.534 350.488L733.862 348.232V339.192H736.374V350.488H734.534ZM738.555 350.488V339.192H741.067V350.488H738.555ZM740.475 350.488V348.312H746.667V350.488H740.475ZM740.475 345.768V343.672H746.107V345.768H740.475ZM740.475 341.352V339.192H746.587V341.352H740.475ZM747.551 350.488L752.031 339.192H754.303L758.735 350.488H756.079L752.687 341.112H753.599L750.159 350.488H747.551ZM750.095 348.44V346.392H756.255V348.44H750.095ZM761.85 345.832V343.976H764.234C764.735 343.976 765.119 343.848 765.386 343.592C765.663 343.336 765.802 342.989 765.802 342.552C765.802 342.146 765.669 341.81 765.402 341.544C765.135 341.277 764.751 341.144 764.25 341.144H761.85V339.192H764.538C765.285 339.192 765.941 339.336 766.506 339.624C767.071 339.901 767.514 340.29 767.834 340.792C768.154 341.293 768.314 341.869 768.314 342.52C768.314 343.181 768.154 343.762 767.834 344.264C767.514 344.754 767.066 345.138 766.49 345.416C765.914 345.693 765.237 345.832 764.458 345.832H761.85ZM759.93 350.488V339.192H762.442V350.488H759.93ZM766.074 350.488L762.554 345.624L764.858 345L769.05 350.488H766.074Z" fill="#2C274B"/>
<g filter="url(#filter9_d_3573_315)">
<path d="M652.254 408.569C652.254 427.166 636.977 442.242 618.131 442.242C599.285 442.242 584.008 427.166 584.008 408.569C584.008 389.971 599.285 374.895 618.131 374.895C636.977 374.895 652.254 389.971 652.254 408.569Z" fill="#6747C7" fill-opacity="0.7" shape-rendering="crispEdges"/>
</g>
<path d="M602.802 413.344V402.048H605.314V413.344H602.802ZM604.738 413.344V411.136H610.322V413.344H604.738ZM616.538 413.536C615.684 413.536 614.895 413.387 614.17 413.088C613.455 412.79 612.826 412.374 612.282 411.84C611.738 411.307 611.316 410.688 611.018 409.984C610.719 409.27 610.57 408.502 610.57 407.68C610.57 406.848 610.719 406.08 611.018 405.376C611.316 404.672 611.732 404.059 612.266 403.536C612.799 403.003 613.423 402.592 614.138 402.304C614.863 402.006 615.652 401.856 616.506 401.856C617.348 401.856 618.127 402.006 618.842 402.304C619.567 402.592 620.196 403.003 620.73 403.536C621.274 404.059 621.695 404.678 621.994 405.392C622.292 406.096 622.442 406.864 622.442 407.696C622.442 408.518 622.292 409.286 621.994 410C621.695 410.704 621.279 411.323 620.746 411.856C620.212 412.379 619.583 412.79 618.858 413.088C618.143 413.387 617.37 413.536 616.538 413.536ZM616.506 411.248C617.178 411.248 617.764 411.099 618.266 410.8C618.778 410.502 619.172 410.086 619.45 409.552C619.727 409.008 619.866 408.384 619.866 407.68C619.866 407.147 619.786 406.667 619.626 406.24C619.466 405.803 619.236 405.43 618.938 405.12C618.639 404.8 618.282 404.56 617.866 404.4C617.46 404.23 617.007 404.144 616.506 404.144C615.834 404.144 615.242 404.294 614.73 404.592C614.228 404.88 613.839 405.291 613.562 405.824C613.284 406.347 613.146 406.966 613.146 407.68C613.146 408.214 613.226 408.699 613.386 409.136C613.546 409.574 613.77 409.952 614.058 410.272C614.356 410.582 614.714 410.822 615.13 410.992C615.546 411.163 616.004 411.248 616.506 411.248ZM629.521 413.52C628.699 413.52 627.926 413.371 627.201 413.072C626.486 412.774 625.862 412.363 625.329 411.84C624.795 411.307 624.374 410.688 624.065 409.984C623.766 409.27 623.617 408.502 623.617 407.68C623.617 406.859 623.771 406.096 624.081 405.392C624.39 404.688 624.817 404.075 625.361 403.552C625.915 403.019 626.561 402.608 627.297 402.32C628.033 402.022 628.822 401.872 629.665 401.872C630.635 401.872 631.515 402.048 632.305 402.4C633.105 402.752 633.766 403.238 634.289 403.856L632.577 405.568C632.214 405.099 631.787 404.747 631.297 404.512C630.806 404.278 630.251 404.16 629.633 404.16C628.971 404.16 628.379 404.31 627.857 404.608C627.334 404.896 626.923 405.307 626.625 405.84C626.337 406.363 626.193 406.976 626.193 407.68C626.193 408.384 626.337 409.003 626.625 409.536C626.913 410.07 627.307 410.486 627.809 410.784C628.31 411.083 628.886 411.232 629.537 411.232C630.198 411.232 630.758 411.11 631.217 410.864C631.686 410.608 632.043 410.246 632.289 409.776C632.545 409.296 632.673 408.715 632.673 408.032L634.337 409.152L629.297 409.072V406.944H635.233V407.312C635.233 408.667 634.987 409.808 634.497 410.736C634.017 411.654 633.345 412.347 632.481 412.816C631.627 413.286 630.641 413.52 629.521 413.52Z" fill="#2C274B"/>
<g filter="url(#filter10_d_3573_315)">
<path d="M745.114 187.448C745.114 206.045 729.837 221.121 710.991 221.121C692.146 221.121 676.868 206.045 676.868 187.448C676.868 168.85 692.146 153.774 710.991 153.774C729.837 153.774 745.114 168.85 745.114 187.448Z" fill="#6747C7" fill-opacity="0.7" shape-rendering="crispEdges"/>
</g>
<path d="M692.942 188.111V186.159H695.374C695.683 186.159 695.966 186.095 696.222 185.967C696.478 185.839 696.68 185.653 696.83 185.407C696.979 185.162 697.054 184.863 697.054 184.511C697.054 184.17 696.979 183.877 696.83 183.631C696.68 183.386 696.478 183.199 696.222 183.071C695.966 182.943 695.683 182.879 695.374 182.879H692.942V180.927H695.742C696.456 180.927 697.102 181.071 697.678 181.359C698.254 181.647 698.707 182.063 699.038 182.607C699.379 183.141 699.55 183.775 699.55 184.511C699.55 185.247 699.379 185.887 699.038 186.431C698.707 186.965 698.254 187.381 697.678 187.679C697.102 187.967 696.456 188.111 695.742 188.111H692.942ZM691.022 192.223V180.927H693.534V192.223H691.022ZM702.879 187.567V185.711H705.263C705.765 185.711 706.149 185.583 706.415 185.327C706.693 185.071 706.831 184.725 706.831 184.287C706.831 183.882 706.698 183.546 706.431 183.279C706.165 183.013 705.781 182.879 705.279 182.879H702.879V180.927H705.567C706.314 180.927 706.97 181.071 707.535 181.359C708.101 181.637 708.543 182.026 708.863 182.527C709.183 183.029 709.343 183.605 709.343 184.255C709.343 184.917 709.183 185.498 708.863 185.999C708.543 186.49 708.095 186.874 707.519 187.151C706.943 187.429 706.266 187.567 705.487 187.567H702.879ZM700.959 192.223V180.927H703.471V192.223H700.959ZM707.103 192.223L703.583 187.359L705.887 186.735L710.079 192.223H707.103ZM716.507 192.415C715.654 192.415 714.865 192.266 714.139 191.967C713.425 191.669 712.795 191.253 712.251 190.719C711.707 190.186 711.286 189.567 710.987 188.863C710.689 188.149 710.539 187.381 710.539 186.559C710.539 185.727 710.689 184.959 710.987 184.255C711.286 183.551 711.702 182.938 712.235 182.415C712.769 181.882 713.393 181.471 714.107 181.183C714.833 180.885 715.622 180.735 716.475 180.735C717.318 180.735 718.097 180.885 718.811 181.183C719.537 181.471 720.166 181.882 720.699 182.415C721.243 182.938 721.665 183.557 721.963 184.271C722.262 184.975 722.411 185.743 722.411 186.575C722.411 187.397 722.262 188.165 721.963 188.879C721.665 189.583 721.249 190.202 720.715 190.735C720.182 191.258 719.553 191.669 718.827 191.967C718.113 192.266 717.339 192.415 716.507 192.415ZM716.475 190.127C717.147 190.127 717.734 189.978 718.235 189.679C718.747 189.381 719.142 188.965 719.419 188.431C719.697 187.887 719.835 187.263 719.835 186.559C719.835 186.026 719.755 185.546 719.595 185.119C719.435 184.682 719.206 184.309 718.907 183.999C718.609 183.679 718.251 183.439 717.835 183.279C717.43 183.109 716.977 183.023 716.475 183.023C715.803 183.023 715.211 183.173 714.699 183.471C714.198 183.759 713.809 184.17 713.531 184.703C713.254 185.226 713.115 185.845 713.115 186.559C713.115 187.093 713.195 187.578 713.355 188.015C713.515 188.453 713.739 188.831 714.027 189.151C714.326 189.461 714.683 189.701 715.099 189.871C715.515 190.042 715.974 190.127 716.475 190.127ZM725.926 192.223V190.271H728.582C729.073 190.271 729.457 190.127 729.734 189.839C730.011 189.551 730.15 189.199 730.15 188.783C730.15 188.495 730.086 188.239 729.958 188.015C729.83 187.791 729.649 187.615 729.414 187.487C729.19 187.359 728.913 187.295 728.582 187.295H725.926V185.391H728.374C728.79 185.391 729.126 185.29 729.382 185.087C729.638 184.874 729.766 184.554 729.766 184.127C729.766 183.711 729.638 183.402 729.382 183.199C729.126 182.986 728.79 182.879 728.374 182.879H725.926V180.927H728.854C729.579 180.927 730.193 181.061 730.694 181.327C731.206 181.594 731.595 181.951 731.862 182.399C732.129 182.847 732.262 183.343 732.262 183.887C732.262 184.581 732.038 185.167 731.59 185.647C731.142 186.127 730.481 186.458 729.606 186.639L729.67 185.791C730.619 185.973 731.35 186.341 731.862 186.895C732.385 187.45 732.646 188.133 732.646 188.943C732.646 189.562 732.491 190.122 732.182 190.623C731.883 191.114 731.446 191.503 730.87 191.791C730.305 192.079 729.622 192.223 728.822 192.223H725.926ZM724.006 192.223V180.927H726.486V192.223H724.006Z" fill="#2C274B"/>
<g filter="url(#filter11_d_3573_315)">
<path d="M848.043 211.019C848.043 229.616 832.766 244.692 813.92 244.692C795.074 244.692 779.797 229.616 779.797 211.019C779.797 192.422 795.074 177.346 813.92 177.346C832.766 177.346 848.043 192.422 848.043 211.019Z" fill="#6747C7" fill-opacity="0.7" shape-rendering="crispEdges"/>
</g>
<path d="M791.677 215.795V204.499H794.189V215.795H791.677ZM793.597 215.795V213.619H799.789V215.795H793.597ZM793.597 211.075V208.979H799.229V211.075H793.597ZM793.597 206.659V204.499H799.709V206.659H793.597ZM804.631 215.971C803.703 215.971 802.903 215.821 802.231 215.523C801.57 215.213 800.962 214.749 800.407 214.131L802.039 212.515C802.402 212.931 802.802 213.256 803.239 213.491C803.687 213.715 804.205 213.827 804.791 213.827C805.325 213.827 805.735 213.731 806.023 213.539C806.322 213.347 806.471 213.08 806.471 212.739C806.471 212.429 806.375 212.179 806.183 211.987C805.991 211.795 805.735 211.629 805.415 211.491C805.106 211.352 804.759 211.219 804.375 211.091C804.002 210.963 803.629 210.819 803.255 210.659C802.882 210.488 802.535 210.28 802.215 210.035C801.906 209.779 801.655 209.464 801.463 209.091C801.271 208.707 801.175 208.227 801.175 207.651C801.175 206.957 801.341 206.36 801.671 205.859C802.013 205.357 802.482 204.979 803.079 204.723C803.677 204.456 804.365 204.323 805.143 204.323C805.933 204.323 806.653 204.461 807.303 204.739C807.965 205.016 808.509 205.395 808.935 205.875L807.303 207.491C806.962 207.139 806.615 206.877 806.263 206.707C805.922 206.536 805.533 206.451 805.095 206.451C804.658 206.451 804.311 206.536 804.055 206.707C803.799 206.867 803.671 207.101 803.671 207.411C803.671 207.699 803.767 207.933 803.959 208.115C804.151 208.285 804.402 208.435 804.711 208.563C805.031 208.691 805.378 208.819 805.751 208.947C806.135 209.075 806.514 209.224 806.887 209.395C807.261 209.565 807.602 209.784 807.911 210.051C808.231 210.307 808.487 210.637 808.679 211.043C808.871 211.437 808.967 211.928 808.967 212.515C808.967 213.592 808.583 214.44 807.815 215.059C807.047 215.667 805.986 215.971 804.631 215.971ZM812.914 215.795V204.659H815.426V215.795H812.914ZM809.378 206.691V204.499H818.962V206.691H809.378ZM818.126 215.795L822.606 204.499H824.878L829.31 215.795H826.654L823.262 206.419H824.174L820.734 215.795H818.126ZM820.67 213.747V211.699H826.83V213.747H820.67ZM832.007 215.795V204.659H834.519V215.795H832.007ZM828.471 206.691V204.499H838.055V206.691H828.471Z" fill="#2C274B"/>
<path d="M791.677 215.795V204.499H794.189V215.795H791.677ZM793.597 215.795V213.619H799.789V215.795H793.597ZM793.597 211.075V208.979H799.229V211.075H793.597ZM793.597 206.659V204.499H799.709V206.659H793.597ZM804.631 215.971C803.703 215.971 802.903 215.821 802.231 215.523C801.57 215.213 800.962 214.749 800.407 214.131L802.039 212.515C802.402 212.931 802.802 213.256 803.239 213.491C803.687 213.715 804.205 213.827 804.791 213.827C805.325 213.827 805.735 213.731 806.023 213.539C806.322 213.347 806.471 213.08 806.471 212.739C806.471 212.429 806.375 212.179 806.183 211.987C805.991 211.795 805.735 211.629 805.415 211.491C805.106 211.352 804.759 211.219 804.375 211.091C804.002 210.963 803.629 210.819 803.255 210.659C802.882 210.488 802.535 210.28 802.215 210.035C801.906 209.779 801.655 209.464 801.463 209.091C801.271 208.707 801.175 208.227 801.175 207.651C801.175 206.957 801.341 206.36 801.671 205.859C802.013 205.357 802.482 204.979 803.079 204.723C803.677 204.456 804.365 204.323 805.143 204.323C805.933 204.323 806.653 204.461 807.303 204.739C807.965 205.016 808.509 205.395 808.935 205.875L807.303 207.491C806.962 207.139 806.615 206.877 806.263 206.707C805.922 206.536 805.533 206.451 805.095 206.451C804.658 206.451 804.311 206.536 804.055 206.707C803.799 206.867 803.671 207.101 803.671 207.411C803.671 207.699 803.767 207.933 803.959 208.115C804.151 208.285 804.402 208.435 804.711 208.563C805.031 208.691 805.378 208.819 805.751 208.947C806.135 209.075 806.514 209.224 806.887 209.395C807.261 209.565 807.602 209.784 807.911 210.051C808.231 210.307 808.487 210.637 808.679 211.043C808.871 211.437 808.967 211.928 808.967 212.515C808.967 213.592 808.583 214.44 807.815 215.059C807.047 215.667 805.986 215.971 804.631 215.971ZM812.914 215.795V204.659H815.426V215.795H812.914ZM809.378 206.691V204.499H818.962V206.691H809.378ZM818.126 215.795L822.606 204.499H824.878L829.31 215.795H826.654L823.262 206.419H824.174L820.734 215.795H818.126ZM820.67 213.747V211.699H826.83V213.747H820.67ZM832.007 215.795V204.659H834.519V215.795H832.007ZM828.471 206.691V204.499H838.055V206.691H828.471Z" fill="#2C274B"/>
<path d="M614.897 287.631V276.335H617.409V287.631H614.897ZM616.817 283.199V281.039H622.465V283.199H616.817ZM616.817 278.495V276.335H622.721V278.495H616.817ZM624.334 287.631V276.335H626.126L630.574 283.263H629.662L634.094 276.335H635.902V287.631H633.39V280.575L633.838 280.687L630.942 285.199H629.278L626.398 280.687L626.83 280.575V287.631H624.334ZM643.429 287.807C642.586 287.807 641.802 287.663 641.077 287.375C640.362 287.076 639.733 286.66 639.189 286.127C638.655 285.594 638.239 284.975 637.941 284.271C637.642 283.556 637.493 282.788 637.493 281.967C637.493 281.146 637.642 280.383 637.941 279.679C638.239 278.964 638.655 278.346 639.189 277.823C639.722 277.3 640.346 276.895 641.061 276.607C641.786 276.308 642.57 276.159 643.413 276.159C644.309 276.159 645.103 276.303 645.797 276.591C646.501 276.879 647.114 277.274 647.637 277.775L645.957 279.471C645.658 279.151 645.295 278.9 644.869 278.719C644.453 278.538 643.967 278.447 643.413 278.447C642.922 278.447 642.469 278.532 642.053 278.703C641.647 278.863 641.295 279.098 640.997 279.407C640.709 279.716 640.479 280.09 640.309 280.527C640.149 280.964 640.069 281.444 640.069 281.967C640.069 282.5 640.149 282.986 640.309 283.423C640.479 283.86 640.709 284.234 640.997 284.543C641.295 284.852 641.647 285.092 642.053 285.263C642.469 285.434 642.922 285.519 643.413 285.519C643.989 285.519 644.49 285.428 644.917 285.247C645.343 285.066 645.711 284.815 646.021 284.495L647.717 286.191C647.173 286.692 646.549 287.087 645.845 287.375C645.151 287.663 644.346 287.807 643.429 287.807ZM654.007 287.807C653.164 287.807 652.38 287.663 651.655 287.375C650.94 287.076 650.311 286.66 649.767 286.127C649.233 285.594 648.817 284.975 648.519 284.271C648.22 283.556 648.071 282.788 648.071 281.967C648.071 281.146 648.22 280.383 648.519 279.679C648.817 278.964 649.233 278.346 649.767 277.823C650.3 277.3 650.924 276.895 651.639 276.607C652.364 276.308 653.148 276.159 653.991 276.159C654.887 276.159 655.681 276.303 656.375 276.591C657.079 276.879 657.692 277.274 658.215 277.775L656.535 279.471C656.236 279.151 655.873 278.9 655.447 278.719C655.031 278.538 654.545 278.447 653.991 278.447C653.5 278.447 653.047 278.532 652.631 278.703C652.225 278.863 651.873 279.098 651.575 279.407C651.287 279.716 651.057 280.09 650.887 280.527C650.727 280.964 650.647 281.444 650.647 281.967C650.647 282.5 650.727 282.986 650.887 283.423C651.057 283.86 651.287 284.234 651.575 284.543C651.873 284.852 652.225 285.092 652.631 285.263C653.047 285.434 653.5 285.519 653.991 285.519C654.567 285.519 655.068 285.428 655.495 285.247C655.921 285.066 656.289 284.815 656.599 284.495L658.295 286.191C657.751 286.692 657.127 287.087 656.423 287.375C655.729 287.663 654.924 287.807 654.007 287.807ZM658.974 286.223L663.31 281.743C663.577 281.476 663.79 281.231 663.95 281.007C664.11 280.783 664.227 280.575 664.302 280.383C664.377 280.18 664.414 279.978 664.414 279.775C664.414 279.338 664.27 278.996 663.982 278.751C663.705 278.495 663.337 278.367 662.878 278.367C662.43 278.367 662.025 278.49 661.662 278.735C661.31 278.97 660.969 279.359 660.638 279.903L658.958 278.447C659.406 277.69 659.977 277.119 660.67 276.735C661.363 276.351 662.158 276.159 663.054 276.159C663.833 276.159 664.505 276.303 665.07 276.591C665.646 276.879 666.089 277.29 666.398 277.823C666.718 278.356 666.878 278.98 666.878 279.695C666.878 280.143 666.819 280.559 666.702 280.943C666.585 281.316 666.393 281.69 666.126 282.063C665.87 282.426 665.523 282.826 665.086 283.263L662.078 286.255L658.974 286.223ZM658.974 287.631V286.223L661.102 285.487H667.102V287.631H658.974Z" fill="#2C274B"/>
<g filter="url(#filter12_d_3573_315)">
<path d="M572.469 286.223C572.469 320.318 543.668 347.957 508.139 347.957C472.61 347.957 443.809 320.318 443.809 286.223C443.809 252.128 472.61 224.488 508.139 224.488C543.668 224.488 572.469 252.128 572.469 286.223Z" fill="#6747C7" fill-opacity="0.7" shape-rendering="crispEdges"/>
</g>
<path d="M484.724 294.366V283.07H487.236V294.366H484.724ZM486.644 289.934V287.774H492.292V289.934H486.644ZM486.644 285.23V283.07H492.548V285.23H486.644ZM494.161 294.366V283.07H495.953L500.401 289.998H499.489L503.921 283.07H505.729V294.366H503.217V287.31L503.665 287.422L500.769 291.934H499.105L496.225 287.422L496.657 287.31V294.366H494.161ZM513.256 294.542C512.413 294.542 511.629 294.398 510.904 294.11C510.189 293.811 509.56 293.395 509.016 292.862C508.482 292.328 508.066 291.71 507.768 291.006C507.469 290.291 507.32 289.523 507.32 288.702C507.32 287.88 507.469 287.118 507.768 286.414C508.066 285.699 508.482 285.08 509.016 284.558C509.549 284.035 510.173 283.63 510.888 283.342C511.613 283.043 512.397 282.894 513.24 282.894C514.136 282.894 514.93 283.038 515.624 283.326C516.328 283.614 516.941 284.008 517.464 284.51L515.784 286.206C515.485 285.886 515.122 285.635 514.696 285.454C514.28 285.272 513.794 285.182 513.24 285.182C512.749 285.182 512.296 285.267 511.88 285.438C511.474 285.598 511.122 285.832 510.824 286.142C510.536 286.451 510.306 286.824 510.136 287.262C509.976 287.699 509.896 288.179 509.896 288.702C509.896 289.235 509.976 289.72 510.136 290.158C510.306 290.595 510.536 290.968 510.824 291.278C511.122 291.587 511.474 291.827 511.88 291.998C512.296 292.168 512.749 292.254 513.24 292.254C513.816 292.254 514.317 292.163 514.744 291.982C515.17 291.8 515.538 291.55 515.848 291.23L517.544 292.926C517 293.427 516.376 293.822 515.672 294.11C514.978 294.398 514.173 294.542 513.256 294.542ZM523.834 294.542C522.991 294.542 522.207 294.398 521.482 294.11C520.767 293.811 520.138 293.395 519.594 292.862C519.061 292.328 518.645 291.71 518.346 291.006C518.047 290.291 517.898 289.523 517.898 288.702C517.898 287.88 518.047 287.118 518.346 286.414C518.645 285.699 519.061 285.08 519.594 284.558C520.127 284.035 520.751 283.63 521.466 283.342C522.191 283.043 522.975 282.894 523.818 282.894C524.714 282.894 525.509 283.038 526.202 283.326C526.906 283.614 527.519 284.008 528.042 284.51L526.362 286.206C526.063 285.886 525.701 285.635 525.274 285.454C524.858 285.272 524.373 285.182 523.818 285.182C523.327 285.182 522.874 285.267 522.458 285.438C522.053 285.598 521.701 285.832 521.402 286.142C521.114 286.451 520.885 286.824 520.714 287.262C520.554 287.699 520.474 288.179 520.474 288.702C520.474 289.235 520.554 289.72 520.714 290.158C520.885 290.595 521.114 290.968 521.402 291.278C521.701 291.587 522.053 291.827 522.458 291.998C522.874 292.168 523.327 292.254 523.818 292.254C524.394 292.254 524.895 292.163 525.322 291.982C525.749 291.8 526.117 291.55 526.426 291.23L528.122 292.926C527.578 293.427 526.954 293.822 526.25 294.11C525.557 294.398 524.751 294.542 523.834 294.542ZM530.913 294.366V283.07H533.409V294.366H530.913ZM528.737 285.198V283.07H533.249V285.198H528.737Z" fill="#2C274B"/>
<g filter="url(#filter13_d_3573_315)">
<path d="M561.633 670.659C561.633 694.525 542.098 713.873 518 713.873C493.902 713.873 474.367 694.525 474.367 670.659C474.367 646.792 493.902 627.445 518 627.445C542.098 627.445 561.633 646.792 561.633 670.659Z" fill="#6747C7" fill-opacity="0.7" shape-rendering="crispEdges"/>
</g>
<path d="M510.916 673.751V662.455H513.428V673.751H510.916ZM514.756 673.751L519.236 662.455H521.508L525.94 673.751H523.284L519.892 664.375H520.804L517.364 673.751H514.756ZM517.3 671.703V669.655H523.46V671.703H517.3Z" fill="#2C274B"/>
<g filter="url(#filter14_d_3573_315)">
<path d="M197.153 366.872C195.403 366.872 193.771 366.584 192.257 366.008C190.763 365.41 189.451 364.578 188.321 363.512C187.19 362.445 186.305 361.197 185.665 359.768C185.046 358.317 184.737 356.749 184.737 355.064C184.737 353.357 185.046 351.789 185.665 350.36C186.305 348.93 187.179 347.693 188.289 346.648C189.419 345.602 190.731 344.792 192.225 344.216C193.718 343.618 195.339 343.32 197.089 343.32C198.859 343.32 200.481 343.597 201.953 344.152C203.425 344.706 204.705 345.474 205.793 346.456L201.537 350.744C201.025 350.189 200.395 349.752 199.649 349.432C198.923 349.112 198.07 348.952 197.089 348.952C196.235 348.952 195.446 349.09 194.721 349.368C194.017 349.645 193.409 350.05 192.897 350.584C192.385 351.117 191.979 351.768 191.681 352.536C191.403 353.282 191.265 354.125 191.265 355.064C191.265 356.024 191.403 356.888 191.681 357.656C191.979 358.402 192.385 359.042 192.897 359.576C193.409 360.109 194.017 360.525 194.721 360.824C195.446 361.101 196.235 361.24 197.089 361.24C198.049 361.24 198.902 361.09 199.649 360.792C200.417 360.493 201.078 360.056 201.633 359.48L205.921 363.768C204.79 364.749 203.521 365.517 202.113 366.072C200.705 366.605 199.051 366.872 197.153 366.872ZM208.139 366.488V343.704H214.539V366.488H208.139ZM218.326 366.488V343.704H224.726V366.488H218.326ZM223.51 366.488V361.176H235.734V366.488H223.51ZM223.51 357.464V352.28H234.55V357.464H223.51ZM223.51 349.016V343.704H235.542V349.016H223.51ZM222.422 342.584L220.822 339.96L225.814 335.64H228.79L233.782 339.96L232.182 342.584L224.79 339.032H229.846L222.422 342.584ZM238.764 366.488V343.704H243.244L245.164 348.504V366.488H238.764ZM254.444 366.488L241.228 349.88L243.244 343.704L256.46 360.312L254.444 366.488ZM254.444 366.488L252.844 361.432V343.704H259.244V366.488H254.444ZM274.278 366.872C272.528 366.872 270.896 366.584 269.382 366.008C267.888 365.41 266.576 364.578 265.446 363.512C264.315 362.445 263.43 361.197 262.79 359.768C262.171 358.317 261.862 356.749 261.862 355.064C261.862 353.357 262.171 351.789 262.79 350.36C263.43 348.93 264.304 347.693 265.414 346.648C266.544 345.602 267.856 344.792 269.35 344.216C270.843 343.618 272.464 343.32 274.214 343.32C275.984 343.32 277.606 343.597 279.078 344.152C280.55 344.706 281.83 345.474 282.918 346.456L278.662 350.744C278.15 350.189 277.52 349.752 276.774 349.432C276.048 349.112 275.195 348.952 274.214 348.952C273.36 348.952 272.571 349.09 271.846 349.368C271.142 349.645 270.534 350.05 270.022 350.584C269.51 351.117 269.104 351.768 268.806 352.536C268.528 353.282 268.39 354.125 268.39 355.064C268.39 356.024 268.528 356.888 268.806 357.656C269.104 358.402 269.51 359.042 270.022 359.576C270.534 360.109 271.142 360.525 271.846 360.824C272.571 361.101 273.36 361.24 274.214 361.24C275.174 361.24 276.027 361.09 276.774 360.792C277.542 360.493 278.203 360.056 278.758 359.48L283.046 363.768C281.915 364.749 280.646 365.517 279.238 366.072C277.83 366.605 276.176 366.872 274.278 366.872ZM285.264 366.488V343.704H291.664V366.488H285.264ZM293.755 366.488L302.427 343.704H308.955L317.531 366.488H310.875L304.507 347.128H306.811L300.283 366.488H293.755ZM299.387 362.648V357.656H312.123V362.648H299.387ZM328.739 366.488V361.048H334.051C335.246 361.048 336.28 360.834 337.155 360.408C338.03 359.96 338.702 359.288 339.171 358.392C339.64 357.496 339.875 356.386 339.875 355.064C339.875 353.741 339.63 352.642 339.139 351.768C338.67 350.893 337.998 350.242 337.123 349.816C336.27 349.368 335.246 349.144 334.051 349.144H328.419V343.704H334.051C335.843 343.704 337.486 343.97 338.979 344.504C340.494 345.037 341.806 345.805 342.915 346.808C344.024 347.81 344.878 349.016 345.475 350.424C346.094 351.81 346.403 353.368 346.403 355.096C346.403 356.824 346.094 358.392 345.475 359.8C344.878 361.186 344.024 362.381 342.915 363.384C341.806 364.386 340.504 365.154 339.011 365.688C337.518 366.221 335.886 366.488 334.115 366.488H328.739ZM324.451 366.488V343.704H330.851V366.488H324.451ZM349.014 366.488V343.704H355.414V366.488H349.014ZM354.198 366.488V361.176H366.422V366.488H354.198ZM354.198 357.464V352.28H365.238V357.464H354.198ZM354.198 349.016V343.704H366.23V349.016H354.198ZM189.13 406.488V401.048H194.442C195.636 401.048 196.671 400.834 197.546 400.408C198.42 399.96 199.092 399.288 199.562 398.392C200.031 397.496 200.266 396.386 200.266 395.064C200.266 393.741 200.02 392.642 199.53 391.768C199.06 390.893 198.388 390.242 197.514 389.816C196.66 389.368 195.636 389.144 194.442 389.144H188.81V383.704H194.442C196.234 383.704 197.876 383.97 199.37 384.504C200.884 385.037 202.196 385.805 203.306 386.808C204.415 387.81 205.268 389.016 205.866 390.424C206.484 391.81 206.794 393.368 206.794 395.096C206.794 396.824 206.484 398.392 205.866 399.8C205.268 401.186 204.415 402.381 203.306 403.384C202.196 404.386 200.895 405.154 199.402 405.688C197.908 406.221 196.276 406.488 194.506 406.488H189.13ZM184.842 406.488V383.704H191.242V406.488H184.842ZM207.708 406.488L216.38 383.704H222.908L231.484 406.488H224.828L218.46 387.128H220.764L214.236 406.488H207.708ZM213.34 402.648V397.656H226.076V402.648H213.34ZM237.599 406.488V401.048H242.911C244.105 401.048 245.14 400.834 246.015 400.408C246.889 399.96 247.561 399.288 248.031 398.392C248.5 397.496 248.735 396.386 248.735 395.064C248.735 393.741 248.489 392.642 247.999 391.768C247.529 390.893 246.857 390.242 245.983 389.816C245.129 389.368 244.105 389.144 242.911 389.144H237.279V383.704H242.911C244.703 383.704 246.345 383.97 247.839 384.504C249.353 385.037 250.665 385.805 251.775 386.808C252.884 387.81 253.737 389.016 254.335 390.424C254.953 391.81 255.263 393.368 255.263 395.096C255.263 396.824 254.953 398.392 254.335 399.8C253.737 401.186 252.884 402.381 251.775 403.384C250.665 404.386 249.364 405.154 247.871 405.688C246.377 406.221 244.745 406.488 242.975 406.488H237.599ZM233.311 406.488V383.704H239.711V406.488H233.311ZM269.137 406.936C267.345 406.936 265.692 406.637 264.177 406.04C262.684 405.442 261.372 404.61 260.241 403.544C259.132 402.477 258.268 401.218 257.649 399.768C257.03 398.317 256.721 396.749 256.721 395.064C256.721 393.357 257.02 391.789 257.617 390.36C258.236 388.93 259.1 387.682 260.209 386.616C261.318 385.549 262.62 384.728 264.113 384.152C265.628 383.554 267.281 383.256 269.073 383.256C270.865 383.256 272.508 383.554 274.001 384.152C275.516 384.728 276.828 385.549 277.937 386.616C279.046 387.682 279.9 388.941 280.497 390.392C281.116 391.821 281.425 393.389 281.425 395.096C281.425 396.781 281.116 398.349 280.497 399.8C279.9 401.229 279.046 402.488 277.937 403.576C276.828 404.642 275.526 405.474 274.033 406.072C272.54 406.648 270.908 406.936 269.137 406.936ZM269.073 401.304C270.268 401.304 271.302 401.048 272.177 400.536C273.052 400.024 273.724 399.298 274.193 398.36C274.662 397.421 274.897 396.322 274.897 395.064C274.897 394.125 274.758 393.282 274.481 392.536C274.225 391.768 273.841 391.117 273.329 390.584C272.817 390.029 272.198 389.613 271.473 389.336C270.769 389.037 269.969 388.888 269.073 388.888C267.878 388.888 266.844 389.144 265.969 389.656C265.094 390.146 264.422 390.861 263.953 391.8C263.484 392.717 263.249 393.805 263.249 395.064C263.249 396.024 263.377 396.888 263.633 397.656C263.91 398.424 264.305 399.085 264.817 399.64C265.329 400.173 265.937 400.589 266.641 400.888C267.366 401.165 268.177 401.304 269.073 401.304ZM290.952 406.872C289.01 406.872 287.314 406.594 285.864 406.04C284.434 405.464 283.112 404.557 281.896 403.32L285.896 399.32C286.728 400.109 287.602 400.717 288.52 401.144C289.437 401.549 290.418 401.752 291.464 401.752C292.338 401.752 293 401.624 293.448 401.368C293.896 401.09 294.12 400.717 294.12 400.248C294.12 399.778 293.928 399.394 293.544 399.096C293.16 398.776 292.648 398.498 292.008 398.264C291.389 398.008 290.696 397.752 289.928 397.496C289.181 397.24 288.434 396.93 287.688 396.568C286.941 396.205 286.248 395.768 285.608 395.256C284.989 394.722 284.488 394.072 284.104 393.304C283.72 392.514 283.528 391.554 283.528 390.424C283.528 388.952 283.88 387.682 284.584 386.616C285.288 385.549 286.28 384.738 287.56 384.184C288.84 383.608 290.344 383.32 292.072 383.32C293.778 383.32 295.357 383.597 296.808 384.152C298.28 384.685 299.496 385.453 300.456 386.456L296.424 390.456C295.72 389.773 295.016 389.272 294.312 388.952C293.608 388.61 292.84 388.44 292.008 388.44C291.346 388.44 290.813 388.546 290.408 388.76C290.024 388.973 289.832 389.293 289.832 389.72C289.832 390.168 290.024 390.541 290.408 390.84C290.792 391.117 291.293 391.373 291.912 391.608C292.552 391.842 293.245 392.088 293.992 392.344C294.76 392.6 295.517 392.909 296.264 393.272C297.01 393.613 297.693 394.061 298.312 394.616C298.952 395.149 299.464 395.821 299.848 396.632C300.232 397.442 300.424 398.424 300.424 399.576C300.424 401.901 299.592 403.704 297.928 404.984C296.285 406.242 293.96 406.872 290.952 406.872ZM322.634 406.488L312.522 395.32C311.711 394.402 311.135 393.538 310.794 392.728C310.474 391.917 310.314 391.032 310.314 390.072C310.314 388.898 310.612 387.8 311.21 386.776C311.828 385.752 312.671 384.92 313.738 384.28C314.826 383.64 316.084 383.32 317.514 383.32C318.666 383.32 319.668 383.48 320.522 383.8C321.396 384.098 322.132 384.482 322.73 384.952C323.327 385.4 323.764 385.848 324.042 386.296L320.042 390.296C319.658 389.762 319.274 389.41 318.89 389.24C318.506 389.048 318.1 388.952 317.674 388.952C317.204 388.952 316.82 389.09 316.522 389.368C316.244 389.624 316.106 389.933 316.106 390.296C316.106 390.53 316.159 390.776 316.266 391.032C316.394 391.288 316.575 391.554 316.81 391.832L329.866 406.488H322.634ZM315.466 406.872C313.93 406.872 312.586 406.562 311.434 405.944C310.303 405.304 309.418 404.45 308.778 403.384C308.159 402.317 307.85 401.133 307.85 399.832C307.85 398.381 308.223 397.09 308.97 395.96C309.716 394.808 310.868 393.88 312.426 393.176L314.986 397.4C314.495 397.549 314.132 397.805 313.898 398.168C313.684 398.53 313.578 398.914 313.578 399.32C313.578 399.64 313.652 399.949 313.802 400.248C313.951 400.546 314.175 400.792 314.474 400.984C314.772 401.176 315.135 401.272 315.562 401.272C315.924 401.272 316.276 401.186 316.618 401.016C316.959 400.824 317.3 400.482 317.642 399.992L321.962 404.12C321.663 404.504 321.194 404.909 320.554 405.336C319.935 405.762 319.188 406.125 318.314 406.424C317.439 406.722 316.49 406.872 315.466 406.872ZM336.154 406.488V383.704H342.554V406.488H336.154ZM344.646 406.488L353.318 383.704H359.846L368.422 406.488H361.766L355.398 387.128H357.702L351.174 406.488H344.646ZM350.278 402.648V397.656H363.014V402.648H350.278Z" fill="#6747C7"/>
</g>
<rect x="857" y="627" width="163" height="27" rx="13.5" fill="#6747C7" fill-opacity="0.69"/>
<rect x="859" y="668" width="163" height="27" rx="13.5" fill="#9881FF" fill-opacity="0.41"/>
<path d="M895.01 688.24C893.943 688.24 892.957 688.053 892.05 687.68C891.157 687.307 890.37 686.787 889.69 686.12C889.01 685.453 888.483 684.68 888.11 683.8C887.737 682.907 887.55 681.947 887.55 680.92C887.55 679.88 887.737 678.92 888.11 678.04C888.483 677.16 889.003 676.393 889.67 675.74C890.337 675.073 891.117 674.56 892.01 674.2C892.917 673.827 893.903 673.64 894.97 673.64C896.023 673.64 896.997 673.827 897.89 674.2C898.797 674.56 899.583 675.073 900.25 675.74C900.93 676.393 901.457 677.167 901.83 678.06C902.203 678.94 902.39 679.9 902.39 680.94C902.39 681.967 902.203 682.927 901.83 683.82C901.457 684.7 900.937 685.473 900.27 686.14C899.603 686.793 898.817 687.307 897.91 687.68C897.017 688.053 896.05 688.24 895.01 688.24ZM894.97 685.38C895.81 685.38 896.543 685.193 897.17 684.82C897.81 684.447 898.303 683.927 898.65 683.26C898.997 682.58 899.17 681.8 899.17 680.92C899.17 680.253 899.07 679.653 898.87 679.12C898.67 678.573 898.383 678.107 898.01 677.72C897.637 677.32 897.19 677.02 896.67 676.82C896.163 676.607 895.597 676.5 894.97 676.5C894.13 676.5 893.39 676.687 892.75 677.06C892.123 677.42 891.637 677.933 891.29 678.6C890.943 679.253 890.77 680.027 890.77 680.92C890.77 681.587 890.87 682.193 891.07 682.74C891.27 683.287 891.55 683.76 891.91 684.16C892.283 684.547 892.73 684.847 893.25 685.06C893.77 685.273 894.343 685.38 894.97 685.38ZM906.783 682.86V680.42H909.823C910.21 680.42 910.563 680.34 910.883 680.18C911.203 680.02 911.457 679.787 911.643 679.48C911.83 679.173 911.923 678.8 911.923 678.36C911.923 677.933 911.83 677.567 911.643 677.26C911.457 676.953 911.203 676.72 910.883 676.56C910.563 676.4 910.21 676.32 909.823 676.32H906.783V673.88H910.283C911.177 673.88 911.983 674.06 912.703 674.42C913.423 674.78 913.99 675.3 914.403 675.98C914.83 676.647 915.043 677.44 915.043 678.36C915.043 679.28 914.83 680.08 914.403 680.76C913.99 681.427 913.423 681.947 912.703 682.32C911.983 682.68 911.177 682.86 910.283 682.86H906.783ZM904.383 688V673.88H907.523V688H904.383ZM920.148 688V674.08H923.288V688H920.148ZM915.728 676.62V673.88H927.708V676.62H915.728ZM926.663 688L932.263 673.88H935.103L940.643 688H937.323L933.083 676.28H934.223L929.923 688H926.663ZM929.843 685.44V682.88H937.543V685.44H929.843ZM944.015 688V674.08H947.155V688H944.015ZM939.595 676.62V673.88H951.575V676.62H939.595ZM953.329 688V673.88H956.469V688H953.329ZM963.588 688L958.148 673.88H961.508L965.648 685.3H964.268L968.468 673.88H971.788L966.288 688H963.588ZM970.589 688L976.189 673.88H979.029L984.569 688H981.249L977.009 676.28H978.149L973.849 688H970.589ZM973.769 685.44V682.88H981.469V685.44H973.769ZM990.03 688.22C988.87 688.22 987.87 688.033 987.03 687.66C986.203 687.273 985.443 686.693 984.75 685.92L986.79 683.9C987.243 684.42 987.743 684.827 988.29 685.12C988.85 685.4 989.496 685.54 990.23 685.54C990.896 685.54 991.41 685.42 991.77 685.18C992.143 684.94 992.33 684.607 992.33 684.18C992.33 683.793 992.21 683.48 991.97 683.24C991.73 683 991.41 682.793 991.01 682.62C990.623 682.447 990.19 682.28 989.71 682.12C989.243 681.96 988.776 681.78 988.31 681.58C987.843 681.367 987.41 681.107 987.01 680.8C986.623 680.48 986.31 680.087 986.07 679.62C985.83 679.14 985.71 678.54 985.71 677.82C985.71 676.953 985.916 676.207 986.33 675.58C986.756 674.953 987.343 674.48 988.09 674.16C988.836 673.827 989.696 673.66 990.67 673.66C991.656 673.66 992.556 673.833 993.37 674.18C994.196 674.527 994.876 675 995.41 675.6L993.37 677.62C992.943 677.18 992.51 676.853 992.07 676.64C991.643 676.427 991.156 676.32 990.61 676.32C990.063 676.32 989.63 676.427 989.31 676.64C988.99 676.84 988.83 677.133 988.83 677.52C988.83 677.88 988.95 678.173 989.19 678.4C989.43 678.613 989.743 678.8 990.13 678.96C990.53 679.12 990.963 679.28 991.43 679.44C991.91 679.6 992.383 679.787 992.85 680C993.316 680.213 993.743 680.487 994.13 680.82C994.53 681.14 994.85 681.553 995.09 682.06C995.33 682.553 995.45 683.167 995.45 683.9C995.45 685.247 994.97 686.307 994.01 687.08C993.05 687.84 991.723 688.22 990.03 688.22Z" fill="#2C274B"/>
<path d="M872.567 647.24C871.5 647.24 870.513 647.053 869.607 646.68C868.713 646.307 867.927 645.787 867.247 645.12C866.567 644.453 866.04 643.68 865.667 642.8C865.293 641.907 865.107 640.947 865.107 639.92C865.107 638.88 865.293 637.92 865.667 637.04C866.04 636.16 866.56 635.393 867.227 634.74C867.893 634.073 868.673 633.56 869.567 633.2C870.473 632.827 871.46 632.64 872.527 632.64C873.58 632.64 874.553 632.827 875.447 633.2C876.353 633.56 877.14 634.073 877.807 634.74C878.487 635.393 879.013 636.167 879.387 637.06C879.76 637.94 879.947 638.9 879.947 639.94C879.947 640.967 879.76 641.927 879.387 642.82C879.013 643.7 878.493 644.473 877.827 645.14C877.16 645.793 876.373 646.307 875.467 646.68C874.573 647.053 873.607 647.24 872.567 647.24ZM872.527 644.38C873.367 644.38 874.1 644.193 874.727 643.82C875.367 643.447 875.86 642.927 876.207 642.26C876.553 641.58 876.727 640.8 876.727 639.92C876.727 639.253 876.627 638.653 876.427 638.12C876.227 637.573 875.94 637.107 875.567 636.72C875.193 636.32 874.747 636.02 874.227 635.82C873.72 635.607 873.153 635.5 872.527 635.5C871.687 635.5 870.947 635.687 870.307 636.06C869.68 636.42 869.193 636.933 868.847 637.6C868.5 638.253 868.327 639.027 868.327 639.92C868.327 640.587 868.427 641.193 868.627 641.74C868.827 642.287 869.107 642.76 869.467 643.16C869.84 643.547 870.287 643.847 870.807 644.06C871.327 644.273 871.9 644.38 872.527 644.38ZM884.34 647V644.56H887.66C888.273 644.56 888.753 644.38 889.1 644.02C889.447 643.66 889.62 643.22 889.62 642.7C889.62 642.34 889.54 642.02 889.38 641.74C889.22 641.46 888.993 641.24 888.7 641.08C888.42 640.92 888.073 640.84 887.66 640.84H884.34V638.46H887.4C887.92 638.46 888.34 638.333 888.66 638.08C888.98 637.813 889.14 637.413 889.14 636.88C889.14 636.36 888.98 635.973 888.66 635.72C888.34 635.453 887.92 635.32 887.4 635.32H884.34V632.88H888C888.907 632.88 889.673 633.047 890.3 633.38C890.94 633.713 891.427 634.16 891.76 634.72C892.093 635.28 892.26 635.9 892.26 636.58C892.26 637.447 891.98 638.18 891.42 638.78C890.86 639.38 890.033 639.793 888.94 640.02L889.02 638.96C890.207 639.187 891.12 639.647 891.76 640.34C892.413 641.033 892.74 641.887 892.74 642.9C892.74 643.673 892.547 644.373 892.16 645C891.787 645.613 891.24 646.1 890.52 646.46C889.813 646.82 888.96 647 887.96 647H884.34ZM881.94 647V632.88H885.04V647H881.94ZM897.153 641.18V638.86H900.133C900.759 638.86 901.239 638.7 901.573 638.38C901.919 638.06 902.093 637.627 902.093 637.08C902.093 636.573 901.926 636.153 901.593 635.82C901.259 635.487 900.779 635.32 900.153 635.32H897.153V632.88H900.513C901.446 632.88 902.266 633.06 902.973 633.42C903.679 633.767 904.233 634.253 904.633 634.88C905.033 635.507 905.233 636.227 905.233 637.04C905.233 637.867 905.033 638.593 904.633 639.22C904.233 639.833 903.673 640.313 902.953 640.66C902.233 641.007 901.386 641.18 900.413 641.18H897.153ZM894.753 647V632.88H897.893V647H894.753ZM902.433 647L898.033 640.92L900.913 640.14L906.153 647H902.433ZM907.526 647V632.88H910.666V647H907.526ZM920.045 647.22C919.019 647.22 918.052 647.033 917.145 646.66C916.252 646.287 915.472 645.773 914.805 645.12C914.139 644.453 913.612 643.68 913.225 642.8C912.852 641.907 912.665 640.947 912.665 639.92C912.665 638.893 912.859 637.94 913.245 637.06C913.632 636.18 914.165 635.413 914.845 634.76C915.539 634.093 916.345 633.58 917.265 633.22C918.185 632.847 919.172 632.66 920.225 632.66C921.439 632.66 922.539 632.88 923.525 633.32C924.525 633.76 925.352 634.367 926.005 635.14L923.865 637.28C923.412 636.693 922.879 636.253 922.265 635.96C921.652 635.667 920.959 635.52 920.185 635.52C919.359 635.52 918.619 635.707 917.965 636.08C917.312 636.44 916.799 636.953 916.425 637.62C916.065 638.273 915.885 639.04 915.885 639.92C915.885 640.8 916.065 641.573 916.425 642.24C916.785 642.907 917.279 643.427 917.905 643.8C918.532 644.173 919.252 644.36 920.065 644.36C920.892 644.36 921.592 644.207 922.165 643.9C922.752 643.58 923.199 643.127 923.505 642.54C923.825 641.94 923.985 641.213 923.985 640.36L926.065 641.76L919.765 641.66V639H927.185V639.46C927.185 641.153 926.879 642.58 926.265 643.74C925.665 644.887 924.825 645.753 923.745 646.34C922.679 646.927 921.445 647.22 920.045 647.22ZM927.423 647L933.023 632.88H935.863L941.403 647H938.083L933.843 635.28H934.983L930.683 647H927.423ZM930.603 644.44V641.88H938.303V644.44H930.603ZM944.775 647V633.08H947.915V647H944.775ZM940.355 635.62V632.88H952.335V635.62H940.355ZM960.086 647.24C959.02 647.24 958.033 647.053 957.126 646.68C956.233 646.307 955.446 645.787 954.766 645.12C954.086 644.453 953.56 643.68 953.186 642.8C952.813 641.907 952.626 640.947 952.626 639.92C952.626 638.88 952.813 637.92 953.186 637.04C953.56 636.16 954.08 635.393 954.746 634.74C955.413 634.073 956.193 633.56 957.086 633.2C957.993 632.827 958.98 632.64 960.046 632.64C961.1 632.64 962.073 632.827 962.966 633.2C963.873 633.56 964.66 634.073 965.326 634.74C966.006 635.393 966.533 636.167 966.906 637.06C967.28 637.94 967.466 638.9 967.466 639.94C967.466 640.967 967.28 641.927 966.906 642.82C966.533 643.7 966.013 644.473 965.346 645.14C964.68 645.793 963.893 646.307 962.986 646.68C962.093 647.053 961.126 647.24 960.086 647.24ZM960.046 644.38C960.886 644.38 961.62 644.193 962.246 643.82C962.886 643.447 963.38 642.927 963.726 642.26C964.073 641.58 964.246 640.8 964.246 639.92C964.246 639.253 964.146 638.653 963.946 638.12C963.746 637.573 963.46 637.107 963.086 636.72C962.713 636.32 962.266 636.02 961.746 635.82C961.24 635.607 960.673 635.5 960.046 635.5C959.206 635.5 958.466 635.687 957.826 636.06C957.2 636.42 956.713 636.933 956.366 637.6C956.02 638.253 955.846 639.027 955.846 639.92C955.846 640.587 955.946 641.193 956.146 641.74C956.346 642.287 956.626 642.76 956.986 643.16C957.36 643.547 957.806 643.847 958.326 644.06C958.846 644.273 959.42 644.38 960.046 644.38ZM971.86 641.18V638.86H974.84C975.466 638.86 975.946 638.7 976.28 638.38C976.626 638.06 976.8 637.627 976.8 637.08C976.8 636.573 976.633 636.153 976.3 635.82C975.966 635.487 975.486 635.32 974.86 635.32H971.86V632.88H975.22C976.153 632.88 976.973 633.06 977.68 633.42C978.386 633.767 978.94 634.253 979.34 634.88C979.74 635.507 979.94 636.227 979.94 637.04C979.94 637.867 979.74 638.593 979.34 639.22C978.94 639.833 978.38 640.313 977.66 640.66C976.94 641.007 976.093 641.18 975.12 641.18H971.86ZM969.46 647V632.88H972.6V647H969.46ZM977.14 647L972.74 640.92L975.62 640.14L980.86 647H977.14ZM982.233 647V632.88H985.373V647H982.233ZM987.032 647L992.632 632.88H995.472L1001.01 647H997.692L993.452 635.28H994.592L990.292 647H987.032ZM990.212 644.44V641.88H997.912V644.44H990.212ZM1006.47 647.22C1005.31 647.22 1004.31 647.033 1003.47 646.66C1002.65 646.273 1001.89 645.693 1001.19 644.92L1003.23 642.9C1003.69 643.42 1004.19 643.827 1004.73 644.12C1005.29 644.4 1005.94 644.54 1006.67 644.54C1007.34 644.54 1007.85 644.42 1008.21 644.18C1008.59 643.94 1008.77 643.607 1008.77 643.18C1008.77 642.793 1008.65 642.48 1008.41 642.24C1008.17 642 1007.85 641.793 1007.45 641.62C1007.07 641.447 1006.63 641.28 1006.15 641.12C1005.69 640.96 1005.22 640.78 1004.75 640.58C1004.29 640.367 1003.85 640.107 1003.45 639.8C1003.07 639.48 1002.75 639.087 1002.51 638.62C1002.27 638.14 1002.15 637.54 1002.15 636.82C1002.15 635.953 1002.36 635.207 1002.77 634.58C1003.2 633.953 1003.79 633.48 1004.53 633.16C1005.28 632.827 1006.14 632.66 1007.11 632.66C1008.1 632.66 1009 632.833 1009.81 633.18C1010.64 633.527 1011.32 634 1011.85 634.6L1009.81 636.62C1009.39 636.18 1008.95 635.853 1008.51 635.64C1008.09 635.427 1007.6 635.32 1007.05 635.32C1006.51 635.32 1006.07 635.427 1005.75 635.64C1005.43 635.84 1005.27 636.133 1005.27 636.52C1005.27 636.88 1005.39 637.173 1005.63 637.4C1005.87 637.613 1006.19 637.8 1006.57 637.96C1006.97 638.12 1007.41 638.28 1007.87 638.44C1008.35 638.6 1008.83 638.787 1009.29 639C1009.76 639.213 1010.19 639.487 1010.57 639.82C1010.97 640.14 1011.29 640.553 1011.53 641.06C1011.77 641.553 1011.89 642.167 1011.89 642.9C1011.89 644.247 1011.41 645.307 1010.45 646.08C1009.49 646.84 1008.17 647.22 1006.47 647.22Z" fill="#2C274B"/>
<defs>
<filter id="filter0_d_3573_315" x="134.255" y="236.835" width="295.054" height="297.978" filterUnits="userSpaceOnUse" color-interpolation-filters="sRGB">
<feFlood flood-opacity="0" result="BackgroundImageFix"/>
<feColorMatrix in="SourceAlpha" type="matrix" values="0 0 0 0 0 0 0 0 0 0 0 0 0 0 0 0 0 0 127 0" result="hardAlpha"/>
<feMorphology radius="8" operator="erode" in="SourceAlpha" result="effect1_dropShadow_3573_315"/>
<feOffset dx="9" dy="11"/>
<feGaussianBlur stdDeviation="5.5"/>
<feComposite in2="hardAlpha" operator="out"/>
<feColorMatrix type="matrix" values="0 0 0 0 0 0 0 0 0 0 0 0 0 0 0 0 0 0 0.17 0"/>
<feBlend mode="normal" in2="BackgroundImageFix" result="effect1_dropShadow_3573_315"/>
<feBlend mode="normal" in="SourceGraphic" in2="effect1_dropShadow_3573_315" result="shape"/>
</filter>
<filter id="filter1_d_3573_315" x="34.0199" y="112.834" width="144.461" height="139.269" filterUnits="userSpaceOnUse" color-interpolation-filters="sRGB">
<feFlood flood-opacity="0" result="BackgroundImageFix"/>
<feColorMatrix in="SourceAlpha" type="matrix" values="0 0 0 0 0 0 0 0 0 0 0 0 0 0 0 0 0 0 127 0" result="hardAlpha"/>
<feOffset dx="5" dy="4"/>
<feGaussianBlur stdDeviation="3.95"/>
<feComposite in2="hardAlpha" operator="out"/>
<feColorMatrix type="matrix" values="0 0 0 0 0 0 0 0 0 0 0 0 0 0 0 0 0 0 0.08 0"/>
<feBlend mode="normal" in2="BackgroundImageFix" result="effect1_dropShadow_3573_315"/>
<feBlend mode="normal" in="SourceGraphic" in2="effect1_dropShadow_3573_315" result="shape"/>
</filter>
<filter id="filter2_d_3573_315" x="42.9701" y="514.668" width="144.461" height="139.269" filterUnits="userSpaceOnUse" color-interpolation-filters="sRGB">
<feFlood flood-opacity="0" result="BackgroundImageFix"/>
<feColorMatrix in="SourceAlpha" type="matrix" values="0 0 0 0 0 0 0 0 0 0 0 0 0 0 0 0 0 0 127 0" result="hardAlpha"/>
<feOffset dx="5" dy="4"/>
<feGaussianBlur stdDeviation="3.95"/>
<feComposite in2="hardAlpha" operator="out"/>
<feColorMatrix type="matrix" values="0 0 0 0 0 0 0 0 0 0 0 0 0 0 0 0 0 0 0.08 0"/>
<feBlend mode="normal" in2="BackgroundImageFix" result="effect1_dropShadow_3573_315"/>
<feBlend mode="normal" in="SourceGraphic" in2="effect1_dropShadow_3573_315" result="shape"/>
</filter>
<filter id="filter3_d_3573_315" x="874.232" y="205.997" width="144.461" height="139.269" filterUnits="userSpaceOnUse" color-interpolation-filters="sRGB">
<feFlood flood-opacity="0" result="BackgroundImageFix"/>
<feColorMatrix in="SourceAlpha" type="matrix" values="0 0 0 0 0 0 0 0 0 0 0 0 0 0 0 0 0 0 127 0" result="hardAlpha"/>
<feOffset dx="5" dy="4"/>
<feGaussianBlur stdDeviation="3.95"/>
<feComposite in2="hardAlpha" operator="out"/>
<feColorMatrix type="matrix" values="0 0 0 0 0 0 0 0 0 0 0 0 0 0 0 0 0 0 0.08 0"/>
<feBlend mode="normal" in2="BackgroundImageFix" result="effect1_dropShadow_3573_315"/>
<feBlend mode="normal" in="SourceGraphic" in2="effect1_dropShadow_3573_315" result="shape"/>
</filter>
<filter id="filter4_d_3573_315" x="525.936" y="122.936" width="103.066" height="102.228" filterUnits="userSpaceOnUse" color-interpolation-filters="sRGB">
<feFlood flood-opacity="0" result="BackgroundImageFix"/>
<feColorMatrix in="SourceAlpha" type="matrix" values="0 0 0 0 0 0 0 0 0 0 0 0 0 0 0 0 0 0 127 0" result="hardAlpha"/>
<feOffset dx="5" dy="4"/>
<feGaussianBlur stdDeviation="3.95"/>
<feComposite in2="hardAlpha" operator="out"/>
<feColorMatrix type="matrix" values="0 0 0 0 0 0 0 0 0 0 0 0 0 0 0 0 0 0 0.08 0"/>
<feBlend mode="normal" in2="BackgroundImageFix" result="effect1_dropShadow_3573_315"/>
<feBlend mode="normal" in="SourceGraphic" in2="effect1_dropShadow_3573_315" result="shape"/>
</filter>
<filter id="filter5_d_3573_315" x="485.66" y="25.2835" width="77.3332" height="76.4118" filterUnits="userSpaceOnUse" color-interpolation-filters="sRGB">
<feFlood flood-opacity="0" result="BackgroundImageFix"/>
<feColorMatrix in="SourceAlpha" type="matrix" values="0 0 0 0 0 0 0 0 0 0 0 0 0 0 0 0 0 0 127 0" result="hardAlpha"/>
<feOffset dx="5" dy="4"/>
<feGaussianBlur stdDeviation="3.95"/>
<feComposite in2="hardAlpha" operator="out"/>
<feColorMatrix type="matrix" values="0 0 0 0 0 0 0 0 0 0 0 0 0 0 0 0 0 0 0.08 0"/>
<feBlend mode="normal" in2="BackgroundImageFix" result="effect1_dropShadow_3573_315"/>
<feBlend mode="normal" in="SourceGraphic" in2="effect1_dropShadow_3573_315" result="shape"/>
</filter>
<filter id="filter6_d_3573_315" x="594.182" y="235.18" width="103.066" height="102.228" filterUnits="userSpaceOnUse" color-interpolation-filters="sRGB">
<feFlood flood-opacity="0" result="BackgroundImageFix"/>
<feColorMatrix in="SourceAlpha" type="matrix" values="0 0 0 0 0 0 0 0 0 0 0 0 0 0 0 0 0 0 127 0" result="hardAlpha"/>
<feOffset dx="5" dy="4"/>
<feGaussianBlur stdDeviation="3.95"/>
<feComposite in2="hardAlpha" operator="out"/>
<feColorMatrix type="matrix" values="0 0 0 0 0 0 0 0 0 0 0 0 0 0 0 0 0 0 0.08 0"/>
<feBlend mode="normal" in2="BackgroundImageFix" result="effect1_dropShadow_3573_315"/>
<feBlend mode="normal" in="SourceGraphic" in2="effect1_dropShadow_3573_315" result="shape"/>
</filter>
<filter id="filter7_d_3573_315" x="398.746" y="487.729" width="144.461" height="139.269" filterUnits="userSpaceOnUse" color-interpolation-filters="sRGB">
<feFlood flood-opacity="0" result="BackgroundImageFix"/>
<feColorMatrix in="SourceAlpha" type="matrix" values="0 0 0 0 0 0 0 0 0 0 0 0 0 0 0 0 0 0 127 0" result="hardAlpha"/>
<feOffset dx="5" dy="4"/>
<feGaussianBlur stdDeviation="3.95"/>
<feComposite in2="hardAlpha" operator="out"/>
<feColorMatrix type="matrix" values="0 0 0 0 0 0 0 0 0 0 0 0 0 0 0 0 0 0 0.08 0"/>
<feBlend mode="normal" in2="BackgroundImageFix" result="effect1_dropShadow_3573_315"/>
<feBlend mode="normal" in="SourceGraphic" in2="effect1_dropShadow_3573_315" result="shape"/>
</filter>
<filter id="filter8_d_3573_315" x="703.056" y="308.139" width="84.0461" height="83.1465" filterUnits="userSpaceOnUse" color-interpolation-filters="sRGB">
<feFlood flood-opacity="0" result="BackgroundImageFix"/>
<feColorMatrix in="SourceAlpha" type="matrix" values="0 0 0 0 0 0 0 0 0 0 0 0 0 0 0 0 0 0 127 0" result="hardAlpha"/>
<feOffset dx="5" dy="4"/>
<feGaussianBlur stdDeviation="3.95"/>
<feComposite in2="hardAlpha" operator="out"/>
<feColorMatrix type="matrix" values="0 0 0 0 0 0 0 0 0 0 0 0 0 0 0 0 0 0 0.08 0"/>
<feBlend mode="normal" in2="BackgroundImageFix" result="effect1_dropShadow_3573_315"/>
<feBlend mode="normal" in="SourceGraphic" in2="effect1_dropShadow_3573_315" result="shape"/>
</filter>
<filter id="filter9_d_3573_315" x="581.108" y="370.995" width="84.0461" height="83.1465" filterUnits="userSpaceOnUse" color-interpolation-filters="sRGB">
<feFlood flood-opacity="0" result="BackgroundImageFix"/>
<feColorMatrix in="SourceAlpha" type="matrix" values="0 0 0 0 0 0 0 0 0 0 0 0 0 0 0 0 0 0 127 0" result="hardAlpha"/>
<feOffset dx="5" dy="4"/>
<feGaussianBlur stdDeviation="3.95"/>
<feComposite in2="hardAlpha" operator="out"/>
<feColorMatrix type="matrix" values="0 0 0 0 0 0 0 0 0 0 0 0 0 0 0 0 0 0 0.08 0"/>
<feBlend mode="normal" in2="BackgroundImageFix" result="effect1_dropShadow_3573_315"/>
<feBlend mode="normal" in="SourceGraphic" in2="effect1_dropShadow_3573_315" result="shape"/>
</filter>
<filter id="filter10_d_3573_315" x="673.968" y="149.874" width="84.0461" height="83.1465" filterUnits="userSpaceOnUse" color-interpolation-filters="sRGB">
<feFlood flood-opacity="0" result="BackgroundImageFix"/>
<feColorMatrix in="SourceAlpha" type="matrix" values="0 0 0 0 0 0 0 0 0 0 0 0 0 0 0 0 0 0 127 0" result="hardAlpha"/>
<feOffset dx="5" dy="4"/>
<feGaussianBlur stdDeviation="3.95"/>
<feComposite in2="hardAlpha" operator="out"/>
<feColorMatrix type="matrix" values="0 0 0 0 0 0 0 0 0 0 0 0 0 0 0 0 0 0 0.08 0"/>
<feBlend mode="normal" in2="BackgroundImageFix" result="effect1_dropShadow_3573_315"/>
<feBlend mode="normal" in="SourceGraphic" in2="effect1_dropShadow_3573_315" result="shape"/>
</filter>
<filter id="filter11_d_3573_315" x="776.897" y="173.446" width="84.0461" height="83.1465" filterUnits="userSpaceOnUse" color-interpolation-filters="sRGB">
<feFlood flood-opacity="0" result="BackgroundImageFix"/>
<feColorMatrix in="SourceAlpha" type="matrix" values="0 0 0 0 0 0 0 0 0 0 0 0 0 0 0 0 0 0 127 0" result="hardAlpha"/>
<feOffset dx="5" dy="4"/>
<feGaussianBlur stdDeviation="3.95"/>
<feComposite in2="hardAlpha" operator="out"/>
<feColorMatrix type="matrix" values="0 0 0 0 0 0 0 0 0 0 0 0 0 0 0 0 0 0 0.08 0"/>
<feBlend mode="normal" in2="BackgroundImageFix" result="effect1_dropShadow_3573_315"/>
<feBlend mode="normal" in="SourceGraphic" in2="effect1_dropShadow_3573_315" result="shape"/>
</filter>
<filter id="filter12_d_3573_315" x="440.909" y="220.588" width="144.461" height="139.269" filterUnits="userSpaceOnUse" color-interpolation-filters="sRGB">
<feFlood flood-opacity="0" result="BackgroundImageFix"/>
<feColorMatrix in="SourceAlpha" type="matrix" values="0 0 0 0 0 0 0 0 0 0 0 0 0 0 0 0 0 0 127 0" result="hardAlpha"/>
<feOffset dx="5" dy="4"/>
<feGaussianBlur stdDeviation="3.95"/>
<feComposite in2="hardAlpha" operator="out"/>
<feColorMatrix type="matrix" values="0 0 0 0 0 0 0 0 0 0 0 0 0 0 0 0 0 0 0.08 0"/>
<feBlend mode="normal" in2="BackgroundImageFix" result="effect1_dropShadow_3573_315"/>
<feBlend mode="normal" in="SourceGraphic" in2="effect1_dropShadow_3573_315" result="shape"/>
</filter>
<filter id="filter13_d_3573_315" x="471.467" y="623.545" width="103.066" height="102.228" filterUnits="userSpaceOnUse" color-interpolation-filters="sRGB">
<feFlood flood-opacity="0" result="BackgroundImageFix"/>
<feColorMatrix in="SourceAlpha" type="matrix" values="0 0 0 0 0 0 0 0 0 0 0 0 0 0 0 0 0 0 127 0" result="hardAlpha"/>
<feOffset dx="5" dy="4"/>
<feGaussianBlur stdDeviation="3.95"/>
<feComposite in2="hardAlpha" operator="out"/>
<feColorMatrix type="matrix" values="0 0 0 0 0 0 0 0 0 0 0 0 0 0 0 0 0 0 0.08 0"/>
<feBlend mode="normal" in2="BackgroundImageFix" result="effect1_dropShadow_3573_315"/>
<feBlend mode="normal" in="SourceGraphic" in2="effect1_dropShadow_3573_315" result="shape"/>
</filter>
<filter id="filter14_d_3573_315" x="180.736" y="335.64" width="191.686" height="79.296" filterUnits="userSpaceOnUse" color-interpolation-filters="sRGB">
<feFlood flood-opacity="0" result="BackgroundImageFix"/>
<feColorMatrix in="SourceAlpha" type="matrix" values="0 0 0 0 0 0 0 0 0 0 0 0 0 0 0 0 0 0 127 0" result="hardAlpha"/>
<feOffset dy="4"/>
<feGaussianBlur stdDeviation="2"/>
<feComposite in2="hardAlpha" operator="out"/>
<feColorMatrix type="matrix" values="0 0 0 0 0 0 0 0 0 0 0 0 0 0 0 0 0 0 0.2 0"/>
<feBlend mode="normal" in2="BackgroundImageFix" result="effect1_dropShadow_3573_315"/>
<feBlend mode="normal" in="SourceGraphic" in2="effect1_dropShadow_3573_315" result="shape"/>
</filter>
</defs>
</svg>
