<svg width="1047" height="528" viewBox="0 0 1047 528" fill="none" xmlns="http://www.w3.org/2000/svg">
<rect width="108.665" height="3.36293" transform="matrix(0.772347 0.635201 -0.63273 0.774372 91.2754 134.55)" fill="#A1A1A1" fill-opacity="0.29"/>
<rect width="108.697" height="3.36195" transform="matrix(0.712158 -0.70202 0.699696 0.714441 95.1475 427.307)" fill="#A1A1A1" fill-opacity="0.29"/>
<rect width="108.594" height="3.36513" transform="matrix(-0.955137 0.296166 -0.293671 -0.955907 500.71 252.217)" fill="#A1A1A1" fill-opacity="0.29"/>
<rect width="80.2845" height="3.35973" transform="matrix(-0.552126 0.833761 -0.832099 -0.554628 591.312 149.862)" fill="#A1A1A1" fill-opacity="0.29"/>
<rect width="80.3057" height="3.35884" transform="matrix(-0.757735 0.652563 -0.654622 -0.755956 672.049 53.5391)" fill="#A1A1A1" fill-opacity="0.29"/>
<rect width="80.1101" height="3.36703" transform="matrix(0.986331 0.164778 -0.163737 0.986504 645.785 126.672)" fill="#A1A1A1" fill-opacity="0.29"/>
<rect width="80.1101" height="3.36703" transform="matrix(0.986331 0.164778 -0.163737 0.986504 767.732 146.876)" fill="#A1A1A1" fill-opacity="0.29"/>
<rect width="80.137" height="3.3659" transform="matrix(0.932412 0.361397 -0.359353 0.933202 866.844 172.693)" fill="#A1A1A1" fill-opacity="0.29"/>
<rect width="80.2516" height="3.36111" transform="matrix(0.656079 -0.754692 0.752571 0.658511 672.084 227.646)" fill="#A1A1A1" fill-opacity="0.29"/>
<rect width="80.1943" height="3.36351" transform="matrix(-0.806199 -0.591644 0.589138 -0.808033 760.231 299.183)" fill="#A1A1A1" fill-opacity="0.29"/>
<rect width="80.3562" height="3.35672" transform="matrix(0.177638 -0.984096 0.983893 0.178762 649.708 350.546)" fill="#A1A1A1" fill-opacity="0.29"/>
<rect width="80.1049" height="3.36725" transform="matrix(-0.996426 -0.0844752 0.0839304 -0.996472 647.503 244.549)" fill="#A1A1A1" fill-opacity="0.29"/>
<rect width="80.1718" height="3.36445" transform="matrix(-0.857979 -0.513685 0.511223 -0.859448 423.442 410.888)" fill="#A1A1A1" fill-opacity="0.29"/>
<rect width="80.3263" height="3.35798" transform="matrix(-0.96679 -0.255574 0.253347 -0.967376 583.658 462.778)" fill="#A1A1A1" fill-opacity="0.29"/>
<g filter="url(#filter0_d_3668_60)">
<ellipse cx="275.782" cy="279.824" rx="141.527" ry="141.989" fill="#EDF6FF" fill-opacity="0.88" shape-rendering="crispEdges"/>
</g>
<g filter="url(#filter1_d_3668_60)">
<path d="M131.661 108.734C131.661 142.829 102.859 170.469 67.3305 170.469C31.8017 170.469 3 142.829 3 108.734C3 74.6394 31.8017 47 67.3305 47C102.859 47 131.661 74.6394 131.661 108.734Z" fill="#9881FF" fill-opacity="0.41" shape-rendering="crispEdges"/>
</g>
<g filter="url(#filter2_d_3668_60)">
<path d="M137.661 452.02C137.661 486.115 108.859 513.754 73.3305 513.754C37.8017 513.754 9 486.115 9 452.02C9 417.925 37.8017 390.285 73.3305 390.285C108.859 390.285 137.661 417.925 137.661 452.02Z" fill="#9881FF" fill-opacity="0.41" shape-rendering="crispEdges"/>
</g>
<g filter="url(#filter3_d_3668_60)">
<path d="M1032.33 225.447C1032.33 259.542 1003.53 287.182 968.004 287.182C932.476 287.182 903.674 259.542 903.674 225.447C903.674 191.352 932.476 163.713 968.004 163.713C1003.53 163.713 1032.33 191.352 1032.33 225.447Z" fill="#9881FF" fill-opacity="0.41" shape-rendering="crispEdges"/>
</g>
<g filter="url(#filter4_d_3668_60)">
<path d="M642.644 123.866C642.644 147.733 623.109 167.08 599.011 167.08C574.913 167.08 555.378 147.733 555.378 123.866C555.378 100 574.913 80.6524 599.011 80.6524C623.109 80.6524 642.644 100 642.644 123.866Z" fill="#6747C7" fill-opacity="0.7" shape-rendering="crispEdges"/>
</g>
<g filter="url(#filter5_d_3668_60)">
<path d="M715.484 34.3059C715.484 51.0434 701.709 64.6118 684.717 64.6118C667.725 64.6118 653.95 51.0434 653.95 34.3059C653.95 17.5684 667.725 4 684.717 4C701.709 4 715.484 17.5684 715.484 34.3059Z" fill="#6747C7" fill-opacity="0.7" shape-rendering="crispEdges"/>
</g>
<g filter="url(#filter6_d_3668_60)">
<path d="M710.89 236.111C710.89 259.977 691.355 279.325 667.257 279.325C643.159 279.325 623.624 259.977 623.624 236.111C623.624 212.244 643.159 192.897 667.257 192.897C691.355 192.897 710.89 212.244 710.89 236.111Z" fill="#6747C7" fill-opacity="0.7" shape-rendering="crispEdges"/>
</g>
<path d="M38.304 101.163V99.211H40.96C41.4507 99.211 41.8347 99.067 42.112 98.779C42.3893 98.491 42.528 98.139 42.528 97.723C42.528 97.435 42.464 97.179 42.336 96.955C42.208 96.731 42.0267 96.555 41.792 96.427C41.568 96.299 41.2907 96.235 40.96 96.235H38.304V94.331H40.752C41.168 94.331 41.504 94.2296 41.76 94.027C42.016 93.8136 42.144 93.4936 42.144 93.067C42.144 92.651 42.016 92.3416 41.76 92.139C41.504 91.9256 41.168 91.819 40.752 91.819H38.304V89.867H41.232C41.9573 89.867 42.5707 90.0003 43.072 90.267C43.584 90.5336 43.9733 90.891 44.24 91.339C44.5067 91.787 44.64 92.283 44.64 92.827C44.64 93.5203 44.416 94.107 43.968 94.587C43.52 95.067 42.8587 95.3976 41.984 95.579L42.048 94.731C42.9973 94.9123 43.728 95.2803 44.24 95.835C44.7627 96.3896 45.024 97.0723 45.024 97.883C45.024 98.5016 44.8693 99.0616 44.56 99.563C44.2613 100.054 43.824 100.443 43.248 100.731C42.6827 101.019 42 101.163 41.2 101.163H38.304ZM36.384 101.163V89.867H38.864V101.163H36.384ZM49.866 101.339C49.1513 101.339 48.5167 101.195 47.962 100.907C47.418 100.608 46.9913 100.203 46.682 99.691C46.3727 99.1683 46.218 98.571 46.218 97.899V93.387H48.666V97.867C48.666 98.1336 48.7087 98.363 48.794 98.555C48.89 98.747 49.0287 98.8963 49.21 99.003C49.3913 99.1096 49.61 99.163 49.866 99.163C50.2287 99.163 50.5167 99.051 50.73 98.827C50.9433 98.5923 51.05 98.2723 51.05 97.867V93.387H53.498V97.883C53.498 98.5656 53.3433 99.1683 53.034 99.691C52.7247 100.203 52.298 100.608 51.754 100.907C51.21 101.195 50.5807 101.339 49.866 101.339ZM57.867 101.355C57.4083 101.355 56.955 101.296 56.507 101.179C56.0697 101.062 55.659 100.896 55.275 100.683C54.9017 100.459 54.5817 100.203 54.315 99.915L55.707 98.507C55.963 98.7843 56.267 99.003 56.619 99.163C56.971 99.3123 57.355 99.387 57.771 99.387C58.059 99.387 58.2777 99.3443 58.427 99.259C58.587 99.1736 58.667 99.0563 58.667 98.907C58.667 98.715 58.571 98.571 58.379 98.475C58.1977 98.3683 57.963 98.2776 57.675 98.203C57.387 98.1176 57.083 98.027 56.763 97.931C56.443 97.835 56.139 97.7016 55.851 97.531C55.563 97.3603 55.3283 97.1256 55.147 96.827C54.9657 96.5176 54.875 96.1283 54.875 95.659C54.875 95.1576 55.003 94.7256 55.259 94.363C55.515 93.9896 55.8777 93.6963 56.347 93.483C56.8163 93.2696 57.3657 93.163 57.995 93.163C58.6563 93.163 59.2643 93.2803 59.819 93.515C60.3843 93.739 60.843 94.075 61.195 94.523L59.803 95.931C59.5577 95.643 59.2803 95.4403 58.971 95.323C58.6723 95.2056 58.379 95.147 58.091 95.147C57.8137 95.147 57.6057 95.1896 57.467 95.275C57.3283 95.3496 57.259 95.4616 57.259 95.611C57.259 95.771 57.3497 95.899 57.531 95.995C57.7123 96.091 57.947 96.1763 58.235 96.251C58.523 96.3256 58.827 96.4163 59.147 96.523C59.467 96.6296 59.771 96.7736 60.059 96.955C60.347 97.1363 60.5817 97.3816 60.763 97.691C60.9443 97.9896 61.035 98.3843 61.035 98.875C61.035 99.6323 60.747 100.235 60.171 100.683C59.6057 101.131 58.8377 101.355 57.867 101.355ZM66.1231 101.339C65.3231 101.339 64.5978 101.163 63.9471 100.811C63.2964 100.459 62.7844 99.9736 62.4111 99.355C62.0378 98.7363 61.8511 98.043 61.8511 97.275C61.8511 96.4963 62.0378 95.803 62.4111 95.195C62.7951 94.5763 63.3124 94.091 63.9631 93.739C64.6138 93.387 65.3444 93.211 66.1551 93.211C66.7631 93.211 67.3178 93.3176 67.8191 93.531C68.3311 93.7336 68.7844 94.043 69.1791 94.459L67.6111 96.027C67.4298 95.8243 67.2164 95.675 66.9711 95.579C66.7364 95.483 66.4644 95.435 66.1551 95.435C65.8031 95.435 65.4884 95.515 65.2111 95.675C64.9444 95.8243 64.7311 96.0376 64.5711 96.315C64.4218 96.5816 64.3471 96.8963 64.3471 97.259C64.3471 97.6216 64.4218 97.9416 64.5711 98.219C64.7311 98.4963 64.9498 98.715 65.2271 98.875C65.5044 99.035 65.8138 99.115 66.1551 99.115C66.4751 99.115 66.7578 99.0616 67.0031 98.955C67.2591 98.8376 67.4778 98.6776 67.6591 98.475L69.2111 100.043C68.8058 100.47 68.3471 100.795 67.8351 101.019C67.3231 101.232 66.7524 101.339 66.1231 101.339ZM73.3611 101.323C72.6464 101.323 72.0064 101.147 71.4411 100.795C70.8864 100.443 70.4438 99.963 70.1131 99.355C69.7931 98.747 69.6331 98.0536 69.6331 97.275C69.6331 96.4963 69.7931 95.803 70.1131 95.195C70.4438 94.587 70.8864 94.107 71.4411 93.755C72.0064 93.403 72.6464 93.227 73.3611 93.227C73.8838 93.227 74.3531 93.3283 74.7691 93.531C75.1958 93.7336 75.5424 94.0163 75.8091 94.379C76.0758 94.731 76.2251 95.1363 76.2571 95.595V98.955C76.2251 99.4136 76.0758 99.8243 75.8091 100.187C75.5531 100.539 75.2118 100.816 74.7851 101.019C74.3584 101.222 73.8838 101.323 73.3611 101.323ZM73.8571 99.115C74.3798 99.115 74.8011 98.9443 75.1211 98.603C75.4411 98.251 75.6011 97.8083 75.6011 97.275C75.6011 96.9123 75.5264 96.5923 75.3771 96.315C75.2384 96.0376 75.0358 95.8243 74.7691 95.675C74.5131 95.515 74.2144 95.435 73.8731 95.435C73.5318 95.435 73.2278 95.515 72.9611 95.675C72.7051 95.8243 72.4971 96.0376 72.3371 96.315C72.1878 96.5923 72.1131 96.9123 72.1131 97.275C72.1131 97.627 72.1878 97.9416 72.3371 98.219C72.4864 98.4963 72.6944 98.715 72.9611 98.875C73.2278 99.035 73.5264 99.115 73.8571 99.115ZM75.5051 101.163V99.067L75.8731 97.179L75.5051 95.291V93.387H77.9051V101.163H75.5051ZM87.8116 101.163V96.731C87.8116 96.3256 87.6836 96.0003 87.4276 95.755C87.1823 95.499 86.8676 95.371 86.4836 95.371C86.2169 95.371 85.9823 95.4296 85.7796 95.547C85.5769 95.6536 85.4169 95.8136 85.2996 96.027C85.1823 96.2296 85.1236 96.4643 85.1236 96.731L84.1796 96.267C84.1796 95.659 84.3129 95.1256 84.5796 94.667C84.8463 94.2083 85.2143 93.8563 85.6836 93.611C86.1636 93.355 86.7023 93.227 87.2996 93.227C87.8756 93.227 88.3823 93.3656 88.8196 93.643C89.2676 93.9096 89.6196 94.267 89.8756 94.715C90.1316 95.163 90.2596 95.6536 90.2596 96.187V101.163H87.8116ZM82.6756 101.163V93.387H85.1236V101.163H82.6756ZM95.0799 101.323C94.3652 101.323 93.7252 101.147 93.1599 100.795C92.6052 100.443 92.1625 99.963 91.8319 99.355C91.5119 98.747 91.3519 98.0536 91.3519 97.275C91.3519 96.4963 91.5119 95.803 91.8319 95.195C92.1625 94.587 92.6052 94.107 93.1599 93.755C93.7252 93.403 94.3652 93.227 95.0799 93.227C95.6025 93.227 96.0719 93.3283 96.4879 93.531C96.9145 93.7336 97.2612 94.0163 97.5279 94.379C97.7945 94.731 97.9439 95.1363 97.9759 95.595V98.955C97.9439 99.4136 97.7945 99.8243 97.5279 100.187C97.2719 100.539 96.9305 100.816 96.5039 101.019C96.0772 101.222 95.6025 101.323 95.0799 101.323ZM95.5759 99.115C96.0985 99.115 96.5199 98.9443 96.8399 98.603C97.1599 98.251 97.3199 97.8083 97.3199 97.275C97.3199 96.9123 97.2452 96.5923 97.0959 96.315C96.9572 96.0376 96.7545 95.8243 96.4879 95.675C96.2319 95.515 95.9332 95.435 95.5919 95.435C95.2505 95.435 94.9465 95.515 94.6799 95.675C94.4239 95.8243 94.2159 96.0376 94.0559 96.315C93.9065 96.5923 93.8319 96.9123 93.8319 97.275C93.8319 97.627 93.9065 97.9416 94.0559 98.219C94.2052 98.4963 94.4132 98.715 94.6799 98.875C94.9465 99.035 95.2452 99.115 95.5759 99.115ZM97.2239 101.163V99.067L97.5919 97.179L97.2239 95.291V93.387H99.6239V101.163H97.2239ZM55.1375 121.163L51.5055 109.867H54.0015L56.6575 118.555H55.6815L58.2735 109.867H60.2415L62.8335 118.555H61.8735L64.5135 109.867H66.9935L63.3615 121.163H61.3935L58.7855 112.475H59.7135L57.1055 121.163H55.1375ZM70.9687 121.339C70.1261 121.339 69.3741 121.168 68.7127 120.827C68.0621 120.475 67.5501 119.99 67.1767 119.371C66.8034 118.752 66.6167 118.054 66.6167 117.275C66.6167 116.496 66.7981 115.803 67.1607 115.195C67.5341 114.576 68.0354 114.091 68.6647 113.739C69.2941 113.387 70.0034 113.211 70.7927 113.211C71.5607 113.211 72.2381 113.376 72.8247 113.707C73.4114 114.038 73.8701 114.496 74.2007 115.083C74.5421 115.67 74.7127 116.342 74.7127 117.099C74.7127 117.238 74.7021 117.387 74.6807 117.547C74.6701 117.696 74.6434 117.872 74.6007 118.075L67.8967 118.091V116.411L73.5607 116.395L72.5047 117.099C72.4941 116.651 72.4247 116.283 72.2967 115.995C72.1687 115.696 71.9767 115.472 71.7207 115.323C71.4754 115.163 71.1714 115.083 70.8087 115.083C70.4247 115.083 70.0887 115.174 69.8007 115.355C69.5234 115.526 69.3047 115.771 69.1447 116.091C68.9954 116.411 68.9207 116.8 68.9207 117.259C68.9207 117.718 69.0007 118.112 69.1607 118.443C69.3314 118.763 69.5661 119.014 69.8647 119.195C70.1741 119.366 70.5367 119.451 70.9527 119.451C71.3367 119.451 71.6834 119.387 71.9927 119.259C72.3021 119.12 72.5741 118.918 72.8087 118.651L74.1527 119.995C73.7687 120.443 73.3047 120.779 72.7607 121.003C72.2167 121.227 71.6194 121.339 70.9687 121.339ZM80.3744 121.323C79.8517 121.323 79.3717 121.216 78.9344 121.003C78.497 120.779 78.1397 120.486 77.8624 120.123C77.585 119.75 77.425 119.334 77.3824 118.875V115.595C77.425 115.136 77.585 114.731 77.8624 114.379C78.1397 114.016 78.497 113.734 78.9344 113.531C79.3717 113.328 79.8517 113.227 80.3744 113.227C81.1104 113.227 81.761 113.403 82.3264 113.755C82.9024 114.107 83.3504 114.587 83.6704 115.195C84.001 115.803 84.1664 116.496 84.1664 117.275C84.1664 118.054 84.001 118.747 83.6704 119.355C83.3504 119.963 82.9024 120.443 82.3264 120.795C81.761 121.147 81.1104 121.323 80.3744 121.323ZM75.8944 121.163V109.547H78.3424V115.291L77.9424 117.179L78.3104 119.067V121.163H75.8944ZM79.9424 119.115C80.2837 119.115 80.5824 119.035 80.8384 118.875C81.105 118.715 81.313 118.496 81.4624 118.219C81.6117 117.942 81.6864 117.627 81.6864 117.275C81.6864 116.912 81.6117 116.592 81.4624 116.315C81.313 116.038 81.105 115.824 80.8384 115.675C80.5824 115.515 80.2837 115.435 79.9424 115.435C79.601 115.435 79.297 115.515 79.0304 115.675C78.7637 115.824 78.5557 116.038 78.4064 116.315C78.2677 116.592 78.1984 116.912 78.1984 117.275C78.1984 117.638 78.273 117.958 78.4224 118.235C78.5717 118.512 78.7744 118.731 79.0304 118.891C79.297 119.04 79.601 119.115 79.9424 119.115Z" fill="#2C274B"/>
<path d="M60.9547 456.971C60.0267 456.971 59.2267 456.822 58.5547 456.523C57.8934 456.214 57.2854 455.75 56.7307 455.131L58.3627 453.515C58.7254 453.931 59.1254 454.257 59.5627 454.491C60.0107 454.715 60.528 454.827 61.1147 454.827C61.648 454.827 62.0587 454.731 62.3467 454.539C62.6454 454.347 62.7947 454.081 62.7947 453.739C62.7947 453.43 62.6987 453.179 62.5067 452.987C62.3147 452.795 62.0587 452.63 61.7387 452.491C61.4294 452.353 61.0827 452.219 60.6987 452.091C60.3254 451.963 59.952 451.819 59.5787 451.659C59.2054 451.489 58.8587 451.281 58.5387 451.035C58.2294 450.779 57.9787 450.465 57.7867 450.091C57.5947 449.707 57.4987 449.227 57.4987 448.651C57.4987 447.958 57.664 447.361 57.9947 446.859C58.336 446.358 58.8054 445.979 59.4027 445.723C60 445.457 60.688 445.323 61.4667 445.323C62.256 445.323 62.976 445.462 63.6267 445.739C64.288 446.017 64.832 446.395 65.2587 446.875L63.6267 448.491C63.2854 448.139 62.9387 447.878 62.5867 447.707C62.2454 447.537 61.856 447.451 61.4187 447.451C60.9814 447.451 60.6347 447.537 60.3787 447.707C60.1227 447.867 59.9947 448.102 59.9947 448.411C59.9947 448.699 60.0907 448.934 60.2827 449.115C60.4747 449.286 60.7254 449.435 61.0347 449.563C61.3547 449.691 61.7014 449.819 62.0747 449.947C62.4587 450.075 62.8374 450.225 63.2107 450.395C63.584 450.566 63.9254 450.785 64.2347 451.051C64.5547 451.307 64.8107 451.638 65.0027 452.043C65.1947 452.438 65.2907 452.929 65.2907 453.515C65.2907 454.593 64.9067 455.441 64.1387 456.059C63.3707 456.667 62.3094 456.971 60.9547 456.971ZM65.7147 456.795L70.1947 445.499H72.4667L76.8987 456.795H74.2427L70.8507 447.419H71.7627L68.3227 456.795H65.7147ZM68.2587 454.747V452.699H74.4187V454.747H68.2587ZM79.79 456.795V454.587H82.59C83.2726 454.587 83.87 454.454 84.382 454.187C84.894 453.91 85.2886 453.51 85.566 452.987C85.8433 452.465 85.982 451.846 85.982 451.131C85.982 450.417 85.838 449.803 85.55 449.291C85.2726 448.779 84.878 448.385 84.366 448.107C83.8646 447.83 83.2726 447.691 82.59 447.691H79.71V445.499H82.622C83.4753 445.499 84.2593 445.638 84.974 445.915C85.6993 446.182 86.3286 446.571 86.862 447.083C87.406 447.585 87.822 448.182 88.11 448.875C88.4086 449.558 88.558 450.315 88.558 451.147C88.558 451.969 88.4086 452.726 88.11 453.419C87.822 454.113 87.4113 454.71 86.878 455.211C86.3446 455.713 85.7153 456.102 84.99 456.379C84.2753 456.657 83.4966 456.795 82.654 456.795H79.79ZM78.094 456.795V445.499H80.606V456.795H78.094Z" fill="#2C274B"/>
<path d="M897.228 216.587V214.731H899.612C900.113 214.731 900.497 214.603 900.764 214.347C901.041 214.091 901.18 213.745 901.18 213.307C901.18 212.902 901.046 212.566 900.78 212.299C900.513 212.033 900.129 211.899 899.628 211.899H897.228V209.947H899.916C900.662 209.947 901.318 210.091 901.884 210.379C902.449 210.657 902.892 211.046 903.212 211.547C903.532 212.049 903.692 212.625 903.692 213.275C903.692 213.937 903.532 214.518 903.212 215.019C902.892 215.51 902.444 215.894 901.868 216.171C901.292 216.449 900.614 216.587 899.836 216.587H897.228ZM895.308 221.243V209.947H897.82V221.243H895.308ZM901.452 221.243L897.932 216.379L900.236 215.755L904.428 221.243H901.452ZM908.939 221.419C908.097 221.419 907.345 221.249 906.683 220.907C906.033 220.555 905.521 220.07 905.147 219.451C904.774 218.833 904.587 218.134 904.587 217.355C904.587 216.577 904.769 215.883 905.131 215.275C905.505 214.657 906.006 214.171 906.635 213.819C907.265 213.467 907.974 213.291 908.763 213.291C909.531 213.291 910.209 213.457 910.795 213.787C911.382 214.118 911.841 214.577 912.171 215.163C912.513 215.75 912.683 216.422 912.683 217.179C912.683 217.318 912.673 217.467 912.651 217.627C912.641 217.777 912.614 217.953 912.571 218.155L905.867 218.171V216.491L911.531 216.475L910.475 217.179C910.465 216.731 910.395 216.363 910.267 216.075C910.139 215.777 909.947 215.553 909.691 215.403C909.446 215.243 909.142 215.163 908.779 215.163C908.395 215.163 908.059 215.254 907.771 215.435C907.494 215.606 907.275 215.851 907.115 216.171C906.966 216.491 906.891 216.881 906.891 217.339C906.891 217.798 906.971 218.193 907.131 218.523C907.302 218.843 907.537 219.094 907.835 219.275C908.145 219.446 908.507 219.531 908.923 219.531C909.307 219.531 909.654 219.467 909.963 219.339C910.273 219.201 910.545 218.998 910.779 218.731L912.123 220.075C911.739 220.523 911.275 220.859 910.731 221.083C910.187 221.307 909.59 221.419 908.939 221.419ZM917.625 221.419C916.825 221.419 916.1 221.243 915.449 220.891C914.798 220.539 914.286 220.054 913.913 219.435C913.54 218.817 913.353 218.123 913.353 217.355C913.353 216.577 913.54 215.883 913.913 215.275C914.297 214.657 914.814 214.171 915.465 213.819C916.116 213.467 916.846 213.291 917.657 213.291C918.265 213.291 918.82 213.398 919.321 213.611C919.833 213.814 920.286 214.123 920.681 214.539L919.113 216.107C918.932 215.905 918.718 215.755 918.473 215.659C918.238 215.563 917.966 215.515 917.657 215.515C917.305 215.515 916.99 215.595 916.713 215.755C916.446 215.905 916.233 216.118 916.073 216.395C915.924 216.662 915.849 216.977 915.849 217.339C915.849 217.702 915.924 218.022 916.073 218.299C916.233 218.577 916.452 218.795 916.729 218.955C917.006 219.115 917.316 219.195 917.657 219.195C917.977 219.195 918.26 219.142 918.505 219.035C918.761 218.918 918.98 218.758 919.161 218.555L920.713 220.123C920.308 220.55 919.849 220.875 919.337 221.099C918.825 221.313 918.254 221.419 917.625 221.419ZM923.338 221.419C922.922 221.419 922.576 221.275 922.298 220.987C922.021 220.699 921.882 220.353 921.882 219.947C921.882 219.521 922.021 219.169 922.298 218.891C922.576 218.603 922.922 218.459 923.338 218.459C923.765 218.459 924.112 218.603 924.378 218.891C924.656 219.169 924.794 219.521 924.794 219.947C924.794 220.353 924.656 220.699 924.378 220.987C924.112 221.275 923.765 221.419 923.338 221.419ZM932.958 221.403C932.222 221.403 931.566 221.227 930.99 220.875C930.425 220.523 929.977 220.043 929.646 219.435C929.326 218.827 929.166 218.134 929.166 217.355C929.166 216.577 929.326 215.883 929.646 215.275C929.977 214.667 930.425 214.187 930.99 213.835C931.566 213.483 932.222 213.307 932.958 213.307C933.491 213.307 933.971 213.409 934.398 213.611C934.835 213.814 935.193 214.097 935.47 214.459C935.758 214.811 935.918 215.217 935.95 215.675V218.955C935.918 219.414 935.763 219.83 935.486 220.203C935.209 220.566 934.851 220.859 934.414 221.083C933.977 221.297 933.491 221.403 932.958 221.403ZM933.39 219.195C933.742 219.195 934.046 219.121 934.302 218.971C934.558 218.811 934.761 218.593 934.91 218.315C935.059 218.038 935.134 217.718 935.134 217.355C935.134 216.993 935.059 216.678 934.91 216.411C934.771 216.134 934.569 215.915 934.302 215.755C934.046 215.595 933.747 215.515 933.406 215.515C933.065 215.515 932.761 215.595 932.494 215.755C932.238 215.915 932.03 216.134 931.87 216.411C931.721 216.689 931.646 217.003 931.646 217.355C931.646 217.707 931.721 218.022 931.87 218.299C932.019 218.577 932.227 218.795 932.494 218.955C932.761 219.115 933.059 219.195 933.39 219.195ZM937.438 221.243H935.038V219.147L935.406 217.259L934.99 215.371V209.627H937.438V221.243ZM943.002 221.419C942.159 221.419 941.407 221.249 940.746 220.907C940.095 220.555 939.583 220.07 939.21 219.451C938.836 218.833 938.65 218.134 938.65 217.355C938.65 216.577 938.831 215.883 939.194 215.275C939.567 214.657 940.068 214.171 940.698 213.819C941.327 213.467 942.036 213.291 942.826 213.291C943.594 213.291 944.271 213.457 944.858 213.787C945.444 214.118 945.903 214.577 946.234 215.163C946.575 215.75 946.746 216.422 946.746 217.179C946.746 217.318 946.735 217.467 946.714 217.627C946.703 217.777 946.676 217.953 946.634 218.155L939.93 218.171V216.491L945.594 216.475L944.538 217.179C944.527 216.731 944.458 216.363 944.33 216.075C944.202 215.777 944.01 215.553 943.754 215.403C943.508 215.243 943.204 215.163 942.842 215.163C942.458 215.163 942.122 215.254 941.834 215.435C941.556 215.606 941.338 215.851 941.178 216.171C941.028 216.491 940.954 216.881 940.954 217.339C940.954 217.798 941.034 218.193 941.194 218.523C941.364 218.843 941.599 219.094 941.898 219.275C942.207 219.446 942.57 219.531 942.986 219.531C943.37 219.531 943.716 219.467 944.026 219.339C944.335 219.201 944.607 218.998 944.842 218.731L946.186 220.075C945.802 220.523 945.338 220.859 944.794 221.083C944.25 221.307 943.652 221.419 943.002 221.419ZM953.118 217.131V215.179H955.55C955.86 215.179 956.142 215.115 956.398 214.987C956.654 214.859 956.857 214.673 957.006 214.427C957.156 214.182 957.23 213.883 957.23 213.531C957.23 213.19 957.156 212.897 957.006 212.651C956.857 212.406 956.654 212.219 956.398 212.091C956.142 211.963 955.86 211.899 955.55 211.899H953.118V209.947H955.918C956.633 209.947 957.278 210.091 957.854 210.379C958.43 210.667 958.884 211.083 959.214 211.627C959.556 212.161 959.726 212.795 959.726 213.531C959.726 214.267 959.556 214.907 959.214 215.451C958.884 215.985 958.43 216.401 957.854 216.699C957.278 216.987 956.633 217.131 955.918 217.131H953.118ZM951.198 221.243V209.947H953.71V221.243H951.198ZM963.941 221.403C963.226 221.403 962.586 221.227 962.021 220.875C961.466 220.523 961.024 220.043 960.693 219.435C960.373 218.827 960.213 218.134 960.213 217.355C960.213 216.577 960.373 215.883 960.693 215.275C961.024 214.667 961.466 214.187 962.021 213.835C962.586 213.483 963.226 213.307 963.941 213.307C964.464 213.307 964.933 213.409 965.349 213.611C965.776 213.814 966.122 214.097 966.389 214.459C966.656 214.811 966.805 215.217 966.837 215.675V219.035C966.805 219.494 966.656 219.905 966.389 220.267C966.133 220.619 965.792 220.897 965.365 221.099C964.938 221.302 964.464 221.403 963.941 221.403ZM964.437 219.195C964.96 219.195 965.381 219.025 965.701 218.683C966.021 218.331 966.181 217.889 966.181 217.355C966.181 216.993 966.106 216.673 965.957 216.395C965.818 216.118 965.616 215.905 965.349 215.755C965.093 215.595 964.794 215.515 964.453 215.515C964.112 215.515 963.808 215.595 963.541 215.755C963.285 215.905 963.077 216.118 962.917 216.395C962.768 216.673 962.693 216.993 962.693 217.355C962.693 217.707 962.768 218.022 962.917 218.299C963.066 218.577 963.274 218.795 963.541 218.955C963.808 219.115 964.106 219.195 964.437 219.195ZM966.085 221.243V219.147L966.453 217.259L966.085 215.371V213.467H968.485V221.243H966.085ZM973.521 221.403C972.785 221.403 972.129 221.227 971.553 220.875C970.987 220.523 970.539 220.043 970.209 219.435C969.889 218.827 969.729 218.134 969.729 217.355C969.729 216.577 969.889 215.883 970.209 215.275C970.539 214.667 970.987 214.187 971.553 213.835C972.129 213.483 972.785 213.307 973.521 213.307C974.054 213.307 974.534 213.409 974.961 213.611C975.398 213.814 975.755 214.097 976.033 214.459C976.321 214.811 976.481 215.217 976.513 215.675V218.955C976.481 219.414 976.326 219.83 976.049 220.203C975.771 220.566 975.414 220.859 974.977 221.083C974.539 221.297 974.054 221.403 973.521 221.403ZM973.953 219.195C974.305 219.195 974.609 219.121 974.865 218.971C975.121 218.811 975.323 218.593 975.473 218.315C975.622 218.038 975.697 217.718 975.697 217.355C975.697 216.993 975.622 216.678 975.473 216.411C975.334 216.134 975.131 215.915 974.865 215.755C974.609 215.595 974.31 215.515 973.969 215.515C973.627 215.515 973.323 215.595 973.057 215.755C972.801 215.915 972.593 216.134 972.433 216.411C972.283 216.689 972.209 217.003 972.209 217.355C972.209 217.707 972.283 218.022 972.433 218.299C972.582 218.577 972.79 218.795 973.057 218.955C973.323 219.115 973.622 219.195 973.953 219.195ZM978.001 221.243H975.601V219.147L975.969 217.259L975.553 215.371V209.627H978.001V221.243ZM981.26 221.419C980.844 221.419 980.498 221.275 980.22 220.987C979.943 220.699 979.804 220.353 979.804 219.947C979.804 219.521 979.943 219.169 980.22 218.891C980.498 218.603 980.844 218.459 981.26 218.459C981.687 218.459 982.034 218.603 982.3 218.891C982.578 219.169 982.716 219.521 982.716 219.947C982.716 220.353 982.578 220.699 982.3 220.987C982.034 221.275 981.687 221.419 981.26 221.419ZM991.408 221.419C990.565 221.419 989.813 221.249 989.152 220.907C988.501 220.555 987.989 220.07 987.616 219.451C987.243 218.833 987.056 218.134 987.056 217.355C987.056 216.577 987.237 215.883 987.6 215.275C987.973 214.657 988.475 214.171 989.104 213.819C989.733 213.467 990.443 213.291 991.232 213.291C992 213.291 992.677 213.457 993.264 213.787C993.851 214.118 994.309 214.577 994.64 215.163C994.981 215.75 995.152 216.422 995.152 217.179C995.152 217.318 995.141 217.467 995.12 217.627C995.109 217.777 995.083 217.953 995.04 218.155L988.336 218.171V216.491L994 216.475L992.944 217.179C992.933 216.731 992.864 216.363 992.736 216.075C992.608 215.777 992.416 215.553 992.16 215.403C991.915 215.243 991.611 215.163 991.248 215.163C990.864 215.163 990.528 215.254 990.24 215.435C989.963 215.606 989.744 215.851 989.584 216.171C989.435 216.491 989.36 216.881 989.36 217.339C989.36 217.798 989.44 218.193 989.6 218.523C989.771 218.843 990.005 219.094 990.304 219.275C990.613 219.446 990.976 219.531 991.392 219.531C991.776 219.531 992.123 219.467 992.432 219.339C992.741 219.201 993.013 218.998 993.248 218.731L994.592 220.075C994.208 220.523 993.744 220.859 993.2 221.083C992.656 221.307 992.059 221.419 991.408 221.419ZM1001.52 216.587V214.731H1003.91C1004.41 214.731 1004.79 214.603 1005.06 214.347C1005.34 214.091 1005.48 213.745 1005.48 213.307C1005.48 212.902 1005.34 212.566 1005.08 212.299C1004.81 212.033 1004.43 211.899 1003.92 211.899H1001.52V209.947H1004.21C1004.96 209.947 1005.62 210.091 1006.18 210.379C1006.75 210.657 1007.19 211.046 1007.51 211.547C1007.83 212.049 1007.99 212.625 1007.99 213.275C1007.99 213.937 1007.83 214.518 1007.51 215.019C1007.19 215.51 1006.74 215.894 1006.16 216.171C1005.59 216.449 1004.91 216.587 1004.13 216.587H1001.52ZM999.605 221.243V209.947H1002.12V221.243H999.605ZM1005.75 221.243L1002.23 216.379L1004.53 215.755L1008.72 221.243H1005.75ZM1013.24 221.419C1012.39 221.419 1011.64 221.249 1010.98 220.907C1010.33 220.555 1009.82 220.07 1009.44 219.451C1009.07 218.833 1008.88 218.134 1008.88 217.355C1008.88 216.577 1009.07 215.883 1009.43 215.275C1009.8 214.657 1010.3 214.171 1010.93 213.819C1011.56 213.467 1012.27 213.291 1013.06 213.291C1013.83 213.291 1014.51 213.457 1015.09 213.787C1015.68 214.118 1016.14 214.577 1016.47 215.163C1016.81 215.75 1016.98 216.422 1016.98 217.179C1016.98 217.318 1016.97 217.467 1016.95 217.627C1016.94 217.777 1016.91 217.953 1016.87 218.155L1010.16 218.171V216.491L1015.83 216.475L1014.77 217.179C1014.76 216.731 1014.69 216.363 1014.56 216.075C1014.44 215.777 1014.24 215.553 1013.99 215.403C1013.74 215.243 1013.44 215.163 1013.08 215.163C1012.69 215.163 1012.36 215.254 1012.07 215.435C1011.79 215.606 1011.57 215.851 1011.41 216.171C1011.26 216.491 1011.19 216.881 1011.19 217.339C1011.19 217.798 1011.27 218.193 1011.43 218.523C1011.6 218.843 1011.83 219.094 1012.13 219.275C1012.44 219.446 1012.8 219.531 1013.22 219.531C1013.6 219.531 1013.95 219.467 1014.26 219.339C1014.57 219.201 1014.84 218.998 1015.08 218.731L1016.42 220.075C1016.04 220.523 1015.57 220.859 1015.03 221.083C1014.48 221.307 1013.89 221.419 1013.24 221.419ZM1021.47 221.403C1020.74 221.403 1020.08 221.227 1019.51 220.875C1018.94 220.523 1018.49 220.043 1018.16 219.435C1017.84 218.827 1017.68 218.134 1017.68 217.355C1017.68 216.577 1017.84 215.883 1018.16 215.275C1018.49 214.667 1018.94 214.187 1019.51 213.835C1020.08 213.483 1020.74 213.307 1021.47 213.307C1022.01 213.307 1022.49 213.409 1022.91 213.611C1023.35 213.814 1023.71 214.097 1023.99 214.459C1024.27 214.811 1024.43 215.217 1024.47 215.675V218.955C1024.43 219.414 1024.28 219.83 1024 220.203C1023.72 220.566 1023.37 220.859 1022.93 221.083C1022.49 221.297 1022.01 221.403 1021.47 221.403ZM1021.91 219.195C1022.26 219.195 1022.56 219.121 1022.82 218.971C1023.07 218.811 1023.28 218.593 1023.43 218.315C1023.58 218.038 1023.65 217.718 1023.65 217.355C1023.65 216.993 1023.58 216.678 1023.43 216.411C1023.29 216.134 1023.08 215.915 1022.82 215.755C1022.56 215.595 1022.26 215.515 1021.92 215.515C1021.58 215.515 1021.28 215.595 1021.01 215.755C1020.75 215.915 1020.55 216.134 1020.39 216.411C1020.24 216.689 1020.16 217.003 1020.16 217.355C1020.16 217.707 1020.24 218.022 1020.39 218.299C1020.54 218.577 1020.74 218.795 1021.01 218.955C1021.28 219.115 1021.58 219.195 1021.91 219.195ZM1025.95 221.243H1023.55V219.147L1023.92 217.259L1023.51 215.371V209.627H1025.95V221.243ZM1031.52 221.419C1030.67 221.419 1029.92 221.249 1029.26 220.907C1028.61 220.555 1028.1 220.07 1027.73 219.451C1027.35 218.833 1027.17 218.134 1027.17 217.355C1027.17 216.577 1027.35 215.883 1027.71 215.275C1028.08 214.657 1028.58 214.171 1029.21 213.819C1029.84 213.467 1030.55 213.291 1031.34 213.291C1032.11 213.291 1032.79 213.457 1033.37 213.787C1033.96 214.118 1034.42 214.577 1034.75 215.163C1035.09 215.75 1035.26 216.422 1035.26 217.179C1035.26 217.318 1035.25 217.467 1035.23 217.627C1035.22 217.777 1035.19 217.953 1035.15 218.155L1028.45 218.171V216.491L1034.11 216.475L1033.05 217.179C1033.04 216.731 1032.97 216.363 1032.85 216.075C1032.72 215.777 1032.53 215.553 1032.27 215.403C1032.02 215.243 1031.72 215.163 1031.36 215.163C1030.97 215.163 1030.64 215.254 1030.35 215.435C1030.07 215.606 1029.85 215.851 1029.69 216.171C1029.54 216.491 1029.47 216.881 1029.47 217.339C1029.47 217.798 1029.55 218.193 1029.71 218.523C1029.88 218.843 1030.11 219.094 1030.41 219.275C1030.72 219.446 1031.09 219.531 1031.5 219.531C1031.89 219.531 1032.23 219.467 1032.54 219.339C1032.85 219.201 1033.12 218.998 1033.36 218.731L1034.7 220.075C1034.32 220.523 1033.85 220.859 1033.31 221.083C1032.77 221.307 1032.17 221.419 1031.52 221.419ZM1039.28 221.435C1038.82 221.435 1038.36 221.377 1037.92 221.259C1037.48 221.142 1037.07 220.977 1036.68 220.763C1036.31 220.539 1035.99 220.283 1035.72 219.995L1037.12 218.587C1037.37 218.865 1037.68 219.083 1038.03 219.243C1038.38 219.393 1038.76 219.467 1039.18 219.467C1039.47 219.467 1039.69 219.425 1039.84 219.339C1040 219.254 1040.08 219.137 1040.08 218.987C1040.08 218.795 1039.98 218.651 1039.79 218.555C1039.61 218.449 1039.37 218.358 1039.08 218.283C1038.8 218.198 1038.49 218.107 1038.17 218.011C1037.85 217.915 1037.55 217.782 1037.26 217.611C1036.97 217.441 1036.74 217.206 1036.56 216.907C1036.37 216.598 1036.28 216.209 1036.28 215.739C1036.28 215.238 1036.41 214.806 1036.67 214.443C1036.92 214.07 1037.29 213.777 1037.76 213.563C1038.22 213.35 1038.77 213.243 1039.4 213.243C1040.06 213.243 1040.67 213.361 1041.23 213.595C1041.79 213.819 1042.25 214.155 1042.6 214.603L1041.21 216.011C1040.97 215.723 1040.69 215.521 1040.38 215.403C1040.08 215.286 1039.79 215.227 1039.5 215.227C1039.22 215.227 1039.01 215.27 1038.88 215.355C1038.74 215.43 1038.67 215.542 1038.67 215.691C1038.67 215.851 1038.76 215.979 1038.94 216.075C1039.12 216.171 1039.36 216.257 1039.64 216.331C1039.93 216.406 1040.24 216.497 1040.56 216.603C1040.88 216.71 1041.18 216.854 1041.47 217.035C1041.76 217.217 1041.99 217.462 1042.17 217.771C1042.35 218.07 1042.44 218.465 1042.44 218.955C1042.44 219.713 1042.16 220.315 1041.58 220.763C1041.01 221.211 1040.25 221.435 1039.28 221.435ZM946.987 241.243V229.947H948.747L949.499 232.203V241.243H946.987ZM954.779 241.243L948.123 232.715L948.747 229.947L955.403 238.475L954.779 241.243ZM954.779 241.243L954.107 238.987V229.947H956.619V241.243H954.779ZM962.416 241.419C961.573 241.419 960.821 241.249 960.16 240.907C959.509 240.555 958.997 240.07 958.624 239.451C958.25 238.833 958.064 238.134 958.064 237.355C958.064 236.577 958.245 235.883 958.608 235.275C958.981 234.657 959.482 234.171 960.112 233.819C960.741 233.467 961.45 233.291 962.24 233.291C963.008 233.291 963.685 233.457 964.272 233.787C964.858 234.118 965.317 234.577 965.648 235.163C965.989 235.75 966.16 236.422 966.16 237.179C966.16 237.318 966.149 237.467 966.128 237.627C966.117 237.777 966.09 237.953 966.048 238.155L959.344 238.171V236.491L965.008 236.475L963.952 237.179C963.941 236.731 963.872 236.363 963.744 236.075C963.616 235.777 963.424 235.553 963.168 235.403C962.922 235.243 962.618 235.163 962.256 235.163C961.872 235.163 961.536 235.254 961.248 235.435C960.97 235.606 960.752 235.851 960.592 236.171C960.442 236.491 960.368 236.881 960.368 237.339C960.368 237.798 960.448 238.193 960.608 238.523C960.778 238.843 961.013 239.094 961.312 239.275C961.621 239.446 961.984 239.531 962.4 239.531C962.784 239.531 963.13 239.467 963.44 239.339C963.749 239.201 964.021 238.998 964.256 238.731L965.6 240.075C965.216 240.523 964.752 240.859 964.208 241.083C963.664 241.307 963.066 241.419 962.416 241.419ZM970.797 241.419C970.083 241.419 969.448 241.275 968.893 240.987C968.349 240.689 967.923 240.283 967.613 239.771C967.304 239.249 967.149 238.651 967.149 237.979V233.467H969.597V237.947C969.597 238.214 969.64 238.443 969.725 238.635C969.821 238.827 969.96 238.977 970.141 239.083C970.323 239.19 970.541 239.243 970.797 239.243C971.16 239.243 971.448 239.131 971.661 238.907C971.875 238.673 971.981 238.353 971.981 237.947V233.467H974.429V237.963C974.429 238.646 974.275 239.249 973.965 239.771C973.656 240.283 973.229 240.689 972.685 240.987C972.141 241.275 971.512 241.419 970.797 241.419ZM975.966 241.243V233.467H978.414V241.243H975.966ZM978.414 236.971L977.39 236.171C977.593 235.265 977.934 234.561 978.414 234.059C978.894 233.558 979.561 233.307 980.414 233.307C980.788 233.307 981.113 233.366 981.39 233.483C981.678 233.59 981.929 233.761 982.142 233.995L980.686 235.835C980.58 235.718 980.446 235.627 980.286 235.563C980.126 235.499 979.945 235.467 979.742 235.467C979.337 235.467 979.012 235.595 978.766 235.851C978.532 236.097 978.414 236.47 978.414 236.971ZM985.824 241.403C985.109 241.403 984.469 241.227 983.904 240.875C983.349 240.523 982.906 240.043 982.576 239.435C982.256 238.827 982.096 238.134 982.096 237.355C982.096 236.577 982.256 235.883 982.576 235.275C982.906 234.667 983.349 234.187 983.904 233.835C984.469 233.483 985.109 233.307 985.824 233.307C986.346 233.307 986.816 233.409 987.232 233.611C987.658 233.814 988.005 234.097 988.272 234.459C988.538 234.811 988.688 235.217 988.72 235.675V239.035C988.688 239.494 988.538 239.905 988.272 240.267C988.016 240.619 987.674 240.897 987.248 241.099C986.821 241.302 986.346 241.403 985.824 241.403ZM986.32 239.195C986.842 239.195 987.264 239.025 987.584 238.683C987.904 238.331 988.064 237.889 988.064 237.355C988.064 236.993 987.989 236.673 987.84 236.395C987.701 236.118 987.498 235.905 987.232 235.755C986.976 235.595 986.677 235.515 986.336 235.515C985.994 235.515 985.69 235.595 985.424 235.755C985.168 235.905 984.96 236.118 984.8 236.395C984.65 236.673 984.576 236.993 984.576 237.355C984.576 237.707 984.65 238.022 984.8 238.299C984.949 238.577 985.157 238.795 985.424 238.955C985.69 239.115 985.989 239.195 986.32 239.195ZM987.968 241.243V239.147L988.336 237.259L987.968 235.371V233.467H990.368V241.243H987.968Z" fill="#2C274B"/>
<g filter="url(#filter7_d_3668_60)">
<path d="M533.661 450.734C533.661 484.829 504.859 512.469 469.33 512.469C433.802 512.469 405 484.829 405 450.734C405 416.639 433.802 389 469.33 389C504.859 389 533.661 416.639 533.661 450.734Z" fill="#6747C7" fill-opacity="0.7" shape-rendering="crispEdges"/>
</g>
<path d="M460.061 455.51V444.374H462.573V455.51H460.061ZM456.525 446.406V444.214H466.109V446.406H456.525ZM472.278 455.686C471.436 455.686 470.652 455.542 469.926 455.254C469.212 454.955 468.582 454.539 468.038 454.006C467.505 453.473 467.089 452.854 466.79 452.15C466.492 451.435 466.342 450.667 466.342 449.846C466.342 449.025 466.492 448.262 466.79 447.558C467.089 446.843 467.505 446.225 468.038 445.702C468.572 445.179 469.196 444.774 469.91 444.486C470.636 444.187 471.42 444.038 472.262 444.038C473.158 444.038 473.953 444.182 474.646 444.47C475.35 444.758 475.964 445.153 476.486 445.654L474.806 447.35C474.508 447.03 474.145 446.779 473.718 446.598C473.302 446.417 472.817 446.326 472.262 446.326C471.772 446.326 471.318 446.411 470.902 446.582C470.497 446.742 470.145 446.977 469.846 447.286C469.558 447.595 469.329 447.969 469.158 448.406C468.998 448.843 468.918 449.323 468.918 449.846C468.918 450.379 468.998 450.865 469.158 451.302C469.329 451.739 469.558 452.113 469.846 452.422C470.145 452.731 470.497 452.971 470.902 453.142C471.318 453.313 471.772 453.398 472.262 453.398C472.838 453.398 473.34 453.307 473.766 453.126C474.193 452.945 474.561 452.694 474.87 452.374L476.566 454.07C476.022 454.571 475.398 454.966 474.694 455.254C474.001 455.542 473.196 455.686 472.278 455.686Z" fill="#2C274B"/>
<path d="M581.607 129.379C580.765 129.379 579.981 129.235 579.255 128.947C578.541 128.649 577.911 128.233 577.367 127.699C576.834 127.166 576.418 126.547 576.119 125.843C575.821 125.129 575.671 124.361 575.671 123.539C575.671 122.718 575.821 121.955 576.119 121.251C576.418 120.537 576.834 119.918 577.367 119.395C577.901 118.873 578.525 118.467 579.239 118.179C579.965 117.881 580.749 117.731 581.591 117.731C582.487 117.731 583.282 117.875 583.975 118.163C584.679 118.451 585.293 118.846 585.815 119.347L584.135 121.043C583.837 120.723 583.474 120.473 583.047 120.291C582.631 120.11 582.146 120.019 581.591 120.019C581.101 120.019 580.647 120.105 580.231 120.275C579.826 120.435 579.474 120.67 579.175 120.979C578.887 121.289 578.658 121.662 578.487 122.099C578.327 122.537 578.247 123.017 578.247 123.539C578.247 124.073 578.327 124.558 578.487 124.995C578.658 125.433 578.887 125.806 579.175 126.115C579.474 126.425 579.826 126.665 580.231 126.835C580.647 127.006 581.101 127.091 581.591 127.091C582.167 127.091 582.669 127.001 583.095 126.819C583.522 126.638 583.89 126.387 584.199 126.067L585.895 127.763C585.351 128.265 584.727 128.659 584.023 128.947C583.33 129.235 582.525 129.379 581.607 129.379ZM586.149 129.203L590.629 117.907H592.901L597.333 129.203H594.677L591.285 119.827H592.197L588.757 129.203H586.149ZM588.693 127.155V125.107H594.853V127.155H588.693ZM598.529 129.203V117.907H601.041V129.203H598.529ZM600.465 129.203V126.995H606.049V129.203H600.465ZM612.232 129.379C611.39 129.379 610.606 129.235 609.88 128.947C609.166 128.649 608.536 128.233 607.992 127.699C607.459 127.166 607.043 126.547 606.744 125.843C606.446 125.129 606.296 124.361 606.296 123.539C606.296 122.718 606.446 121.955 606.744 121.251C607.043 120.537 607.459 119.918 607.992 119.395C608.526 118.873 609.15 118.467 609.864 118.179C610.59 117.881 611.374 117.731 612.216 117.731C613.112 117.731 613.907 117.875 614.6 118.163C615.304 118.451 615.918 118.846 616.44 119.347L614.76 121.043C614.462 120.723 614.099 120.473 613.672 120.291C613.256 120.11 612.771 120.019 612.216 120.019C611.726 120.019 611.272 120.105 610.856 120.275C610.451 120.435 610.099 120.67 609.8 120.979C609.512 121.289 609.283 121.662 609.112 122.099C608.952 122.537 608.872 123.017 608.872 123.539C608.872 124.073 608.952 124.558 609.112 124.995C609.283 125.433 609.512 125.806 609.8 126.115C610.099 126.425 610.451 126.665 610.856 126.835C611.272 127.006 611.726 127.091 612.216 127.091C612.792 127.091 613.294 127.001 613.72 126.819C614.147 126.638 614.515 126.387 614.824 126.067L616.52 127.763C615.976 128.265 615.352 128.659 614.648 128.947C613.955 129.235 613.15 129.379 612.232 129.379ZM619.312 129.203V117.907H621.808V129.203H619.312ZM617.136 120.035V117.907H621.648V120.035H617.136Z" fill="#2C274B"/>
<path d="M666.381 39.2575C665.538 39.2575 664.754 39.1135 664.029 38.8255C663.314 38.5269 662.685 38.1109 662.141 37.5775C661.607 37.0442 661.191 36.4255 660.893 35.7215C660.594 35.0069 660.445 34.2389 660.445 33.4175C660.445 32.5962 660.594 31.8335 660.893 31.1295C661.191 30.4149 661.607 29.7962 662.141 29.2735C662.674 28.7509 663.298 28.3455 664.013 28.0575C664.738 27.7589 665.522 27.6095 666.365 27.6095C667.261 27.6095 668.055 27.7535 668.749 28.0415C669.453 28.3295 670.066 28.7242 670.589 29.2255L668.909 30.9215C668.61 30.6015 668.247 30.3509 667.821 30.1695C667.405 29.9882 666.919 29.8975 666.365 29.8975C665.874 29.8975 665.421 29.9829 665.005 30.1535C664.599 30.3135 664.247 30.5482 663.949 30.8575C663.661 31.1669 663.431 31.5402 663.261 31.9775C663.101 32.4149 663.021 32.8949 663.021 33.4175C663.021 33.9509 663.101 34.4362 663.261 34.8735C663.431 35.3109 663.661 35.6842 663.949 35.9935C664.247 36.3029 664.599 36.5429 665.005 36.7135C665.421 36.8842 665.874 36.9695 666.365 36.9695C666.941 36.9695 667.442 36.8789 667.869 36.6975C668.295 36.5162 668.663 36.2655 668.973 35.9455L670.669 37.6415C670.125 38.1429 669.501 38.5375 668.797 38.8255C668.103 39.1135 667.298 39.2575 666.381 39.2575ZM670.923 39.0815L675.403 27.7855H677.675L682.107 39.0815H679.451L676.059 29.7055H676.971L673.531 39.0815H670.923ZM673.467 37.0335V34.9855H679.627V37.0335H673.467ZM683.302 39.0815V27.7855H685.814V39.0815H683.302ZM685.238 39.0815V36.8735H690.822V39.0815H685.238ZM697.006 39.2575C696.163 39.2575 695.379 39.1135 694.654 38.8255C693.939 38.5269 693.31 38.1109 692.766 37.5775C692.232 37.0442 691.816 36.4255 691.518 35.7215C691.219 35.0069 691.07 34.2389 691.07 33.4175C691.07 32.5962 691.219 31.8335 691.518 31.1295C691.816 30.4149 692.232 29.7962 692.766 29.2735C693.299 28.7509 693.923 28.3455 694.638 28.0575C695.363 27.7589 696.147 27.6095 696.99 27.6095C697.886 27.6095 698.68 27.7535 699.374 28.0415C700.078 28.3295 700.691 28.7242 701.214 29.2255L699.534 30.9215C699.235 30.6015 698.872 30.3509 698.446 30.1695C698.03 29.9882 697.544 29.8975 696.99 29.8975C696.499 29.8975 696.046 29.9829 695.63 30.1535C695.224 30.3135 694.872 30.5482 694.574 30.8575C694.286 31.1669 694.056 31.5402 693.886 31.9775C693.726 32.4149 693.646 32.8949 693.646 33.4175C693.646 33.9509 693.726 34.4362 693.886 34.8735C694.056 35.3109 694.286 35.6842 694.574 35.9935C694.872 36.3029 695.224 36.5429 695.63 36.7135C696.046 36.8842 696.499 36.9695 696.99 36.9695C697.566 36.9695 698.067 36.8789 698.494 36.6975C698.92 36.5162 699.288 36.2655 699.598 35.9455L701.294 37.6415C700.75 38.1429 700.126 38.5375 699.422 38.8255C698.728 39.1135 697.923 39.2575 697.006 39.2575ZM701.973 37.6735L706.309 33.1935C706.576 32.9269 706.789 32.6815 706.949 32.4575C707.109 32.2335 707.226 32.0255 707.301 31.8335C707.376 31.6309 707.413 31.4282 707.413 31.2255C707.413 30.7882 707.269 30.4469 706.981 30.2015C706.704 29.9455 706.336 29.8175 705.877 29.8175C705.429 29.8175 705.024 29.9402 704.661 30.1855C704.309 30.4202 703.968 30.8095 703.637 31.3535L701.957 29.8975C702.405 29.1402 702.976 28.5695 703.669 28.1855C704.362 27.8015 705.157 27.6095 706.053 27.6095C706.832 27.6095 707.504 27.7535 708.069 28.0415C708.645 28.3295 709.088 28.7402 709.397 29.2735C709.717 29.8069 709.877 30.4309 709.877 31.1455C709.877 31.5935 709.818 32.0095 709.701 32.3935C709.584 32.7669 709.392 33.1402 709.125 33.5135C708.869 33.8762 708.522 34.2762 708.085 34.7135L705.077 37.7055L701.973 37.6735ZM701.973 39.0815V37.6735L704.101 36.9375H710.101V39.0815H701.973Z" fill="#2C274B"/>
<g filter="url(#filter8_d_3668_60)">
<path d="M800.744 299.529C800.744 318.126 785.467 333.202 766.621 333.202C747.775 333.202 732.498 318.126 732.498 299.529C732.498 280.931 747.775 265.855 766.621 265.855C785.467 265.855 800.744 280.931 800.744 299.529Z" fill="#6747C7" fill-opacity="0.7" shape-rendering="crispEdges"/>
</g>
<path d="M739.628 304.304V293.008H742.14V304.304H739.628ZM741.564 304.304V302.096H747.148V304.304H741.564ZM748.597 304.304V293.008H751.109V304.304H748.597ZM753.284 304.304V293.008H755.044L755.796 295.264V304.304H753.284ZM761.076 304.304L754.42 295.776L755.044 293.008L761.7 301.536L761.076 304.304ZM761.076 304.304L760.404 302.048V293.008H762.916V304.304H761.076ZM765.097 304.304V293.008H767.609V304.304H765.097ZM767.017 304.304V302.128H773.209V304.304H767.017ZM767.017 299.584V297.488H772.649V299.584H767.017ZM767.017 295.168V293.008H773.129V295.168H767.017ZM774.093 304.304L778.573 293.008H780.845L785.277 304.304H782.621L779.229 294.928H780.141L776.701 304.304H774.093ZM776.637 302.256V300.208H782.797V302.256H776.637ZM788.392 299.648V297.792H790.776C791.277 297.792 791.661 297.664 791.928 297.408C792.205 297.152 792.344 296.805 792.344 296.368C792.344 295.963 792.211 295.627 791.944 295.36C791.677 295.093 791.293 294.96 790.792 294.96H788.392V293.008H791.08C791.827 293.008 792.483 293.152 793.048 293.44C793.613 293.717 794.056 294.107 794.376 294.608C794.696 295.109 794.856 295.685 794.856 296.336C794.856 296.997 794.696 297.579 794.376 298.08C794.056 298.571 793.608 298.955 793.032 299.232C792.456 299.509 791.779 299.648 791 299.648H788.392ZM786.472 304.304V293.008H788.984V304.304H786.472ZM792.616 304.304L789.096 299.44L791.4 298.816L795.592 304.304H792.616Z" fill="#2C274B"/>
<g filter="url(#filter9_d_3668_60)">
<path d="M678.796 362.385C678.796 380.982 663.519 396.058 644.673 396.058C625.827 396.058 610.55 380.982 610.55 362.385C610.55 343.788 625.827 328.712 644.673 328.712C663.519 328.712 678.796 343.788 678.796 362.385Z" fill="#6747C7" fill-opacity="0.7" shape-rendering="crispEdges"/>
</g>
<path d="M629.344 367.161V355.865H631.856V367.161H629.344ZM631.28 367.161V364.953H636.864V367.161H631.28ZM643.08 367.353C642.226 367.353 641.437 367.203 640.712 366.905C639.997 366.606 639.368 366.19 638.824 365.657C638.28 365.123 637.858 364.505 637.56 363.801C637.261 363.086 637.112 362.318 637.112 361.497C637.112 360.665 637.261 359.897 637.56 359.193C637.858 358.489 638.274 357.875 638.808 357.353C639.341 356.819 639.965 356.409 640.68 356.121C641.405 355.822 642.194 355.673 643.048 355.673C643.89 355.673 644.669 355.822 645.384 356.121C646.109 356.409 646.738 356.819 647.272 357.353C647.816 357.875 648.237 358.494 648.536 359.209C648.834 359.913 648.984 360.681 648.984 361.513C648.984 362.334 648.834 363.102 648.536 363.817C648.237 364.521 647.821 365.139 647.288 365.673C646.754 366.195 646.125 366.606 645.4 366.905C644.685 367.203 643.912 367.353 643.08 367.353ZM643.048 365.065C643.72 365.065 644.306 364.915 644.808 364.617C645.32 364.318 645.714 363.902 645.992 363.369C646.269 362.825 646.408 362.201 646.408 361.497C646.408 360.963 646.328 360.483 646.168 360.057C646.008 359.619 645.778 359.246 645.48 358.937C645.181 358.617 644.824 358.377 644.408 358.217C644.002 358.046 643.549 357.961 643.048 357.961C642.376 357.961 641.784 358.11 641.272 358.409C640.77 358.697 640.381 359.107 640.104 359.641C639.826 360.163 639.688 360.782 639.688 361.497C639.688 362.03 639.768 362.515 639.928 362.953C640.088 363.39 640.312 363.769 640.6 364.089C640.898 364.398 641.256 364.638 641.672 364.809C642.088 364.979 642.546 365.065 643.048 365.065ZM656.063 367.337C655.241 367.337 654.468 367.187 653.743 366.889C653.028 366.59 652.404 366.179 651.871 365.657C651.337 365.123 650.916 364.505 650.607 363.801C650.308 363.086 650.159 362.318 650.159 361.497C650.159 360.675 650.313 359.913 650.623 359.209C650.932 358.505 651.359 357.891 651.903 357.369C652.457 356.835 653.103 356.425 653.839 356.137C654.575 355.838 655.364 355.689 656.207 355.689C657.177 355.689 658.057 355.865 658.847 356.217C659.647 356.569 660.308 357.054 660.831 357.673L659.119 359.385C658.756 358.915 658.329 358.563 657.839 358.329C657.348 358.094 656.793 357.977 656.175 357.977C655.513 357.977 654.921 358.126 654.399 358.425C653.876 358.713 653.465 359.123 653.167 359.657C652.879 360.179 652.735 360.793 652.735 361.497C652.735 362.201 652.879 362.819 653.167 363.353C653.455 363.886 653.849 364.302 654.351 364.601C654.852 364.899 655.428 365.049 656.079 365.049C656.74 365.049 657.3 364.926 657.759 364.681C658.228 364.425 658.585 364.062 658.831 363.593C659.087 363.113 659.215 362.531 659.215 361.849L660.879 362.969L655.839 362.889V360.761H661.775V361.129C661.775 362.483 661.529 363.625 661.039 364.553C660.559 365.47 659.887 366.163 659.023 366.633C658.169 367.102 657.183 367.337 656.063 367.337Z" fill="#2C274B"/>
<g filter="url(#filter10_d_3668_60)">
<path d="M771.656 141.264C771.656 159.861 756.379 174.937 737.533 174.937C718.688 174.937 703.41 159.861 703.41 141.264C703.41 122.667 718.688 107.591 737.533 107.591C756.379 107.591 771.656 122.667 771.656 141.264Z" fill="#6747C7" fill-opacity="0.7" shape-rendering="crispEdges"/>
</g>
<path d="M719.484 141.928V139.976H721.916C722.225 139.976 722.508 139.912 722.764 139.784C723.02 139.656 723.222 139.469 723.372 139.224C723.521 138.979 723.596 138.68 723.596 138.328C723.596 137.987 723.521 137.693 723.372 137.448C723.222 137.203 723.02 137.016 722.764 136.888C722.508 136.76 722.225 136.696 721.916 136.696H719.484V134.744H722.284C722.998 134.744 723.644 134.888 724.22 135.176C724.796 135.464 725.249 135.88 725.58 136.424C725.921 136.957 726.092 137.592 726.092 138.328C726.092 139.064 725.921 139.704 725.58 140.248C725.249 140.781 724.796 141.197 724.22 141.496C723.644 141.784 722.998 141.928 722.284 141.928H719.484ZM717.564 146.04V134.744H720.076V146.04H717.564ZM729.421 141.384V139.528H731.805C732.307 139.528 732.691 139.4 732.957 139.144C733.235 138.888 733.373 138.541 733.373 138.104C733.373 137.699 733.24 137.363 732.973 137.096C732.707 136.829 732.323 136.696 731.821 136.696H729.421V134.744H732.109C732.856 134.744 733.512 134.888 734.077 135.176C734.643 135.453 735.085 135.843 735.405 136.344C735.725 136.845 735.885 137.421 735.885 138.072C735.885 138.733 735.725 139.315 735.405 139.816C735.085 140.307 734.637 140.691 734.061 140.968C733.485 141.245 732.808 141.384 732.029 141.384H729.421ZM727.501 146.04V134.744H730.013V146.04H727.501ZM733.645 146.04L730.125 141.176L732.429 140.552L736.621 146.04H733.645ZM743.049 146.232C742.196 146.232 741.407 146.083 740.681 145.784C739.967 145.485 739.337 145.069 738.793 144.536C738.249 144.003 737.828 143.384 737.529 142.68C737.231 141.965 737.081 141.197 737.081 140.376C737.081 139.544 737.231 138.776 737.529 138.072C737.828 137.368 738.244 136.755 738.777 136.232C739.311 135.699 739.935 135.288 740.649 135C741.375 134.701 742.164 134.552 743.017 134.552C743.86 134.552 744.639 134.701 745.353 135C746.079 135.288 746.708 135.699 747.241 136.232C747.785 136.755 748.207 137.373 748.505 138.088C748.804 138.792 748.953 139.56 748.953 140.392C748.953 141.213 748.804 141.981 748.505 142.696C748.207 143.4 747.791 144.019 747.257 144.552C746.724 145.075 746.095 145.485 745.369 145.784C744.655 146.083 743.881 146.232 743.049 146.232ZM743.017 143.944C743.689 143.944 744.276 143.795 744.777 143.496C745.289 143.197 745.684 142.781 745.961 142.248C746.239 141.704 746.377 141.08 746.377 140.376C746.377 139.843 746.297 139.363 746.137 138.936C745.977 138.499 745.748 138.125 745.449 137.816C745.151 137.496 744.793 137.256 744.377 137.096C743.972 136.925 743.519 136.84 743.017 136.84C742.345 136.84 741.753 136.989 741.241 137.288C740.74 137.576 740.351 137.987 740.073 138.52C739.796 139.043 739.657 139.661 739.657 140.376C739.657 140.909 739.737 141.395 739.897 141.832C740.057 142.269 740.281 142.648 740.569 142.968C740.868 143.277 741.225 143.517 741.641 143.688C742.057 143.859 742.516 143.944 743.017 143.944ZM752.468 146.04V144.088H755.124C755.615 144.088 755.999 143.944 756.276 143.656C756.553 143.368 756.692 143.016 756.692 142.6C756.692 142.312 756.628 142.056 756.5 141.832C756.372 141.608 756.191 141.432 755.956 141.304C755.732 141.176 755.455 141.112 755.124 141.112H752.468V139.208H754.916C755.332 139.208 755.668 139.107 755.924 138.904C756.18 138.691 756.308 138.371 756.308 137.944C756.308 137.528 756.18 137.219 755.924 137.016C755.668 136.803 755.332 136.696 754.916 136.696H752.468V134.744H755.396C756.121 134.744 756.735 134.877 757.236 135.144C757.748 135.411 758.137 135.768 758.404 136.216C758.671 136.664 758.804 137.16 758.804 137.704C758.804 138.397 758.58 138.984 758.132 139.464C757.684 139.944 757.023 140.275 756.148 140.456L756.212 139.608C757.161 139.789 757.892 140.157 758.404 140.712C758.927 141.267 759.188 141.949 759.188 142.76C759.188 143.379 759.033 143.939 758.724 144.44C758.425 144.931 757.988 145.32 757.412 145.608C756.847 145.896 756.164 146.04 755.364 146.04H752.468ZM750.548 146.04V134.744H753.028V146.04H750.548Z" fill="#2C274B"/>
<g filter="url(#filter11_d_3668_60)">
<path d="M874.585 164.836C874.585 183.433 859.308 198.509 840.462 198.509C821.616 198.509 806.339 183.433 806.339 164.836C806.339 146.238 821.616 131.162 840.462 131.162C859.308 131.162 874.585 146.238 874.585 164.836Z" fill="#6747C7" fill-opacity="0.7" shape-rendering="crispEdges"/>
</g>
<path d="M818.219 169.611V158.315H820.731V169.611H818.219ZM820.139 169.611V167.435H826.331V169.611H820.139ZM820.139 164.891V162.795H825.771V164.891H820.139ZM820.139 160.475V158.315H826.251V160.475H820.139ZM831.173 169.787C830.245 169.787 829.445 169.638 828.773 169.339C828.112 169.03 827.504 168.566 826.949 167.947L828.581 166.331C828.944 166.747 829.344 167.072 829.781 167.307C830.229 167.531 830.747 167.643 831.333 167.643C831.867 167.643 832.277 167.547 832.565 167.355C832.864 167.163 833.013 166.896 833.013 166.555C833.013 166.246 832.917 165.995 832.725 165.803C832.533 165.611 832.277 165.446 831.957 165.307C831.648 165.168 831.301 165.035 830.917 164.907C830.544 164.779 830.171 164.635 829.797 164.475C829.424 164.304 829.077 164.096 828.757 163.851C828.448 163.595 828.197 163.28 828.005 162.907C827.813 162.523 827.717 162.043 827.717 161.467C827.717 160.774 827.883 160.176 828.213 159.675C828.555 159.174 829.024 158.795 829.621 158.539C830.219 158.272 830.907 158.139 831.685 158.139C832.475 158.139 833.195 158.278 833.845 158.555C834.507 158.832 835.051 159.211 835.477 159.691L833.845 161.307C833.504 160.955 833.157 160.694 832.805 160.523C832.464 160.352 832.075 160.267 831.637 160.267C831.2 160.267 830.853 160.352 830.597 160.523C830.341 160.683 830.213 160.918 830.213 161.227C830.213 161.515 830.309 161.75 830.501 161.931C830.693 162.102 830.944 162.251 831.253 162.379C831.573 162.507 831.92 162.635 832.293 162.763C832.677 162.891 833.056 163.04 833.429 163.211C833.803 163.382 834.144 163.6 834.453 163.867C834.773 164.123 835.029 164.454 835.221 164.859C835.413 165.254 835.509 165.744 835.509 166.331C835.509 167.408 835.125 168.256 834.357 168.875C833.589 169.483 832.528 169.787 831.173 169.787ZM839.456 169.611V158.475H841.968V169.611H839.456ZM835.92 160.507V158.315H845.504V160.507H835.92ZM844.668 169.611L849.148 158.315H851.42L855.852 169.611H853.196L849.804 160.235H850.716L847.276 169.611H844.668ZM847.212 167.563V165.515H853.372V167.563H847.212ZM858.549 169.611V158.475H861.061V169.611H858.549ZM855.013 160.507V158.315H864.597V160.507H855.013Z" fill="#2C274B"/>
<path d="M818.219 169.611V158.315H820.731V169.611H818.219ZM820.139 169.611V167.435H826.331V169.611H820.139ZM820.139 164.891V162.795H825.771V164.891H820.139ZM820.139 160.475V158.315H826.251V160.475H820.139ZM831.173 169.787C830.245 169.787 829.445 169.638 828.773 169.339C828.112 169.03 827.504 168.566 826.949 167.947L828.581 166.331C828.944 166.747 829.344 167.072 829.781 167.307C830.229 167.531 830.747 167.643 831.333 167.643C831.867 167.643 832.277 167.547 832.565 167.355C832.864 167.163 833.013 166.896 833.013 166.555C833.013 166.246 832.917 165.995 832.725 165.803C832.533 165.611 832.277 165.446 831.957 165.307C831.648 165.168 831.301 165.035 830.917 164.907C830.544 164.779 830.171 164.635 829.797 164.475C829.424 164.304 829.077 164.096 828.757 163.851C828.448 163.595 828.197 163.28 828.005 162.907C827.813 162.523 827.717 162.043 827.717 161.467C827.717 160.774 827.883 160.176 828.213 159.675C828.555 159.174 829.024 158.795 829.621 158.539C830.219 158.272 830.907 158.139 831.685 158.139C832.475 158.139 833.195 158.278 833.845 158.555C834.507 158.832 835.051 159.211 835.477 159.691L833.845 161.307C833.504 160.955 833.157 160.694 832.805 160.523C832.464 160.352 832.075 160.267 831.637 160.267C831.2 160.267 830.853 160.352 830.597 160.523C830.341 160.683 830.213 160.918 830.213 161.227C830.213 161.515 830.309 161.75 830.501 161.931C830.693 162.102 830.944 162.251 831.253 162.379C831.573 162.507 831.92 162.635 832.293 162.763C832.677 162.891 833.056 163.04 833.429 163.211C833.803 163.382 834.144 163.6 834.453 163.867C834.773 164.123 835.029 164.454 835.221 164.859C835.413 165.254 835.509 165.744 835.509 166.331C835.509 167.408 835.125 168.256 834.357 168.875C833.589 169.483 832.528 169.787 831.173 169.787ZM839.456 169.611V158.475H841.968V169.611H839.456ZM835.92 160.507V158.315H845.504V160.507H835.92ZM844.668 169.611L849.148 158.315H851.42L855.852 169.611H853.196L849.804 160.235H850.716L847.276 169.611H844.668ZM847.212 167.563V165.515H853.372V167.563H847.212ZM858.549 169.611V158.475H861.061V169.611H858.549ZM855.013 160.507V158.315H864.597V160.507H855.013Z" fill="#2C274B"/>
<path d="M641.439 241.447V230.151H643.951V241.447H641.439ZM643.359 237.015V234.855H649.007V237.015H643.359ZM643.359 232.311V230.151H649.263V232.311H643.359ZM650.876 241.447V230.151H652.668L657.116 237.079H656.204L660.636 230.151H662.444V241.447H659.932V234.391L660.38 234.503L657.484 239.015H655.82L652.94 234.503L653.372 234.391V241.447H650.876ZM669.971 241.623C669.128 241.623 668.344 241.479 667.619 241.191C666.904 240.893 666.275 240.477 665.731 239.943C665.197 239.41 664.781 238.791 664.483 238.087C664.184 237.373 664.035 236.605 664.035 235.783C664.035 234.962 664.184 234.199 664.483 233.495C664.781 232.781 665.197 232.162 665.731 231.639C666.264 231.117 666.888 230.711 667.603 230.423C668.328 230.125 669.112 229.975 669.955 229.975C670.851 229.975 671.645 230.119 672.339 230.407C673.043 230.695 673.656 231.09 674.179 231.591L672.499 233.287C672.2 232.967 671.837 232.717 671.411 232.535C670.995 232.354 670.509 232.263 669.955 232.263C669.464 232.263 669.011 232.349 668.595 232.519C668.189 232.679 667.837 232.914 667.539 233.223C667.251 233.533 667.021 233.906 666.851 234.343C666.691 234.781 666.611 235.261 666.611 235.783C666.611 236.317 666.691 236.802 666.851 237.239C667.021 237.677 667.251 238.05 667.539 238.359C667.837 238.669 668.189 238.909 668.595 239.079C669.011 239.25 669.464 239.335 669.955 239.335C670.531 239.335 671.032 239.245 671.459 239.063C671.885 238.882 672.253 238.631 672.563 238.311L674.259 240.007C673.715 240.509 673.091 240.903 672.387 241.191C671.693 241.479 670.888 241.623 669.971 241.623ZM680.549 241.623C679.706 241.623 678.922 241.479 678.197 241.191C677.482 240.893 676.853 240.477 676.309 239.943C675.775 239.41 675.359 238.791 675.061 238.087C674.762 237.373 674.613 236.605 674.613 235.783C674.613 234.962 674.762 234.199 675.061 233.495C675.359 232.781 675.775 232.162 676.309 231.639C676.842 231.117 677.466 230.711 678.181 230.423C678.906 230.125 679.69 229.975 680.533 229.975C681.429 229.975 682.223 230.119 682.917 230.407C683.621 230.695 684.234 231.09 684.757 231.591L683.077 233.287C682.778 232.967 682.415 232.717 681.989 232.535C681.573 232.354 681.087 232.263 680.533 232.263C680.042 232.263 679.589 232.349 679.173 232.519C678.767 232.679 678.415 232.914 678.117 233.223C677.829 233.533 677.599 233.906 677.429 234.343C677.269 234.781 677.189 235.261 677.189 235.783C677.189 236.317 677.269 236.802 677.429 237.239C677.599 237.677 677.829 238.05 678.117 238.359C678.415 238.669 678.767 238.909 679.173 239.079C679.589 239.25 680.042 239.335 680.533 239.335C681.109 239.335 681.61 239.245 682.037 239.063C682.463 238.882 682.831 238.631 683.141 238.311L684.837 240.007C684.293 240.509 683.669 240.903 682.965 241.191C682.271 241.479 681.466 241.623 680.549 241.623ZM685.516 240.039L689.852 235.559C690.119 235.293 690.332 235.047 690.492 234.823C690.652 234.599 690.769 234.391 690.844 234.199C690.919 233.997 690.956 233.794 690.956 233.591C690.956 233.154 690.812 232.813 690.524 232.567C690.247 232.311 689.879 232.183 689.42 232.183C688.972 232.183 688.567 232.306 688.204 232.551C687.852 232.786 687.511 233.175 687.18 233.719L685.5 232.263C685.948 231.506 686.519 230.935 687.212 230.551C687.905 230.167 688.7 229.975 689.596 229.975C690.375 229.975 691.047 230.119 691.612 230.407C692.188 230.695 692.631 231.106 692.94 231.639C693.26 232.173 693.42 232.797 693.42 233.511C693.42 233.959 693.361 234.375 693.244 234.759C693.127 235.133 692.935 235.506 692.668 235.879C692.412 236.242 692.065 236.642 691.628 237.079L688.62 240.071L685.516 240.039ZM685.516 241.447V240.039L687.644 239.303H693.644V241.447H685.516Z" fill="#2C274B"/>
<g filter="url(#filter12_d_3668_60)">
<path d="M599.011 240.039C599.011 274.134 570.21 301.773 534.681 301.773C499.152 301.773 470.351 274.134 470.351 240.039C470.351 205.944 499.152 178.305 534.681 178.305C570.21 178.305 599.011 205.944 599.011 240.039Z" fill="#6747C7" fill-opacity="0.7" shape-rendering="crispEdges"/>
</g>
<path d="M511.266 248.182V236.886H513.778V248.182H511.266ZM513.186 243.75V241.59H518.834V243.75H513.186ZM513.186 239.046V236.886H519.09V239.046H513.186ZM520.703 248.182V236.886H522.495L526.943 243.814H526.031L530.463 236.886H532.271V248.182H529.759V241.126L530.207 241.238L527.311 245.75H525.647L522.767 241.238L523.199 241.126V248.182H520.703ZM539.798 248.358C538.955 248.358 538.171 248.214 537.446 247.926C536.731 247.627 536.102 247.211 535.558 246.678C535.024 246.145 534.608 245.526 534.31 244.822C534.011 244.107 533.862 243.339 533.862 242.518C533.862 241.697 534.011 240.934 534.31 240.23C534.608 239.515 535.024 238.897 535.558 238.374C536.091 237.851 536.715 237.446 537.43 237.158C538.155 236.859 538.939 236.71 539.782 236.71C540.678 236.71 541.472 236.854 542.166 237.142C542.87 237.43 543.483 237.825 544.006 238.326L542.326 240.022C542.027 239.702 541.664 239.451 541.238 239.27C540.822 239.089 540.336 238.998 539.782 238.998C539.291 238.998 538.838 239.083 538.422 239.254C538.016 239.414 537.664 239.649 537.366 239.958C537.078 240.267 536.848 240.641 536.678 241.078C536.518 241.515 536.438 241.995 536.438 242.518C536.438 243.051 536.518 243.537 536.678 243.974C536.848 244.411 537.078 244.785 537.366 245.094C537.664 245.403 538.016 245.643 538.422 245.814C538.838 245.985 539.291 246.07 539.782 246.07C540.358 246.07 540.859 245.979 541.286 245.798C541.712 245.617 542.08 245.366 542.39 245.046L544.086 246.742C543.542 247.243 542.918 247.638 542.214 247.926C541.52 248.214 540.715 248.358 539.798 248.358ZM550.376 248.358C549.533 248.358 548.749 248.214 548.024 247.926C547.309 247.627 546.68 247.211 546.136 246.678C545.602 246.145 545.186 245.526 544.888 244.822C544.589 244.107 544.44 243.339 544.44 242.518C544.44 241.697 544.589 240.934 544.888 240.23C545.186 239.515 545.602 238.897 546.136 238.374C546.669 237.851 547.293 237.446 548.008 237.158C548.733 236.859 549.517 236.71 550.36 236.71C551.256 236.71 552.05 236.854 552.744 237.142C553.448 237.43 554.061 237.825 554.584 238.326L552.904 240.022C552.605 239.702 552.242 239.451 551.816 239.27C551.4 239.089 550.914 238.998 550.36 238.998C549.869 238.998 549.416 239.083 549 239.254C548.594 239.414 548.242 239.649 547.944 239.958C547.656 240.267 547.426 240.641 547.256 241.078C547.096 241.515 547.016 241.995 547.016 242.518C547.016 243.051 547.096 243.537 547.256 243.974C547.426 244.411 547.656 244.785 547.944 245.094C548.242 245.403 548.594 245.643 549 245.814C549.416 245.985 549.869 246.07 550.36 246.07C550.936 246.07 551.437 245.979 551.864 245.798C552.29 245.617 552.658 245.366 552.968 245.046L554.664 246.742C554.12 247.243 553.496 247.638 552.792 247.926C552.098 248.214 551.293 248.358 550.376 248.358ZM557.455 248.182V236.886H559.951V248.182H557.455ZM555.279 239.014V236.886H559.791V239.014H555.279Z" fill="#2C274B"/>
<g filter="url(#filter13_d_3668_60)">
<path d="M648.266 457.112C648.266 480.978 628.731 500.326 604.633 500.326C580.535 500.326 561 480.978 561 457.112C561 433.245 580.535 413.898 604.633 413.898C628.731 413.898 648.266 433.245 648.266 457.112Z" fill="#6747C7" fill-opacity="0.7" shape-rendering="crispEdges"/>
</g>
<path d="M597.549 460.204V448.908H600.061V460.204H597.549ZM601.389 460.204L605.869 448.908H608.141L612.573 460.204H609.917L606.525 450.828H607.437L603.997 460.204H601.389ZM603.933 458.156V456.108H610.093V458.156H603.933Z" fill="#2C274B"/>
<g filter="url(#filter14_d_3668_60)">
<path d="M197.153 267.872C195.403 267.872 193.771 267.584 192.257 267.008C190.763 266.41 189.451 265.578 188.321 264.512C187.19 263.445 186.305 262.197 185.665 260.768C185.046 259.317 184.737 257.749 184.737 256.064C184.737 254.357 185.046 252.789 185.665 251.36C186.305 249.93 187.179 248.693 188.289 247.648C189.419 246.602 190.731 245.792 192.225 245.216C193.718 244.618 195.339 244.32 197.089 244.32C198.859 244.32 200.481 244.597 201.953 245.152C203.425 245.706 204.705 246.474 205.793 247.456L201.537 251.744C201.025 251.189 200.395 250.752 199.649 250.432C198.923 250.112 198.07 249.952 197.089 249.952C196.235 249.952 195.446 250.09 194.721 250.368C194.017 250.645 193.409 251.05 192.897 251.584C192.385 252.117 191.979 252.768 191.681 253.536C191.403 254.282 191.265 255.125 191.265 256.064C191.265 257.024 191.403 257.888 191.681 258.656C191.979 259.402 192.385 260.042 192.897 260.576C193.409 261.109 194.017 261.525 194.721 261.824C195.446 262.101 196.235 262.24 197.089 262.24C198.049 262.24 198.902 262.09 199.649 261.792C200.417 261.493 201.078 261.056 201.633 260.48L205.921 264.768C204.79 265.749 203.521 266.517 202.113 267.072C200.705 267.605 199.051 267.872 197.153 267.872ZM208.139 267.488V244.704H214.539V267.488H208.139ZM218.326 267.488V244.704H224.726V267.488H218.326ZM223.51 267.488V262.176H235.734V267.488H223.51ZM223.51 258.464V253.28H234.55V258.464H223.51ZM223.51 250.016V244.704H235.542V250.016H223.51ZM222.422 243.584L220.822 240.96L225.814 236.64H228.79L233.782 240.96L232.182 243.584L224.79 240.032H229.846L222.422 243.584ZM238.764 267.488V244.704H243.244L245.164 249.504V267.488H238.764ZM254.444 267.488L241.228 250.88L243.244 244.704L256.46 261.312L254.444 267.488ZM254.444 267.488L252.844 262.432V244.704H259.244V267.488H254.444ZM274.278 267.872C272.528 267.872 270.896 267.584 269.382 267.008C267.888 266.41 266.576 265.578 265.446 264.512C264.315 263.445 263.43 262.197 262.79 260.768C262.171 259.317 261.862 257.749 261.862 256.064C261.862 254.357 262.171 252.789 262.79 251.36C263.43 249.93 264.304 248.693 265.414 247.648C266.544 246.602 267.856 245.792 269.35 245.216C270.843 244.618 272.464 244.32 274.214 244.32C275.984 244.32 277.606 244.597 279.078 245.152C280.55 245.706 281.83 246.474 282.918 247.456L278.662 251.744C278.15 251.189 277.52 250.752 276.774 250.432C276.048 250.112 275.195 249.952 274.214 249.952C273.36 249.952 272.571 250.09 271.846 250.368C271.142 250.645 270.534 251.05 270.022 251.584C269.51 252.117 269.104 252.768 268.806 253.536C268.528 254.282 268.39 255.125 268.39 256.064C268.39 257.024 268.528 257.888 268.806 258.656C269.104 259.402 269.51 260.042 270.022 260.576C270.534 261.109 271.142 261.525 271.846 261.824C272.571 262.101 273.36 262.24 274.214 262.24C275.174 262.24 276.027 262.09 276.774 261.792C277.542 261.493 278.203 261.056 278.758 260.48L283.046 264.768C281.915 265.749 280.646 266.517 279.238 267.072C277.83 267.605 276.176 267.872 274.278 267.872ZM285.264 267.488V244.704H291.664V267.488H285.264ZM293.755 267.488L302.427 244.704H308.955L317.531 267.488H310.875L304.507 248.128H306.811L300.283 267.488H293.755ZM299.387 263.648V258.656H312.123V263.648H299.387ZM328.739 267.488V262.048H334.051C335.246 262.048 336.28 261.834 337.155 261.408C338.03 260.96 338.702 260.288 339.171 259.392C339.64 258.496 339.875 257.386 339.875 256.064C339.875 254.741 339.63 253.642 339.139 252.768C338.67 251.893 337.998 251.242 337.123 250.816C336.27 250.368 335.246 250.144 334.051 250.144H328.419V244.704H334.051C335.843 244.704 337.486 244.97 338.979 245.504C340.494 246.037 341.806 246.805 342.915 247.808C344.024 248.81 344.878 250.016 345.475 251.424C346.094 252.81 346.403 254.368 346.403 256.096C346.403 257.824 346.094 259.392 345.475 260.8C344.878 262.186 344.024 263.381 342.915 264.384C341.806 265.386 340.504 266.154 339.011 266.688C337.518 267.221 335.886 267.488 334.115 267.488H328.739ZM324.451 267.488V244.704H330.851V267.488H324.451ZM349.014 267.488V244.704H355.414V267.488H349.014ZM354.198 267.488V262.176H366.422V267.488H354.198ZM354.198 258.464V253.28H365.238V258.464H354.198ZM354.198 250.016V244.704H366.23V250.016H354.198ZM189.13 307.488V302.048H194.442C195.636 302.048 196.671 301.834 197.546 301.408C198.42 300.96 199.092 300.288 199.562 299.392C200.031 298.496 200.266 297.386 200.266 296.064C200.266 294.741 200.02 293.642 199.53 292.768C199.06 291.893 198.388 291.242 197.514 290.816C196.66 290.368 195.636 290.144 194.442 290.144H188.81V284.704H194.442C196.234 284.704 197.876 284.97 199.37 285.504C200.884 286.037 202.196 286.805 203.306 287.808C204.415 288.81 205.268 290.016 205.866 291.424C206.484 292.81 206.794 294.368 206.794 296.096C206.794 297.824 206.484 299.392 205.866 300.8C205.268 302.186 204.415 303.381 203.306 304.384C202.196 305.386 200.895 306.154 199.402 306.688C197.908 307.221 196.276 307.488 194.506 307.488H189.13ZM184.842 307.488V284.704H191.242V307.488H184.842ZM207.708 307.488L216.38 284.704H222.908L231.484 307.488H224.828L218.46 288.128H220.764L214.236 307.488H207.708ZM213.34 303.648V298.656H226.076V303.648H213.34ZM237.599 307.488V302.048H242.911C244.105 302.048 245.14 301.834 246.015 301.408C246.889 300.96 247.561 300.288 248.031 299.392C248.5 298.496 248.735 297.386 248.735 296.064C248.735 294.741 248.489 293.642 247.999 292.768C247.529 291.893 246.857 291.242 245.983 290.816C245.129 290.368 244.105 290.144 242.911 290.144H237.279V284.704H242.911C244.703 284.704 246.345 284.97 247.839 285.504C249.353 286.037 250.665 286.805 251.775 287.808C252.884 288.81 253.737 290.016 254.335 291.424C254.953 292.81 255.263 294.368 255.263 296.096C255.263 297.824 254.953 299.392 254.335 300.8C253.737 302.186 252.884 303.381 251.775 304.384C250.665 305.386 249.364 306.154 247.871 306.688C246.377 307.221 244.745 307.488 242.975 307.488H237.599ZM233.311 307.488V284.704H239.711V307.488H233.311ZM269.137 307.936C267.345 307.936 265.692 307.637 264.177 307.04C262.684 306.442 261.372 305.61 260.241 304.544C259.132 303.477 258.268 302.218 257.649 300.768C257.03 299.317 256.721 297.749 256.721 296.064C256.721 294.357 257.02 292.789 257.617 291.36C258.236 289.93 259.1 288.682 260.209 287.616C261.318 286.549 262.62 285.728 264.113 285.152C265.628 284.554 267.281 284.256 269.073 284.256C270.865 284.256 272.508 284.554 274.001 285.152C275.516 285.728 276.828 286.549 277.937 287.616C279.046 288.682 279.9 289.941 280.497 291.392C281.116 292.821 281.425 294.389 281.425 296.096C281.425 297.781 281.116 299.349 280.497 300.8C279.9 302.229 279.046 303.488 277.937 304.576C276.828 305.642 275.526 306.474 274.033 307.072C272.54 307.648 270.908 307.936 269.137 307.936ZM269.073 302.304C270.268 302.304 271.302 302.048 272.177 301.536C273.052 301.024 273.724 300.298 274.193 299.36C274.662 298.421 274.897 297.322 274.897 296.064C274.897 295.125 274.758 294.282 274.481 293.536C274.225 292.768 273.841 292.117 273.329 291.584C272.817 291.029 272.198 290.613 271.473 290.336C270.769 290.037 269.969 289.888 269.073 289.888C267.878 289.888 266.844 290.144 265.969 290.656C265.094 291.146 264.422 291.861 263.953 292.8C263.484 293.717 263.249 294.805 263.249 296.064C263.249 297.024 263.377 297.888 263.633 298.656C263.91 299.424 264.305 300.085 264.817 300.64C265.329 301.173 265.937 301.589 266.641 301.888C267.366 302.165 268.177 302.304 269.073 302.304ZM290.952 307.872C289.01 307.872 287.314 307.594 285.864 307.04C284.434 306.464 283.112 305.557 281.896 304.32L285.896 300.32C286.728 301.109 287.602 301.717 288.52 302.144C289.437 302.549 290.418 302.752 291.464 302.752C292.338 302.752 293 302.624 293.448 302.368C293.896 302.09 294.12 301.717 294.12 301.248C294.12 300.778 293.928 300.394 293.544 300.096C293.16 299.776 292.648 299.498 292.008 299.264C291.389 299.008 290.696 298.752 289.928 298.496C289.181 298.24 288.434 297.93 287.688 297.568C286.941 297.205 286.248 296.768 285.608 296.256C284.989 295.722 284.488 295.072 284.104 294.304C283.72 293.514 283.528 292.554 283.528 291.424C283.528 289.952 283.88 288.682 284.584 287.616C285.288 286.549 286.28 285.738 287.56 285.184C288.84 284.608 290.344 284.32 292.072 284.32C293.778 284.32 295.357 284.597 296.808 285.152C298.28 285.685 299.496 286.453 300.456 287.456L296.424 291.456C295.72 290.773 295.016 290.272 294.312 289.952C293.608 289.61 292.84 289.44 292.008 289.44C291.346 289.44 290.813 289.546 290.408 289.76C290.024 289.973 289.832 290.293 289.832 290.72C289.832 291.168 290.024 291.541 290.408 291.84C290.792 292.117 291.293 292.373 291.912 292.608C292.552 292.842 293.245 293.088 293.992 293.344C294.76 293.6 295.517 293.909 296.264 294.272C297.01 294.613 297.693 295.061 298.312 295.616C298.952 296.149 299.464 296.821 299.848 297.632C300.232 298.442 300.424 299.424 300.424 300.576C300.424 302.901 299.592 304.704 297.928 305.984C296.285 307.242 293.96 307.872 290.952 307.872ZM322.634 307.488L312.522 296.32C311.711 295.402 311.135 294.538 310.794 293.728C310.474 292.917 310.314 292.032 310.314 291.072C310.314 289.898 310.612 288.8 311.21 287.776C311.828 286.752 312.671 285.92 313.738 285.28C314.826 284.64 316.084 284.32 317.514 284.32C318.666 284.32 319.668 284.48 320.522 284.8C321.396 285.098 322.132 285.482 322.73 285.952C323.327 286.4 323.764 286.848 324.042 287.296L320.042 291.296C319.658 290.762 319.274 290.41 318.89 290.24C318.506 290.048 318.1 289.952 317.674 289.952C317.204 289.952 316.82 290.09 316.522 290.368C316.244 290.624 316.106 290.933 316.106 291.296C316.106 291.53 316.159 291.776 316.266 292.032C316.394 292.288 316.575 292.554 316.81 292.832L329.866 307.488H322.634ZM315.466 307.872C313.93 307.872 312.586 307.562 311.434 306.944C310.303 306.304 309.418 305.45 308.778 304.384C308.159 303.317 307.85 302.133 307.85 300.832C307.85 299.381 308.223 298.09 308.97 296.96C309.716 295.808 310.868 294.88 312.426 294.176L314.986 298.4C314.495 298.549 314.132 298.805 313.898 299.168C313.684 299.53 313.578 299.914 313.578 300.32C313.578 300.64 313.652 300.949 313.802 301.248C313.951 301.546 314.175 301.792 314.474 301.984C314.772 302.176 315.135 302.272 315.562 302.272C315.924 302.272 316.276 302.186 316.618 302.016C316.959 301.824 317.3 301.482 317.642 300.992L321.962 305.12C321.663 305.504 321.194 305.909 320.554 306.336C319.935 306.762 319.188 307.125 318.314 307.424C317.439 307.722 316.49 307.872 315.466 307.872ZM336.154 307.488V284.704H342.554V307.488H336.154ZM344.646 307.488L353.318 284.704H359.846L368.422 307.488H361.766L355.398 288.128H357.702L351.174 307.488H344.646ZM350.278 303.648V298.656H363.014V303.648H350.278Z" fill="#6747C7"/>
</g>
<rect x="840" y="460" width="163" height="27" rx="13.5" fill="#6747C7" fill-opacity="0.69"/>
<rect x="842" y="501" width="163" height="27" rx="13.5" fill="#9881FF" fill-opacity="0.41"/>
<path d="M878.01 521.24C876.943 521.24 875.957 521.053 875.05 520.68C874.157 520.307 873.37 519.787 872.69 519.12C872.01 518.453 871.483 517.68 871.11 516.8C870.737 515.907 870.55 514.947 870.55 513.92C870.55 512.88 870.737 511.92 871.11 511.04C871.483 510.16 872.003 509.393 872.67 508.74C873.337 508.073 874.117 507.56 875.01 507.2C875.917 506.827 876.903 506.64 877.97 506.64C879.023 506.64 879.997 506.827 880.89 507.2C881.797 507.56 882.583 508.073 883.25 508.74C883.93 509.393 884.457 510.167 884.83 511.06C885.203 511.94 885.39 512.9 885.39 513.94C885.39 514.967 885.203 515.927 884.83 516.82C884.457 517.7 883.937 518.473 883.27 519.14C882.603 519.793 881.817 520.307 880.91 520.68C880.017 521.053 879.05 521.24 878.01 521.24ZM877.97 518.38C878.81 518.38 879.543 518.193 880.17 517.82C880.81 517.447 881.303 516.927 881.65 516.26C881.997 515.58 882.17 514.8 882.17 513.92C882.17 513.253 882.07 512.653 881.87 512.12C881.67 511.573 881.383 511.107 881.01 510.72C880.637 510.32 880.19 510.02 879.67 509.82C879.163 509.607 878.597 509.5 877.97 509.5C877.13 509.5 876.39 509.687 875.75 510.06C875.123 510.42 874.637 510.933 874.29 511.6C873.943 512.253 873.77 513.027 873.77 513.92C873.77 514.587 873.87 515.193 874.07 515.74C874.27 516.287 874.55 516.76 874.91 517.16C875.283 517.547 875.73 517.847 876.25 518.06C876.77 518.273 877.343 518.38 877.97 518.38ZM889.783 515.86V513.42H892.823C893.21 513.42 893.563 513.34 893.883 513.18C894.203 513.02 894.457 512.787 894.643 512.48C894.83 512.173 894.923 511.8 894.923 511.36C894.923 510.933 894.83 510.567 894.643 510.26C894.457 509.953 894.203 509.72 893.883 509.56C893.563 509.4 893.21 509.32 892.823 509.32H889.783V506.88H893.283C894.177 506.88 894.983 507.06 895.703 507.42C896.423 507.78 896.99 508.3 897.403 508.98C897.83 509.647 898.043 510.44 898.043 511.36C898.043 512.28 897.83 513.08 897.403 513.76C896.99 514.427 896.423 514.947 895.703 515.32C894.983 515.68 894.177 515.86 893.283 515.86H889.783ZM887.383 521V506.88H890.523V521H887.383ZM903.148 521V507.08H906.288V521H903.148ZM898.728 509.62V506.88H910.708V509.62H898.728ZM909.663 521L915.263 506.88H918.103L923.643 521H920.323L916.083 509.28H917.223L912.923 521H909.663ZM912.843 518.44V515.88H920.543V518.44H912.843ZM927.015 521V507.08H930.155V521H927.015ZM922.595 509.62V506.88H934.575V509.62H922.595ZM936.329 521V506.88H939.469V521H936.329ZM946.588 521L941.148 506.88H944.508L948.648 518.3H947.268L951.468 506.88H954.788L949.288 521H946.588ZM953.589 521L959.189 506.88H962.029L967.569 521H964.249L960.009 509.28H961.149L956.849 521H953.589ZM956.769 518.44V515.88H964.469V518.44H956.769ZM973.03 521.22C971.87 521.22 970.87 521.033 970.03 520.66C969.203 520.273 968.443 519.693 967.75 518.92L969.79 516.9C970.243 517.42 970.743 517.827 971.29 518.12C971.85 518.4 972.496 518.54 973.23 518.54C973.896 518.54 974.41 518.42 974.77 518.18C975.143 517.94 975.33 517.607 975.33 517.18C975.33 516.793 975.21 516.48 974.97 516.24C974.73 516 974.41 515.793 974.01 515.62C973.623 515.447 973.19 515.28 972.71 515.12C972.243 514.96 971.776 514.78 971.31 514.58C970.843 514.367 970.41 514.107 970.01 513.8C969.623 513.48 969.31 513.087 969.07 512.62C968.83 512.14 968.71 511.54 968.71 510.82C968.71 509.953 968.916 509.207 969.33 508.58C969.756 507.953 970.343 507.48 971.09 507.16C971.836 506.827 972.696 506.66 973.67 506.66C974.656 506.66 975.556 506.833 976.37 507.18C977.196 507.527 977.876 508 978.41 508.6L976.37 510.62C975.943 510.18 975.51 509.853 975.07 509.64C974.643 509.427 974.156 509.32 973.61 509.32C973.063 509.32 972.63 509.427 972.31 509.64C971.99 509.84 971.83 510.133 971.83 510.52C971.83 510.88 971.95 511.173 972.19 511.4C972.43 511.613 972.743 511.8 973.13 511.96C973.53 512.12 973.963 512.28 974.43 512.44C974.91 512.6 975.383 512.787 975.85 513C976.316 513.213 976.743 513.487 977.13 513.82C977.53 514.14 977.85 514.553 978.09 515.06C978.33 515.553 978.45 516.167 978.45 516.9C978.45 518.247 977.97 519.307 977.01 520.08C976.05 520.84 974.723 521.22 973.03 521.22Z" fill="#2C274B"/>
<path d="M855.567 480.24C854.5 480.24 853.513 480.053 852.607 479.68C851.713 479.307 850.927 478.787 850.247 478.12C849.567 477.453 849.04 476.68 848.667 475.8C848.293 474.907 848.107 473.947 848.107 472.92C848.107 471.88 848.293 470.92 848.667 470.04C849.04 469.16 849.56 468.393 850.227 467.74C850.893 467.073 851.673 466.56 852.567 466.2C853.473 465.827 854.46 465.64 855.527 465.64C856.58 465.64 857.553 465.827 858.447 466.2C859.353 466.56 860.14 467.073 860.807 467.74C861.487 468.393 862.013 469.167 862.387 470.06C862.76 470.94 862.947 471.9 862.947 472.94C862.947 473.967 862.76 474.927 862.387 475.82C862.013 476.7 861.493 477.473 860.827 478.14C860.16 478.793 859.373 479.307 858.467 479.68C857.573 480.053 856.607 480.24 855.567 480.24ZM855.527 477.38C856.367 477.38 857.1 477.193 857.727 476.82C858.367 476.447 858.86 475.927 859.207 475.26C859.553 474.58 859.727 473.8 859.727 472.92C859.727 472.253 859.627 471.653 859.427 471.12C859.227 470.573 858.94 470.107 858.567 469.72C858.193 469.32 857.747 469.02 857.227 468.82C856.72 468.607 856.153 468.5 855.527 468.5C854.687 468.5 853.947 468.687 853.307 469.06C852.68 469.42 852.193 469.933 851.847 470.6C851.5 471.253 851.327 472.027 851.327 472.92C851.327 473.587 851.427 474.193 851.627 474.74C851.827 475.287 852.107 475.76 852.467 476.16C852.84 476.547 853.287 476.847 853.807 477.06C854.327 477.273 854.9 477.38 855.527 477.38ZM867.34 480V477.56H870.66C871.273 477.56 871.753 477.38 872.1 477.02C872.447 476.66 872.62 476.22 872.62 475.7C872.62 475.34 872.54 475.02 872.38 474.74C872.22 474.46 871.993 474.24 871.7 474.08C871.42 473.92 871.073 473.84 870.66 473.84H867.34V471.46H870.4C870.92 471.46 871.34 471.333 871.66 471.08C871.98 470.813 872.14 470.413 872.14 469.88C872.14 469.36 871.98 468.973 871.66 468.72C871.34 468.453 870.92 468.32 870.4 468.32H867.34V465.88H871C871.907 465.88 872.673 466.047 873.3 466.38C873.94 466.713 874.427 467.16 874.76 467.72C875.093 468.28 875.26 468.9 875.26 469.58C875.26 470.447 874.98 471.18 874.42 471.78C873.86 472.38 873.033 472.793 871.94 473.02L872.02 471.96C873.207 472.187 874.12 472.647 874.76 473.34C875.413 474.033 875.74 474.887 875.74 475.9C875.74 476.673 875.547 477.373 875.16 478C874.787 478.613 874.24 479.1 873.52 479.46C872.813 479.82 871.96 480 870.96 480H867.34ZM864.94 480V465.88H868.04V480H864.94ZM880.153 474.18V471.86H883.133C883.759 471.86 884.239 471.7 884.573 471.38C884.919 471.06 885.093 470.627 885.093 470.08C885.093 469.573 884.926 469.153 884.593 468.82C884.259 468.487 883.779 468.32 883.153 468.32H880.153V465.88H883.513C884.446 465.88 885.266 466.06 885.973 466.42C886.679 466.767 887.233 467.253 887.633 467.88C888.033 468.507 888.233 469.227 888.233 470.04C888.233 470.867 888.033 471.593 887.633 472.22C887.233 472.833 886.673 473.313 885.953 473.66C885.233 474.007 884.386 474.18 883.413 474.18H880.153ZM877.753 480V465.88H880.893V480H877.753ZM885.433 480L881.033 473.92L883.913 473.14L889.153 480H885.433ZM890.526 480V465.88H893.666V480H890.526ZM903.045 480.22C902.019 480.22 901.052 480.033 900.145 479.66C899.252 479.287 898.472 478.773 897.805 478.12C897.139 477.453 896.612 476.68 896.225 475.8C895.852 474.907 895.665 473.947 895.665 472.92C895.665 471.893 895.859 470.94 896.245 470.06C896.632 469.18 897.165 468.413 897.845 467.76C898.539 467.093 899.345 466.58 900.265 466.22C901.185 465.847 902.172 465.66 903.225 465.66C904.439 465.66 905.539 465.88 906.525 466.32C907.525 466.76 908.352 467.367 909.005 468.14L906.865 470.28C906.412 469.693 905.879 469.253 905.265 468.96C904.652 468.667 903.959 468.52 903.185 468.52C902.359 468.52 901.619 468.707 900.965 469.08C900.312 469.44 899.799 469.953 899.425 470.62C899.065 471.273 898.885 472.04 898.885 472.92C898.885 473.8 899.065 474.573 899.425 475.24C899.785 475.907 900.279 476.427 900.905 476.8C901.532 477.173 902.252 477.36 903.065 477.36C903.892 477.36 904.592 477.207 905.165 476.9C905.752 476.58 906.199 476.127 906.505 475.54C906.825 474.94 906.985 474.213 906.985 473.36L909.065 474.76L902.765 474.66V472H910.185V472.46C910.185 474.153 909.879 475.58 909.265 476.74C908.665 477.887 907.825 478.753 906.745 479.34C905.679 479.927 904.445 480.22 903.045 480.22ZM910.423 480L916.023 465.88H918.863L924.403 480H921.083L916.843 468.28H917.983L913.683 480H910.423ZM913.603 477.44V474.88H921.303V477.44H913.603ZM927.775 480V466.08H930.915V480H927.775ZM923.355 468.62V465.88H935.335V468.62H923.355ZM943.086 480.24C942.02 480.24 941.033 480.053 940.126 479.68C939.233 479.307 938.446 478.787 937.766 478.12C937.086 477.453 936.56 476.68 936.186 475.8C935.813 474.907 935.626 473.947 935.626 472.92C935.626 471.88 935.813 470.92 936.186 470.04C936.56 469.16 937.08 468.393 937.746 467.74C938.413 467.073 939.193 466.56 940.086 466.2C940.993 465.827 941.98 465.64 943.046 465.64C944.1 465.64 945.073 465.827 945.966 466.2C946.873 466.56 947.66 467.073 948.326 467.74C949.006 468.393 949.533 469.167 949.906 470.06C950.28 470.94 950.466 471.9 950.466 472.94C950.466 473.967 950.28 474.927 949.906 475.82C949.533 476.7 949.013 477.473 948.346 478.14C947.68 478.793 946.893 479.307 945.986 479.68C945.093 480.053 944.126 480.24 943.086 480.24ZM943.046 477.38C943.886 477.38 944.62 477.193 945.246 476.82C945.886 476.447 946.38 475.927 946.726 475.26C947.073 474.58 947.246 473.8 947.246 472.92C947.246 472.253 947.146 471.653 946.946 471.12C946.746 470.573 946.46 470.107 946.086 469.72C945.713 469.32 945.266 469.02 944.746 468.82C944.24 468.607 943.673 468.5 943.046 468.5C942.206 468.5 941.466 468.687 940.826 469.06C940.2 469.42 939.713 469.933 939.366 470.6C939.02 471.253 938.846 472.027 938.846 472.92C938.846 473.587 938.946 474.193 939.146 474.74C939.346 475.287 939.626 475.76 939.986 476.16C940.36 476.547 940.806 476.847 941.326 477.06C941.846 477.273 942.42 477.38 943.046 477.38ZM954.86 474.18V471.86H957.84C958.466 471.86 958.946 471.7 959.28 471.38C959.626 471.06 959.8 470.627 959.8 470.08C959.8 469.573 959.633 469.153 959.3 468.82C958.966 468.487 958.486 468.32 957.86 468.32H954.86V465.88H958.22C959.153 465.88 959.973 466.06 960.68 466.42C961.386 466.767 961.94 467.253 962.34 467.88C962.74 468.507 962.94 469.227 962.94 470.04C962.94 470.867 962.74 471.593 962.34 472.22C961.94 472.833 961.38 473.313 960.66 473.66C959.94 474.007 959.093 474.18 958.12 474.18H954.86ZM952.46 480V465.88H955.6V480H952.46ZM960.14 480L955.74 473.92L958.62 473.14L963.86 480H960.14ZM965.233 480V465.88H968.373V480H965.233ZM970.032 480L975.632 465.88H978.472L984.012 480H980.692L976.452 468.28H977.592L973.292 480H970.032ZM973.212 477.44V474.88H980.912V477.44H973.212ZM989.473 480.22C988.313 480.22 987.313 480.033 986.473 479.66C985.646 479.273 984.886 478.693 984.193 477.92L986.233 475.9C986.686 476.42 987.186 476.827 987.733 477.12C988.293 477.4 988.94 477.54 989.673 477.54C990.34 477.54 990.853 477.42 991.213 477.18C991.586 476.94 991.773 476.607 991.773 476.18C991.773 475.793 991.653 475.48 991.413 475.24C991.173 475 990.853 474.793 990.453 474.62C990.066 474.447 989.633 474.28 989.153 474.12C988.686 473.96 988.22 473.78 987.753 473.58C987.286 473.367 986.853 473.107 986.453 472.8C986.066 472.48 985.753 472.087 985.513 471.62C985.273 471.14 985.153 470.54 985.153 469.82C985.153 468.953 985.36 468.207 985.773 467.58C986.2 466.953 986.786 466.48 987.533 466.16C988.28 465.827 989.14 465.66 990.113 465.66C991.1 465.66 992 465.833 992.813 466.18C993.64 466.527 994.32 467 994.853 467.6L992.813 469.62C992.386 469.18 991.953 468.853 991.513 468.64C991.086 468.427 990.6 468.32 990.053 468.32C989.506 468.32 989.073 468.427 988.753 468.64C988.433 468.84 988.273 469.133 988.273 469.52C988.273 469.88 988.393 470.173 988.633 470.4C988.873 470.613 989.186 470.8 989.573 470.96C989.973 471.12 990.406 471.28 990.873 471.44C991.353 471.6 991.826 471.787 992.293 472C992.76 472.213 993.186 472.487 993.573 472.82C993.973 473.14 994.293 473.553 994.533 474.06C994.773 474.553 994.893 475.167 994.893 475.9C994.893 477.247 994.413 478.307 993.453 479.08C992.493 479.84 991.166 480.22 989.473 480.22Z" fill="#2C274B"/>
<defs>
<filter id="filter0_d_3668_60" x="134.255" y="137.835" width="295.054" height="297.978" filterUnits="userSpaceOnUse" color-interpolation-filters="sRGB">
<feFlood flood-opacity="0" result="BackgroundImageFix"/>
<feColorMatrix in="SourceAlpha" type="matrix" values="0 0 0 0 0 0 0 0 0 0 0 0 0 0 0 0 0 0 127 0" result="hardAlpha"/>
<feMorphology radius="8" operator="erode" in="SourceAlpha" result="effect1_dropShadow_3668_60"/>
<feOffset dx="9" dy="11"/>
<feGaussianBlur stdDeviation="5.5"/>
<feComposite in2="hardAlpha" operator="out"/>
<feColorMatrix type="matrix" values="0 0 0 0 0 0 0 0 0 0 0 0 0 0 0 0 0 0 0.17 0"/>
<feBlend mode="normal" in2="BackgroundImageFix" result="effect1_dropShadow_3668_60"/>
<feBlend mode="normal" in="SourceGraphic" in2="effect1_dropShadow_3668_60" result="shape"/>
</filter>
<filter id="filter1_d_3668_60" x="0.0999999" y="43.1" width="144.461" height="139.269" filterUnits="userSpaceOnUse" color-interpolation-filters="sRGB">
<feFlood flood-opacity="0" result="BackgroundImageFix"/>
<feColorMatrix in="SourceAlpha" type="matrix" values="0 0 0 0 0 0 0 0 0 0 0 0 0 0 0 0 0 0 127 0" result="hardAlpha"/>
<feOffset dx="5" dy="4"/>
<feGaussianBlur stdDeviation="3.95"/>
<feComposite in2="hardAlpha" operator="out"/>
<feColorMatrix type="matrix" values="0 0 0 0 0 0 0 0 0 0 0 0 0 0 0 0 0 0 0.08 0"/>
<feBlend mode="normal" in2="BackgroundImageFix" result="effect1_dropShadow_3668_60"/>
<feBlend mode="normal" in="SourceGraphic" in2="effect1_dropShadow_3668_60" result="shape"/>
</filter>
<filter id="filter2_d_3668_60" x="6.1" y="386.385" width="144.461" height="139.269" filterUnits="userSpaceOnUse" color-interpolation-filters="sRGB">
<feFlood flood-opacity="0" result="BackgroundImageFix"/>
<feColorMatrix in="SourceAlpha" type="matrix" values="0 0 0 0 0 0 0 0 0 0 0 0 0 0 0 0 0 0 127 0" result="hardAlpha"/>
<feOffset dx="5" dy="4"/>
<feGaussianBlur stdDeviation="3.95"/>
<feComposite in2="hardAlpha" operator="out"/>
<feColorMatrix type="matrix" values="0 0 0 0 0 0 0 0 0 0 0 0 0 0 0 0 0 0 0.08 0"/>
<feBlend mode="normal" in2="BackgroundImageFix" result="effect1_dropShadow_3668_60"/>
<feBlend mode="normal" in="SourceGraphic" in2="effect1_dropShadow_3668_60" result="shape"/>
</filter>
<filter id="filter3_d_3668_60" x="900.774" y="159.813" width="144.461" height="139.269" filterUnits="userSpaceOnUse" color-interpolation-filters="sRGB">
<feFlood flood-opacity="0" result="BackgroundImageFix"/>
<feColorMatrix in="SourceAlpha" type="matrix" values="0 0 0 0 0 0 0 0 0 0 0 0 0 0 0 0 0 0 127 0" result="hardAlpha"/>
<feOffset dx="5" dy="4"/>
<feGaussianBlur stdDeviation="3.95"/>
<feComposite in2="hardAlpha" operator="out"/>
<feColorMatrix type="matrix" values="0 0 0 0 0 0 0 0 0 0 0 0 0 0 0 0 0 0 0.08 0"/>
<feBlend mode="normal" in2="BackgroundImageFix" result="effect1_dropShadow_3668_60"/>
<feBlend mode="normal" in="SourceGraphic" in2="effect1_dropShadow_3668_60" result="shape"/>
</filter>
<filter id="filter4_d_3668_60" x="552.478" y="76.7524" width="103.066" height="102.228" filterUnits="userSpaceOnUse" color-interpolation-filters="sRGB">
<feFlood flood-opacity="0" result="BackgroundImageFix"/>
<feColorMatrix in="SourceAlpha" type="matrix" values="0 0 0 0 0 0 0 0 0 0 0 0 0 0 0 0 0 0 127 0" result="hardAlpha"/>
<feOffset dx="5" dy="4"/>
<feGaussianBlur stdDeviation="3.95"/>
<feComposite in2="hardAlpha" operator="out"/>
<feColorMatrix type="matrix" values="0 0 0 0 0 0 0 0 0 0 0 0 0 0 0 0 0 0 0.08 0"/>
<feBlend mode="normal" in2="BackgroundImageFix" result="effect1_dropShadow_3668_60"/>
<feBlend mode="normal" in="SourceGraphic" in2="effect1_dropShadow_3668_60" result="shape"/>
</filter>
<filter id="filter5_d_3668_60" x="651.05" y="0.0999999" width="77.3332" height="76.4118" filterUnits="userSpaceOnUse" color-interpolation-filters="sRGB">
<feFlood flood-opacity="0" result="BackgroundImageFix"/>
<feColorMatrix in="SourceAlpha" type="matrix" values="0 0 0 0 0 0 0 0 0 0 0 0 0 0 0 0 0 0 127 0" result="hardAlpha"/>
<feOffset dx="5" dy="4"/>
<feGaussianBlur stdDeviation="3.95"/>
<feComposite in2="hardAlpha" operator="out"/>
<feColorMatrix type="matrix" values="0 0 0 0 0 0 0 0 0 0 0 0 0 0 0 0 0 0 0.08 0"/>
<feBlend mode="normal" in2="BackgroundImageFix" result="effect1_dropShadow_3668_60"/>
<feBlend mode="normal" in="SourceGraphic" in2="effect1_dropShadow_3668_60" result="shape"/>
</filter>
<filter id="filter6_d_3668_60" x="620.724" y="188.997" width="103.066" height="102.228" filterUnits="userSpaceOnUse" color-interpolation-filters="sRGB">
<feFlood flood-opacity="0" result="BackgroundImageFix"/>
<feColorMatrix in="SourceAlpha" type="matrix" values="0 0 0 0 0 0 0 0 0 0 0 0 0 0 0 0 0 0 127 0" result="hardAlpha"/>
<feOffset dx="5" dy="4"/>
<feGaussianBlur stdDeviation="3.95"/>
<feComposite in2="hardAlpha" operator="out"/>
<feColorMatrix type="matrix" values="0 0 0 0 0 0 0 0 0 0 0 0 0 0 0 0 0 0 0.08 0"/>
<feBlend mode="normal" in2="BackgroundImageFix" result="effect1_dropShadow_3668_60"/>
<feBlend mode="normal" in="SourceGraphic" in2="effect1_dropShadow_3668_60" result="shape"/>
</filter>
<filter id="filter7_d_3668_60" x="402.1" y="385.1" width="144.461" height="139.269" filterUnits="userSpaceOnUse" color-interpolation-filters="sRGB">
<feFlood flood-opacity="0" result="BackgroundImageFix"/>
<feColorMatrix in="SourceAlpha" type="matrix" values="0 0 0 0 0 0 0 0 0 0 0 0 0 0 0 0 0 0 127 0" result="hardAlpha"/>
<feOffset dx="5" dy="4"/>
<feGaussianBlur stdDeviation="3.95"/>
<feComposite in2="hardAlpha" operator="out"/>
<feColorMatrix type="matrix" values="0 0 0 0 0 0 0 0 0 0 0 0 0 0 0 0 0 0 0.08 0"/>
<feBlend mode="normal" in2="BackgroundImageFix" result="effect1_dropShadow_3668_60"/>
<feBlend mode="normal" in="SourceGraphic" in2="effect1_dropShadow_3668_60" result="shape"/>
</filter>
<filter id="filter8_d_3668_60" x="729.598" y="261.955" width="84.0461" height="83.1465" filterUnits="userSpaceOnUse" color-interpolation-filters="sRGB">
<feFlood flood-opacity="0" result="BackgroundImageFix"/>
<feColorMatrix in="SourceAlpha" type="matrix" values="0 0 0 0 0 0 0 0 0 0 0 0 0 0 0 0 0 0 127 0" result="hardAlpha"/>
<feOffset dx="5" dy="4"/>
<feGaussianBlur stdDeviation="3.95"/>
<feComposite in2="hardAlpha" operator="out"/>
<feColorMatrix type="matrix" values="0 0 0 0 0 0 0 0 0 0 0 0 0 0 0 0 0 0 0.08 0"/>
<feBlend mode="normal" in2="BackgroundImageFix" result="effect1_dropShadow_3668_60"/>
<feBlend mode="normal" in="SourceGraphic" in2="effect1_dropShadow_3668_60" result="shape"/>
</filter>
<filter id="filter9_d_3668_60" x="607.65" y="324.812" width="84.0461" height="83.1465" filterUnits="userSpaceOnUse" color-interpolation-filters="sRGB">
<feFlood flood-opacity="0" result="BackgroundImageFix"/>
<feColorMatrix in="SourceAlpha" type="matrix" values="0 0 0 0 0 0 0 0 0 0 0 0 0 0 0 0 0 0 127 0" result="hardAlpha"/>
<feOffset dx="5" dy="4"/>
<feGaussianBlur stdDeviation="3.95"/>
<feComposite in2="hardAlpha" operator="out"/>
<feColorMatrix type="matrix" values="0 0 0 0 0 0 0 0 0 0 0 0 0 0 0 0 0 0 0.08 0"/>
<feBlend mode="normal" in2="BackgroundImageFix" result="effect1_dropShadow_3668_60"/>
<feBlend mode="normal" in="SourceGraphic" in2="effect1_dropShadow_3668_60" result="shape"/>
</filter>
<filter id="filter10_d_3668_60" x="700.51" y="103.691" width="84.0461" height="83.1465" filterUnits="userSpaceOnUse" color-interpolation-filters="sRGB">
<feFlood flood-opacity="0" result="BackgroundImageFix"/>
<feColorMatrix in="SourceAlpha" type="matrix" values="0 0 0 0 0 0 0 0 0 0 0 0 0 0 0 0 0 0 127 0" result="hardAlpha"/>
<feOffset dx="5" dy="4"/>
<feGaussianBlur stdDeviation="3.95"/>
<feComposite in2="hardAlpha" operator="out"/>
<feColorMatrix type="matrix" values="0 0 0 0 0 0 0 0 0 0 0 0 0 0 0 0 0 0 0.08 0"/>
<feBlend mode="normal" in2="BackgroundImageFix" result="effect1_dropShadow_3668_60"/>
<feBlend mode="normal" in="SourceGraphic" in2="effect1_dropShadow_3668_60" result="shape"/>
</filter>
<filter id="filter11_d_3668_60" x="803.439" y="127.262" width="84.0461" height="83.1465" filterUnits="userSpaceOnUse" color-interpolation-filters="sRGB">
<feFlood flood-opacity="0" result="BackgroundImageFix"/>
<feColorMatrix in="SourceAlpha" type="matrix" values="0 0 0 0 0 0 0 0 0 0 0 0 0 0 0 0 0 0 127 0" result="hardAlpha"/>
<feOffset dx="5" dy="4"/>
<feGaussianBlur stdDeviation="3.95"/>
<feComposite in2="hardAlpha" operator="out"/>
<feColorMatrix type="matrix" values="0 0 0 0 0 0 0 0 0 0 0 0 0 0 0 0 0 0 0.08 0"/>
<feBlend mode="normal" in2="BackgroundImageFix" result="effect1_dropShadow_3668_60"/>
<feBlend mode="normal" in="SourceGraphic" in2="effect1_dropShadow_3668_60" result="shape"/>
</filter>
<filter id="filter12_d_3668_60" x="467.451" y="174.405" width="144.461" height="139.269" filterUnits="userSpaceOnUse" color-interpolation-filters="sRGB">
<feFlood flood-opacity="0" result="BackgroundImageFix"/>
<feColorMatrix in="SourceAlpha" type="matrix" values="0 0 0 0 0 0 0 0 0 0 0 0 0 0 0 0 0 0 127 0" result="hardAlpha"/>
<feOffset dx="5" dy="4"/>
<feGaussianBlur stdDeviation="3.95"/>
<feComposite in2="hardAlpha" operator="out"/>
<feColorMatrix type="matrix" values="0 0 0 0 0 0 0 0 0 0 0 0 0 0 0 0 0 0 0.08 0"/>
<feBlend mode="normal" in2="BackgroundImageFix" result="effect1_dropShadow_3668_60"/>
<feBlend mode="normal" in="SourceGraphic" in2="effect1_dropShadow_3668_60" result="shape"/>
</filter>
<filter id="filter13_d_3668_60" x="558.1" y="409.998" width="103.066" height="102.228" filterUnits="userSpaceOnUse" color-interpolation-filters="sRGB">
<feFlood flood-opacity="0" result="BackgroundImageFix"/>
<feColorMatrix in="SourceAlpha" type="matrix" values="0 0 0 0 0 0 0 0 0 0 0 0 0 0 0 0 0 0 127 0" result="hardAlpha"/>
<feOffset dx="5" dy="4"/>
<feGaussianBlur stdDeviation="3.95"/>
<feComposite in2="hardAlpha" operator="out"/>
<feColorMatrix type="matrix" values="0 0 0 0 0 0 0 0 0 0 0 0 0 0 0 0 0 0 0.08 0"/>
<feBlend mode="normal" in2="BackgroundImageFix" result="effect1_dropShadow_3668_60"/>
<feBlend mode="normal" in="SourceGraphic" in2="effect1_dropShadow_3668_60" result="shape"/>
</filter>
<filter id="filter14_d_3668_60" x="180.736" y="236.64" width="191.686" height="79.296" filterUnits="userSpaceOnUse" color-interpolation-filters="sRGB">
<feFlood flood-opacity="0" result="BackgroundImageFix"/>
<feColorMatrix in="SourceAlpha" type="matrix" values="0 0 0 0 0 0 0 0 0 0 0 0 0 0 0 0 0 0 127 0" result="hardAlpha"/>
<feOffset dy="4"/>
<feGaussianBlur stdDeviation="2"/>
<feComposite in2="hardAlpha" operator="out"/>
<feColorMatrix type="matrix" values="0 0 0 0 0 0 0 0 0 0 0 0 0 0 0 0 0 0 0.2 0"/>
<feBlend mode="normal" in2="BackgroundImageFix" result="effect1_dropShadow_3668_60"/>
<feBlend mode="normal" in="SourceGraphic" in2="effect1_dropShadow_3668_60" result="shape"/>
</filter>
</defs>
</svg>
