<svg width="1028" height="152" viewBox="0 0 1028 152" fill="none" xmlns="http://www.w3.org/2000/svg">
<path d="M24.4 151.2C15.4667 151.2 9.13333 148.667 5.4 143.6C1.8 138.4 4.76837e-07 130.6 4.76837e-07 120.2C4.76837e-07 113.533 1.06667 103.533 3.2 90.2C5.46667 76.7333 8.6 58.9333 12.6 36.8L2 15.4C8.26667 11.4 14.9333 7.99999 22 5.19999C29.0667 2.26666 36.1333 0.799998 43.2 0.799998C46.8 0.799998 50.6 1.46666 54.6 2.8C58.7333 4.13333 61.6667 5.53333 63.4 6.99999C68.4667 4.99999 73.2667 3.53333 77.8 2.6C82.4667 1.66666 86.8 1.19999 90.8 1.19999C99.6 1.19999 107 3.33333 113 7.59999C119 11.7333 123.533 17.2 126.6 24C129.8 30.8 131.4 38.1333 131.4 46C131.4 52.9333 130.067 59.9333 127.4 67C124.733 73.9333 120.667 80.2667 115.2 86C109.733 91.7333 102.8 96.3333 94.4 99.8C86 103.267 76.0667 105 64.6 105C61.2667 105 57.8667 104.8 54.4 104.4C51.0667 103.867 47.7333 103.133 44.4 102.2C43.6 107 43.2 110.667 43.2 113.2C43.2 120 43.6667 125.733 44.6 130.4C45.6667 135.067 47.2 139 49.2 142.2C41.2 148.2 32.9333 151.2 24.4 151.2ZM54 80C59.4667 80 64.6667 78.6667 69.6 76C74.6667 73.2 78.8 69.4667 82 64.8C85.2 60.1333 86.8 54.8 86.8 48.8C86.8 43.0667 85.1333 38 81.8 33.6C78.4667 29.0667 73.4 26.8 66.6 26.8C63.9333 26.8 60.8667 27.3333 57.4 28.4C56.8667 32.4 56.0667 37.3333 55 43.2C54.0667 48.9333 53 54.9333 51.8 61.2C50.7333 67.4667 49.5333 73.5333 48.2 79.4C50.0667 79.8 52 80 54 80ZM197.559 151C185.159 151 174.693 148.8 166.159 144.4C157.626 140 151.159 133.867 146.759 126C142.493 118 140.359 108.8 140.359 98.4C140.359 87.6 142.293 77.8 146.159 69C150.159 60.0667 155.693 52.4 162.759 46C169.826 39.6 178.026 34.6667 187.359 31.2C196.826 27.7333 207.026 26 217.959 26C230.893 26 240.426 28.8667 246.559 34.6C252.693 40.3333 255.759 47.5333 255.759 56.2C255.759 63.6667 253.293 70.7333 248.359 77.4C243.559 83.9333 235.759 89.2667 224.959 93.4C214.159 97.4 199.759 99.4667 181.759 99.6C182.159 108.133 184.093 114.867 187.559 119.8C191.159 124.6 195.626 127 200.959 127C203.626 127 206.426 126.4 209.359 125.2C212.293 123.867 214.759 121.6 216.759 118.4C218.759 115.067 219.759 110.533 219.759 104.8C228.826 104.8 235.959 105.8 241.159 107.8C246.359 109.8 248.959 113.4 248.959 118.6C248.959 123.4 246.893 128.333 242.759 133.4C238.626 138.333 232.693 142.533 224.959 146C217.359 149.333 208.226 151 197.559 151ZM183.559 83.6C193.293 82.8 201.093 81 206.959 78.2C212.826 75.4 217.093 72.2 219.759 68.6C222.426 65 223.759 61.6667 223.759 58.6C223.759 55.9333 222.959 53.7333 221.359 52C219.759 50.2667 217.493 49.4 214.559 49.4C209.759 49.4 205.293 51.0667 201.159 54.4C197.026 57.7333 193.426 62.0667 190.359 67.4C187.426 72.6 185.159 78 183.559 83.6ZM296.405 151C288.271 151 282.471 148.867 279.005 144.6C275.538 140.333 273.805 134.2 273.805 126.2C273.805 123.4 274.205 119.133 275.005 113.4C275.805 107.533 276.805 101.067 278.005 94C279.338 86.8 280.738 79.6 282.205 72.4C283.671 65.2 285.071 58.8 286.405 53.2L276.005 37.2C282.938 34.1333 289.338 31.5333 295.205 29.4C301.205 27.1333 306.538 26 311.205 26C314.671 26 317.205 27.2 318.805 29.6C320.405 32 321.205 35.0667 321.205 38.8C321.205 43.0667 320.471 47.8667 319.005 53.2C317.538 58.4 316.071 63.3333 314.605 68L316.605 69C321.271 55.2667 326.538 44.6667 332.405 37.2C338.405 29.7333 345.071 26 352.405 26C357.205 26 361.071 27.0667 364.005 29.2C366.938 31.2 369.071 33.7333 370.405 36.8C371.871 39.7333 372.605 42.6 372.605 45.4C372.605 49.8 371.471 54.0667 369.205 58.2C367.071 62.2 363.605 65.5333 358.805 68.2C354.005 70.7333 347.671 72 339.805 72C336.738 72 333.738 72.6667 330.805 74C327.871 75.3333 325.205 77.8667 322.805 81.6C320.405 85.2 318.471 90.3333 317.005 97C315.671 103.667 315.005 112.333 315.005 123C315.005 131.267 316.405 137.333 319.205 141.2C310.938 147.733 303.338 151 296.405 151ZM435.264 151C423.797 151 413.464 148.667 404.264 144C395.197 139.2 387.997 131.867 382.664 122C377.331 112.133 374.664 99.6667 374.664 84.6C374.664 77.2667 375.931 69.7333 378.464 62C380.997 54.2667 384.664 46.8 389.464 39.6C394.397 32.2667 400.464 25.7333 407.664 20C414.997 14.1333 423.464 9.53333 433.064 6.19999C442.664 2.73333 453.331 0.999995 465.064 0.999995C472.264 0.999995 478.731 1.99999 484.464 3.99999C490.331 5.99999 494.931 8.99999 498.264 13C501.597 16.8667 503.264 21.7333 503.264 27.6C503.264 33.3333 501.931 38.1333 499.264 42C496.731 45.8667 493.331 48.8 489.064 50.8C484.931 52.6667 480.397 53.6 475.464 53.6C469.597 53.6 463.864 52.1333 458.264 49.2C452.664 46.2667 448.131 41.9333 444.664 36.2C439.997 38.4667 435.597 42.3333 431.464 47.8C427.464 53.1333 424.264 59.4 421.864 66.6C419.464 73.8 418.264 81.2667 418.264 89C418.264 94.4667 418.931 99.6 420.264 104.4C421.731 109.067 423.931 112.867 426.864 115.8C429.797 118.733 433.531 120.2 438.064 120.2C441.797 120.2 445.397 118.8 448.864 116C452.331 113.067 455.197 109.2 457.464 104.4C459.731 99.6 460.864 94.2 460.864 88.2C468.997 88.2 475.797 88.6 481.264 89.4C486.864 90.0667 491.131 91.6 494.064 94C496.997 96.4 498.464 100.133 498.464 105.2C498.464 110.267 496.997 115.467 494.064 120.8C491.131 126.133 486.864 131.133 481.264 135.8C475.797 140.333 469.131 144 461.264 146.8C453.531 149.6 444.864 151 435.264 151ZM549.788 151C541.521 151 535.054 149.533 530.388 146.6C525.854 143.8 522.654 140 520.788 135.2C519.054 130.267 518.188 124.733 518.188 118.6C518.188 111.533 518.921 104.133 520.388 96.4C521.854 88.5333 523.321 80.9333 524.788 73.6C526.254 66.1333 526.988 59.6 526.988 54C526.988 45.7333 525.588 39.6667 522.788 35.8C528.254 32.8667 533.921 30.5333 539.788 28.8C545.788 26.9333 550.588 26 554.188 26C559.654 26 563.588 27.1333 565.988 29.4C568.521 31.5333 569.788 35.1333 569.788 40.2C569.788 43 569.388 46.8667 568.588 51.8C567.788 56.6 566.788 61.8667 565.588 67.6C564.388 73.3333 563.121 79.1333 561.788 85C560.588 90.7333 559.588 95.9333 558.788 100.6C557.988 105.267 557.588 108.933 557.588 111.6C557.588 116.533 558.854 120.267 561.388 122.8C564.054 125.333 567.254 126.6 570.988 126.6C575.254 126.6 579.721 125 584.388 121.8C589.054 118.6 592.921 113.933 595.988 107.8C596.521 104.867 597.188 101.2 597.988 96.8C598.921 92.4 599.921 87.7333 600.988 82.8C602.188 77.7333 603.254 72.9333 604.188 68.4C605.254 63.7333 606.188 59.8 606.988 56.6L594.988 40.6C600.721 36.4667 606.854 33 613.388 30.2C619.921 27.4 626.588 26 633.388 26C639.388 26 643.654 27.1333 646.188 29.4C648.854 31.5333 650.188 35.1333 650.188 40.2C650.188 43 649.654 46.8667 648.588 51.8C647.654 56.7333 646.454 62.2667 644.988 68.4C643.654 74.4 642.254 80.6667 640.788 87.2C639.321 93.7333 638.054 100.133 636.988 106.4C636.054 112.533 635.588 118.067 635.588 123C635.588 127 636.054 130.6 636.988 133.8C638.054 136.867 639.654 139.333 641.788 141.2C634.321 147.733 626.388 151 617.988 151C609.454 151 603.521 149.067 600.188 145.2C596.854 141.333 595.188 136.733 595.188 131.4L593.188 130.4C588.788 136.933 582.654 142 574.788 145.6C566.921 149.2 558.588 151 549.788 151ZM691.522 151C683.389 151 677.589 148.867 674.122 144.6C670.655 140.333 668.922 134.2 668.922 126.2C668.922 123.4 669.322 119.133 670.122 113.4C670.922 107.533 671.922 101.067 673.122 94C674.455 86.8 675.855 79.6 677.322 72.4C678.789 65.2 680.189 58.8 681.522 53.2L671.122 37.2C678.055 34.1333 684.455 31.5333 690.322 29.4C696.322 27.1333 701.655 26 706.322 26C709.789 26 712.322 27.2 713.922 29.6C715.522 32 716.322 35.0667 716.322 38.8C716.322 43.0667 715.589 47.8667 714.122 53.2C712.655 58.4 711.189 63.3333 709.722 68L711.722 69C716.389 55.2667 721.655 44.6667 727.522 37.2C733.522 29.7333 740.189 26 747.522 26C752.322 26 756.189 27.0667 759.122 29.2C762.055 31.2 764.189 33.7333 765.522 36.8C766.989 39.7333 767.722 42.6 767.722 45.4C767.722 49.8 766.589 54.0667 764.322 58.2C762.189 62.2 758.722 65.5333 753.922 68.2C749.122 70.7333 742.789 72 734.922 72C731.855 72 728.855 72.6667 725.922 74C722.989 75.3333 720.322 77.8667 717.922 81.6C715.522 85.2 713.589 90.3333 712.122 97C710.789 103.667 710.122 112.333 710.122 123C710.122 131.267 711.522 137.333 714.322 141.2C706.055 147.733 698.455 151 691.522 151ZM822.381 151C809.848 151 799.848 150 792.381 148C785.048 146.133 779.781 143.533 776.581 140.2C773.381 136.867 771.781 133.2 771.781 129.2C771.781 126.133 772.581 122.6 774.181 118.6C775.915 114.6 778.381 110.8 781.581 107.2C783.848 110.267 786.848 113.133 790.581 115.8C794.448 118.333 798.648 120.4 803.181 122C807.715 123.467 812.115 124.2 816.381 124.2C821.048 124.2 825.248 123.133 828.981 121C832.715 118.733 835.181 114.933 836.381 109.6C815.848 107.2 801.115 102.667 792.181 96C783.248 89.2 778.781 79.8 778.781 67.8C778.781 60.2 780.581 53.7333 784.181 48.4C787.781 43.0667 792.581 38.8 798.581 35.6C804.715 32.2667 811.648 29.8667 819.381 28.4C827.248 26.8 835.381 26 843.781 26C851.648 26 858.648 27.0667 864.781 29.2C870.915 31.2 875.715 33.9333 879.181 37.4C882.648 40.8667 884.381 44.8667 884.381 49.4C884.381 55.8 882.048 60.6667 877.381 64C872.848 67.3333 867.648 69 861.781 69C857.781 69 853.581 67.6667 849.181 65C844.781 62.3333 841.248 58.2 838.581 52.6C833.648 54.0667 829.715 56.2 826.781 59C823.848 61.6667 821.248 65.5333 818.981 70.6C834.181 72.8667 846.248 75.7333 855.181 79.2C864.115 82.6667 870.515 87.0667 874.381 92.4C878.381 97.6 880.381 104.067 880.381 111.8C880.381 117.933 878.981 123.267 876.181 127.8C873.515 132.333 869.981 136.067 865.581 139C861.181 141.933 856.381 144.267 851.181 146C845.981 147.867 840.848 149.133 835.781 149.8C830.715 150.6 826.248 151 822.381 151ZM957.897 151C946.164 151 936.03 148.8 927.497 144.4C919.097 139.867 912.63 133.667 908.097 125.8C903.564 117.933 901.297 108.8 901.297 98.4C901.297 84 904.43 71.4 910.697 60.6C917.097 49.6667 925.83 41.2 936.897 35.2C947.964 29.0667 960.564 26 974.697 26C976.964 26 979.23 26.1333 981.497 26.4C983.897 26.5333 986.43 26.9333 989.097 27.6C989.764 29.4667 990.297 31.7333 990.697 34.4C991.097 36.9333 991.364 39.6667 991.497 42.6C992.697 42.2 993.964 41.8667 995.297 41.6C996.764 41.3333 998.297 41.2 999.897 41.2C1004.56 41.2 1008.96 42.4667 1013.1 45C1017.23 47.4 1020.63 51.2 1023.3 56.4C1025.96 61.6 1027.3 68.2 1027.3 76.2C1027.3 88.0667 1025.3 98.6667 1021.3 108C1017.43 117.2 1012.16 125 1005.5 131.4C998.83 137.8 991.364 142.667 983.097 146C974.964 149.333 966.564 151 957.897 151ZM964.097 126.4C967.164 126.4 970.364 125.667 973.697 124.2C977.03 122.733 980.297 120.067 983.497 116.2C986.697 112.333 989.364 106.867 991.497 99.8C985.764 96.2 981.63 91.8 979.097 86.6C976.564 81.2667 975.297 75.4 975.297 69C975.297 67.1333 975.63 64.7333 976.297 61.8C976.964 58.8667 978.097 55.8667 979.697 52.8C981.43 49.7333 983.764 47.2 986.697 45.2C977.497 47.0667 969.964 49.8667 964.097 53.6C958.23 57.3333 953.63 61.6667 950.297 66.6C947.097 71.4 944.83 76.4 943.497 81.6C942.297 86.6667 941.697 91.5333 941.697 96.2C941.697 101.533 942.564 106.533 944.297 111.2C946.03 115.733 948.564 119.4 951.897 122.2C955.23 125 959.297 126.4 964.097 126.4Z" fill="white"/>
</svg>
