<svg width="186" height="28" viewBox="0 0 186 28" fill="none" xmlns="http://www.w3.org/2000/svg">
<path d="M4.552 27.936C2.944 27.936 1.804 27.48 1.132 26.568C0.484 25.632 0.16 24.228 0.16 22.356C0.16 21.156 0.352 19.356 0.736 16.956C1.144 14.532 1.708 11.328 2.428 7.344L0.52 3.492C1.648 2.772 2.848 2.16 4.12 1.656C5.392 1.128 6.664 0.864 7.936 0.864C8.584 0.864 9.268 0.983999 9.988 1.224C10.732 1.464 11.26 1.716 11.572 1.98C12.484 1.62 13.348 1.356 14.164 1.188C15.004 1.02 15.784 0.935999 16.504 0.935999C18.088 0.935999 19.42 1.32 20.5 2.088C21.58 2.832 22.396 3.816 22.948 5.04C23.524 6.264 23.812 7.584 23.812 9C23.812 10.248 23.572 11.508 23.092 12.78C22.612 14.028 21.88 15.168 20.896 16.2C19.912 17.232 18.664 18.06 17.152 18.684C15.64 19.308 13.852 19.62 11.788 19.62C11.188 19.62 10.576 19.584 9.952 19.512C9.352 19.416 8.752 19.284 8.152 19.116C8.008 19.98 7.936 20.64 7.936 21.096C7.936 22.32 8.02 23.352 8.188 24.192C8.38 25.032 8.656 25.74 9.016 26.316C7.576 27.396 6.088 27.936 4.552 27.936ZM9.88 15.12C10.864 15.12 11.8 14.88 12.688 14.4C13.6 13.896 14.344 13.224 14.92 12.384C15.496 11.544 15.784 10.584 15.784 9.504C15.784 8.472 15.484 7.56 14.884 6.768C14.284 5.952 13.372 5.544 12.148 5.544C11.668 5.544 11.116 5.64 10.492 5.832C10.396 6.552 10.252 7.44 10.06 8.496C9.892 9.528 9.7 10.608 9.484 11.736C9.292 12.864 9.076 13.956 8.836 15.012C9.172 15.084 9.52 15.12 9.88 15.12ZM35.7207 27.9C33.4887 27.9 31.6047 27.504 30.0687 26.712C28.5327 25.92 27.3687 24.816 26.5767 23.4C25.8087 21.96 25.4247 20.304 25.4247 18.432C25.4247 16.488 25.7727 14.724 26.4687 13.14C27.1887 11.532 28.1847 10.152 29.4567 9C30.7287 7.848 32.2047 6.96 33.8847 6.336C35.5887 5.712 37.4247 5.4 39.3927 5.4C41.7207 5.4 43.4367 5.916 44.5407 6.948C45.6447 7.98 46.1967 9.276 46.1967 10.836C46.1967 12.18 45.7527 13.452 44.8647 14.652C44.0007 15.828 42.5967 16.788 40.6527 17.532C38.7087 18.252 36.1167 18.624 32.8767 18.648C32.9487 20.184 33.2967 21.396 33.9207 22.284C34.5687 23.148 35.3727 23.58 36.3327 23.58C36.8127 23.58 37.3167 23.472 37.8447 23.256C38.3727 23.016 38.8167 22.608 39.1767 22.032C39.5367 21.432 39.7167 20.616 39.7167 19.584C41.3487 19.584 42.6327 19.764 43.5687 20.124C44.5047 20.484 44.9727 21.132 44.9727 22.068C44.9727 22.932 44.6007 23.82 43.8567 24.732C43.1127 25.62 42.0447 26.376 40.6527 27C39.2847 27.6 37.6407 27.9 35.7207 27.9ZM33.2007 15.768C34.9527 15.624 36.3567 15.3 37.4127 14.796C38.4687 14.292 39.2367 13.716 39.7167 13.068C40.1967 12.42 40.4367 11.82 40.4367 11.268C40.4367 10.788 40.2927 10.392 40.0047 10.08C39.7167 9.768 39.3087 9.612 38.7807 9.612C37.9167 9.612 37.1127 9.912 36.3687 10.512C35.6247 11.112 34.9767 11.892 34.4247 12.852C33.8967 13.788 33.4887 14.76 33.2007 15.768ZM53.5128 27.9C52.0488 27.9 51.0048 27.516 50.3808 26.748C49.7568 25.98 49.4448 24.876 49.4448 23.436C49.4448 22.932 49.5168 22.164 49.6608 21.132C49.8048 20.076 49.9848 18.912 50.2008 17.64C50.4408 16.344 50.6928 15.048 50.9568 13.752C51.2208 12.456 51.4728 11.304 51.7128 10.296L49.8408 7.416C51.0888 6.864 52.2408 6.396 53.2968 6.012C54.3768 5.604 55.3368 5.4 56.1768 5.4C56.8008 5.4 57.2568 5.616 57.5448 6.048C57.8328 6.48 57.9768 7.032 57.9768 7.704C57.9768 8.472 57.8448 9.336 57.5808 10.296C57.3168 11.232 57.0528 12.12 56.7888 12.96L57.1488 13.14C57.9888 10.668 58.9368 8.76 59.9928 7.416C61.0728 6.072 62.2728 5.4 63.5928 5.4C64.4568 5.4 65.1528 5.592 65.6808 5.976C66.2088 6.336 66.5928 6.792 66.8328 7.344C67.0968 7.872 67.2288 8.388 67.2288 8.892C67.2288 9.684 67.0248 10.452 66.6168 11.196C66.2328 11.916 65.6088 12.516 64.7448 12.996C63.8808 13.452 62.7408 13.68 61.3248 13.68C60.7728 13.68 60.2328 13.8 59.7048 14.04C59.1768 14.28 58.6968 14.736 58.2648 15.408C57.8328 16.056 57.4848 16.98 57.2208 18.18C56.9808 19.38 56.8608 20.94 56.8608 22.86C56.8608 24.348 57.1128 25.44 57.6168 26.136C56.1288 27.312 54.7608 27.9 53.5128 27.9ZM78.5075 27.9C76.4435 27.9 74.5835 27.48 72.9275 26.64C71.2955 25.776 69.9995 24.456 69.0395 22.68C68.0795 20.904 67.5995 18.66 67.5995 15.948C67.5995 14.628 67.8275 13.272 68.2835 11.88C68.7395 10.488 69.3995 9.144 70.2635 7.848C71.1515 6.528 72.2435 5.352 73.5395 4.32C74.8595 3.264 76.3835 2.436 78.1115 1.836C79.8395 1.212 81.7595 0.899999 83.8715 0.899999C85.1675 0.899999 86.3315 1.08 87.3635 1.44C88.4195 1.8 89.2475 2.34 89.8475 3.06C90.4475 3.756 90.7475 4.632 90.7475 5.688C90.7475 6.72 90.5075 7.584 90.0275 8.28C89.5715 8.976 88.9595 9.504 88.1915 9.864C87.4475 10.2 86.6315 10.368 85.7435 10.368C84.6875 10.368 83.6555 10.104 82.6475 9.576C81.6395 9.048 80.8235 8.268 80.1995 7.236C79.3595 7.644 78.5675 8.34 77.8235 9.324C77.1035 10.284 76.5275 11.412 76.0955 12.708C75.6635 14.004 75.4475 15.348 75.4475 16.74C75.4475 17.724 75.5675 18.648 75.8075 19.512C76.0715 20.352 76.4675 21.036 76.9955 21.564C77.5235 22.092 78.1955 22.356 79.0115 22.356C79.6835 22.356 80.3315 22.104 80.9555 21.6C81.5795 21.072 82.0955 20.376 82.5035 19.512C82.9115 18.648 83.1155 17.676 83.1155 16.596C84.5795 16.596 85.8035 16.668 86.7875 16.812C87.7955 16.932 88.5635 17.208 89.0915 17.64C89.6195 18.072 89.8835 18.744 89.8835 19.656C89.8835 20.568 89.6195 21.504 89.0915 22.464C88.5635 23.424 87.7955 24.324 86.7875 25.164C85.8035 25.98 84.6035 26.64 83.1875 27.144C81.7955 27.648 80.2355 27.9 78.5075 27.9ZM99.1218 27.9C97.6338 27.9 96.4698 27.636 95.6298 27.108C94.8138 26.604 94.2378 25.92 93.9018 25.056C93.5898 24.168 93.4338 23.172 93.4338 22.068C93.4338 20.796 93.5658 19.464 93.8298 18.072C94.0938 16.656 94.3578 15.288 94.6218 13.968C94.8858 12.624 95.0178 11.448 95.0178 10.44C95.0178 8.952 94.7658 7.86 94.2618 7.164C95.2458 6.636 96.2658 6.216 97.3218 5.904C98.4018 5.568 99.2658 5.4 99.9138 5.4C100.898 5.4 101.606 5.604 102.038 6.012C102.494 6.396 102.722 7.044 102.722 7.956C102.722 8.46 102.65 9.156 102.506 10.044C102.362 10.908 102.182 11.856 101.966 12.888C101.75 13.92 101.522 14.964 101.282 16.02C101.066 17.052 100.886 17.988 100.742 18.828C100.598 19.668 100.526 20.328 100.526 20.808C100.526 21.696 100.754 22.368 101.21 22.824C101.69 23.28 102.266 23.508 102.938 23.508C103.706 23.508 104.51 23.22 105.35 22.644C106.19 22.068 106.886 21.228 107.438 20.124C107.534 19.596 107.654 18.936 107.798 18.144C107.966 17.352 108.146 16.512 108.338 15.624C108.554 14.712 108.746 13.848 108.914 13.032C109.106 12.192 109.274 11.484 109.418 10.908L107.258 8.028C108.29 7.284 109.394 6.66 110.57 6.156C111.746 5.652 112.946 5.4 114.17 5.4C115.25 5.4 116.018 5.604 116.474 6.012C116.954 6.396 117.194 7.044 117.194 7.956C117.194 8.46 117.098 9.156 116.906 10.044C116.738 10.932 116.522 11.928 116.258 13.032C116.018 14.112 115.766 15.24 115.502 16.416C115.238 17.592 115.01 18.744 114.818 19.872C114.65 20.976 114.566 21.972 114.566 22.86C114.566 23.58 114.65 24.228 114.818 24.804C115.01 25.356 115.298 25.8 115.682 26.136C114.338 27.312 112.91 27.9 111.398 27.9C109.862 27.9 108.794 27.552 108.194 26.856C107.594 26.16 107.294 25.332 107.294 24.372L106.934 24.192C106.142 25.368 105.038 26.28 103.622 26.928C102.206 27.576 100.706 27.9 99.1218 27.9ZM124.634 27.9C123.17 27.9 122.126 27.516 121.502 26.748C120.878 25.98 120.566 24.876 120.566 23.436C120.566 22.932 120.638 22.164 120.782 21.132C120.926 20.076 121.106 18.912 121.322 17.64C121.562 16.344 121.814 15.048 122.078 13.752C122.342 12.456 122.594 11.304 122.834 10.296L120.962 7.416C122.21 6.864 123.362 6.396 124.418 6.012C125.498 5.604 126.458 5.4 127.298 5.4C127.922 5.4 128.378 5.616 128.666 6.048C128.954 6.48 129.098 7.032 129.098 7.704C129.098 8.472 128.966 9.336 128.702 10.296C128.438 11.232 128.174 12.12 127.91 12.96L128.27 13.14C129.11 10.668 130.058 8.76 131.114 7.416C132.194 6.072 133.394 5.4 134.714 5.4C135.578 5.4 136.274 5.592 136.802 5.976C137.33 6.336 137.714 6.792 137.954 7.344C138.218 7.872 138.35 8.388 138.35 8.892C138.35 9.684 138.146 10.452 137.738 11.196C137.354 11.916 136.73 12.516 135.866 12.996C135.002 13.452 133.862 13.68 132.446 13.68C131.894 13.68 131.354 13.8 130.826 14.04C130.298 14.28 129.818 14.736 129.386 15.408C128.954 16.056 128.606 16.98 128.342 18.18C128.102 19.38 127.982 20.94 127.982 22.86C127.982 24.348 128.234 25.44 128.738 26.136C127.25 27.312 125.882 27.9 124.634 27.9ZM148.189 27.9C145.933 27.9 144.133 27.72 142.789 27.36C141.469 27.024 140.521 26.556 139.945 25.956C139.369 25.356 139.081 24.696 139.081 23.976C139.081 23.424 139.225 22.788 139.513 22.068C139.825 21.348 140.269 20.664 140.845 20.016C141.253 20.568 141.793 21.084 142.465 21.564C143.161 22.02 143.917 22.392 144.733 22.68C145.549 22.944 146.341 23.076 147.109 23.076C147.949 23.076 148.705 22.884 149.377 22.5C150.049 22.092 150.493 21.408 150.709 20.448C147.013 20.016 144.361 19.2 142.753 18C141.145 16.776 140.341 15.084 140.341 12.924C140.341 11.556 140.665 10.392 141.313 9.432C141.961 8.472 142.825 7.704 143.905 7.128C145.009 6.528 146.257 6.096 147.649 5.832C149.065 5.544 150.529 5.4 152.041 5.4C153.457 5.4 154.717 5.592 155.821 5.976C156.925 6.336 157.789 6.828 158.413 7.452C159.037 8.076 159.349 8.796 159.349 9.612C159.349 10.764 158.929 11.64 158.089 12.24C157.273 12.84 156.337 13.14 155.281 13.14C154.561 13.14 153.805 12.9 153.013 12.42C152.221 11.94 151.585 11.196 151.105 10.188C150.217 10.452 149.509 10.836 148.981 11.34C148.453 11.82 147.985 12.516 147.577 13.428C150.313 13.836 152.485 14.352 154.093 14.976C155.701 15.6 156.853 16.392 157.549 17.352C158.269 18.288 158.629 19.452 158.629 20.844C158.629 21.948 158.377 22.908 157.873 23.724C157.393 24.54 156.757 25.212 155.965 25.74C155.173 26.268 154.309 26.688 153.373 27C152.437 27.336 151.513 27.564 150.601 27.684C149.689 27.828 148.885 27.9 148.189 27.9ZM172.581 27.9C170.469 27.9 168.645 27.504 167.109 26.712C165.597 25.896 164.433 24.78 163.617 23.364C162.801 21.948 162.393 20.304 162.393 18.432C162.393 15.84 162.957 13.572 164.085 11.628C165.237 9.66 166.809 8.136 168.801 7.056C170.793 5.952 173.061 5.4 175.605 5.4C176.013 5.4 176.421 5.424 176.829 5.472C177.261 5.496 177.717 5.568 178.197 5.688C178.317 6.024 178.413 6.432 178.485 6.912C178.557 7.368 178.605 7.86 178.629 8.388C178.845 8.316 179.073 8.256 179.313 8.208C179.577 8.16 179.853 8.136 180.141 8.136C180.981 8.136 181.773 8.364 182.517 8.82C183.261 9.252 183.873 9.936 184.353 10.872C184.833 11.808 185.073 12.996 185.073 14.436C185.073 16.572 184.713 18.48 183.993 20.16C183.297 21.816 182.349 23.22 181.149 24.372C179.949 25.524 178.605 26.4 177.117 27C175.653 27.6 174.141 27.9 172.581 27.9ZM173.697 23.472C174.249 23.472 174.825 23.34 175.425 23.076C176.025 22.812 176.613 22.332 177.189 21.636C177.765 20.94 178.245 19.956 178.629 18.684C177.597 18.036 176.853 17.244 176.397 16.308C175.941 15.348 175.713 14.292 175.713 13.14C175.713 12.804 175.773 12.372 175.893 11.844C176.013 11.316 176.217 10.776 176.505 10.224C176.817 9.672 177.237 9.216 177.765 8.856C176.109 9.192 174.753 9.696 173.697 10.368C172.641 11.04 171.813 11.82 171.213 12.708C170.637 13.572 170.229 14.472 169.989 15.408C169.773 16.32 169.665 17.196 169.665 18.036C169.665 18.996 169.821 19.896 170.133 20.736C170.445 21.552 170.901 22.212 171.501 22.716C172.101 23.22 172.833 23.472 173.697 23.472Z" fill="#2C274B"/>
</svg>
